<svg version="1.1" viewBox="0.0 0.0 394.51181102362204 197.0524934383202" fill="none" stroke="none" stroke-linecap="square" stroke-miterlimit="10" xmlns:xlink="http://www.w3.org/1999/xlink" xmlns="http://www.w3.org/2000/svg"><clipPath id="p.0"><path d="m0 0l394.5118 0l0 197.05249l-394.5118 0l0 -197.05249z" clip-rule="nonzero"/></clipPath><g clip-path="url(#p.0)"><path fill="#000000" fill-opacity="0.0" d="m0 0l394.5118 0l0 197.05249l-394.5118 0z" fill-rule="evenodd"/><path fill="#ffffff" d="m17.772966 21.389763l296.44092 0l0 171.81104l-296.44092 0z" fill-rule="evenodd"/><path stroke="#000000" stroke-width="2.0" stroke-linejoin="round" stroke-linecap="butt" d="m17.772966 21.389763l296.44092 0l0 171.81104l-296.44092 0z" fill-rule="evenodd"/><path fill="#ffffff" d="m312.23096 21.391077l78.299225 0l0 171.81102l-78.299225 0z" fill-rule="evenodd"/><path stroke="#000000" stroke-width="2.0" stroke-linejoin="round" stroke-linecap="butt" d="m312.23096 21.391077l78.299225 0l0 171.81102l-78.299225 0z" fill-rule="evenodd"/><path fill="#ffffff" d="m2.037422 21.54987l0 0c0 -9.071386 7.360862 -16.425198 16.440945 -16.425198l0 0c4.3604107 0 8.542229 1.7305069 11.625504 4.810829c3.0832748 3.0803213 4.815441 7.258135 4.815441 11.614368l0 0c0 9.071384 -7.360861 16.425198 -16.440945 16.425198l0 0c-9.080083 0 -16.440945 -7.353813 -16.440945 -16.425198z" fill-rule="evenodd"/><path stroke="#000000" stroke-width="2.0" stroke-linejoin="round" stroke-linecap="butt" d="m2.037422 21.54987l0 0c0 -9.071386 7.360862 -16.425198 16.440945 -16.425198l0 0c4.3604107 0 8.542229 1.7305069 11.625504 4.810829c3.0832748 3.0803213 4.815441 7.258135 4.815441 11.614368l0 0c0 9.071384 -7.360861 16.425198 -16.440945 16.425198l0 0c-9.080083 0 -16.440945 -7.353813 -16.440945 -16.425198z" fill-rule="evenodd"/><path fill="#000000" fill-opacity="0.0" d="m4.1828356 2.2669613l32.88189 0l0 36.40945l-32.88189 0z" fill-rule="evenodd"/><path fill="#000000" d="m20.714087 15.470712l0 1.203126l-4.578125 0l-0.60937595 3.265625l0.03125 0.03125q0.359375 -0.390625 0.89062595 -0.59375q0.546875 -0.21875 1.21875 -0.21875q1.65625 0 2.65625 1.03125q1.0 1.03125 1.0 2.84375q0 1.625 -1.09375 2.71875q-1.09375 1.078125 -2.859375 1.078125q-1.515626 0 -2.546876 -0.875q-1.03125 -0.890625 -1.078125 -2.375l0 -0.015625l1.359375 0q0.0625 0.90625 0.734375 1.484375q0.67187595 0.5625 1.656251 0.5625q1.046875 0 1.71875 -0.71875q0.671875 -0.71875 0.671875 -1.96875q0 -1.15625 -0.734375 -1.859375q-0.734375 -0.71875 -1.828125 -0.71875q-0.59375 0 -1.125 0.28125q-0.53125095 0.265625 -0.98437595 0.796875l-1.15625 -0.0625l1.046875 -5.890626l5.609376 0z" fill-rule="nonzero"/><path fill="#000000" fill-opacity="0.0" d="m33.772964 21.389763l132.0 0l0 32.850395l-132.0 0z" fill-rule="evenodd"/><path fill="#000000" d="m48.91359 34.001015q1.359375 0 2.234375 0.734375q0.875 0.71875 0.875 2.015625q0 1.03125 -0.453125 1.71875q-0.453125 0.671875 -1.375 0.921875l0 0.03125q0.796875 0.15625 1.171875 0.75q0.375 0.578125 0.4375 2.0q0.03125 0.90625 0.171875 1.4375q0.140625 0.515625 0.40625 0.859375l-1.546875 0q-0.140625 -0.171875 -0.1875 -0.34375q-0.03125 -0.171875 -0.0625 -0.453125l-0.0625 -1.15625q-0.015625 -0.8125 -0.34375 -1.640625q-0.328125 -0.84375 -1.4375 -0.875l-3.4375 0l0 4.46875l-1.390625 0l0 -10.46875l5.0 0zm-0.625 4.828125q1.15625 0 1.75 -0.453125q0.59375 -0.453125 0.59375 -1.40625q0 -0.84375 -0.484375 -1.3125q-0.46875 -0.46875 -1.328125 -0.46875l-3.515625 0l0 3.640625l2.984375 0zm8.618515 -2.109375q1.625 0 2.515625 1.171875q0.90625 1.171875 0.90625 3.015625l0 0.15625l-5.671875 0l0 0.078125q0 1.09375 0.625 1.75q0.640625 0.65625 1.734375 0.65625q0.828125 0 1.3125 -0.390625q0.5 -0.390625 0.65625 -1.09375l1.234375 0q-0.25 1.265625 -1.109375 1.921875q-0.84375 0.65625 -2.125 0.65625q-1.203125 0 -2.03125 -0.53125q-0.828125 -0.546875 -1.21875 -1.5q-0.390625 -0.96875 -0.390625 -1.96875q0 -1.6875 1.0 -2.796875q1.015625 -1.125 2.5625 -1.125zm-2.25 3.234375l4.359375 0q-0.0625 -0.921875 -0.671875 -1.53125q-0.609375 -0.609375 -1.53125 -0.609375q-0.859375 0 -1.46875 0.578125q-0.609375 0.578125 -0.6875 1.5625zm9.481384 -3.234375q1.53125 0 2.265625 0.59375q0.75 0.59375 0.828125 1.78125l-1.25 0l0 -0.015625q-0.046875 -0.609375 -0.53125 -0.9375q-0.46875 -0.328125 -1.21875 -0.328125q-0.75 0 -1.1875 0.265625q-0.421875 0.25 -0.421875 0.703125q0 0.40625 0.375 0.671875q0.390625 0.265625 1.15625 0.4375l1.171875 0.265625q1.109375 0.234375 1.671875 0.75q0.578125 0.5 0.578125 1.34375q0 1.125 -0.875 1.765625q-0.859375 0.625 -2.34375 0.625q-1.453125 0 -2.3125 -0.640625q-0.84375 -0.65625 -0.90625 -1.921875l1.25 0q0.015625 0.703125 0.546875 1.09375q0.546875 0.375 1.484375 0.375q0.90625 0 1.359375 -0.28125q0.46875 -0.296875 0.46875 -0.84375q0 -0.515625 -0.46875 -0.8125q-0.453125 -0.296875 -1.875 -0.578125q-1.4375 -0.28125 -2.03125 -0.796875q-0.578125 -0.515625 -0.578125 -1.359375q0 -1.0 0.8125 -1.578125q0.8125 -0.578125 2.03125 -0.578125zm8.546875 0q1.625 0 2.5625 1.125q0.9375 1.109375 0.9375 2.859375q0 1.765625 -0.9375 2.859375q-0.921875 1.078125 -2.53125 1.078125q-0.703125 0 -1.390625 -0.28125q-0.671875 -0.296875 -1.0625 -0.90625l-0.03125 0l0 3.921875l-1.234375 0l0 -10.484375l1.234375 0l0 1.03125l0.03125 0q0.296875 -0.59375 0.921875 -0.890625q0.640625 -0.3125 1.5 -0.3125zm-2.484375 3.953125q0 1.328125 0.625 2.109375q0.640625 0.765625 1.765625 0.765625q1.078125 0 1.671875 -0.765625q0.59375 -0.78125 0.59375 -2.15625q0 -1.234375 -0.625 -2.015625q-0.625 -0.796875 -1.734375 -0.796875q-1.09375 0 -1.703125 0.8125q-0.59375 0.796875 -0.59375 2.046875zm10.703461 -3.953125q1.71875 0 2.703125 1.109375q0.984375 1.109375 0.984375 2.859375q0 1.765625 -1.015625 2.859375q-1.0 1.09375 -2.671875 1.09375q-1.640625 0 -2.65625 -1.0625q-1.015625 -1.078125 -1.015625 -2.890625q0 -1.796875 0.984375 -2.875q1.0 -1.09375 2.6875 -1.09375zm-2.359375 3.96875q0 1.3125 0.65625 2.09375q0.671875 0.765625 1.703125 0.765625q1.03125 0 1.6875 -0.78125q0.671875 -0.78125 0.671875 -2.078125q0 -1.296875 -0.671875 -2.078125q-0.65625 -0.796875 -1.703125 -0.796875q-1.0 0 -1.671875 0.78125q-0.671875 0.765625 -0.671875 2.09375zm11.181519 -3.96875q1.359375 0 1.984375 0.703125q0.625 0.703125 0.625 2.0l0 5.046875l-1.25 0l0 -5.171875q0 -0.640625 -0.421875 -1.0625q-0.40625 -0.421875 -1.125 -0.421875q-1.0625 0 -1.65625 0.65625q-0.578125 0.640625 -0.578125 1.671875l0 4.328125l-1.25 0l0 -7.578125l1.171875 0l0 1.203125l0.03125 0q0.421875 -0.703125 1.015625 -1.03125q0.609375 -0.34375 1.453125 -0.34375zm6.994858 0q1.53125 0 2.265625 0.59375q0.75 0.59375 0.828125 1.78125l-1.25 0l0 -0.015625q-0.046875 -0.609375 -0.53125 -0.9375q-0.46875 -0.328125 -1.21875 -0.328125q-0.75 0 -1.1875 0.265625q-0.421875 0.25 -0.421875 0.703125q0 0.40625 0.375 0.671875q0.390625 0.265625 1.15625 0.4375l1.171875 0.265625q1.109375 0.234375 1.671875 0.75q0.578125 0.5 0.578125 1.34375q0 1.125 -0.875 1.765625q-0.859375 0.625 -2.34375 0.625q-1.453125 0 -2.3125 -0.640625q-0.84375 -0.65625 -0.90625 -1.921875l1.25 0q0.015625 0.703125 0.546875 1.09375q0.546875 0.375 1.484375 0.375q0.90625 0 1.359375 -0.28125q0.46875 -0.296875 0.46875 -0.84375q0 -0.515625 -0.46875 -0.8125q-0.453125 -0.296875 -1.875 -0.578125q-1.4375 -0.28125 -2.03125 -0.796875q-0.578125 -0.515625 -0.578125 -1.359375q0 -1.0 0.8125 -1.578125q0.8125 -0.578125 2.03125 -0.578125zm7.96875 0q1.625 0 2.515625 1.171875q0.90625 1.171875 0.90625 3.015625l0 0.15625l-5.671875 0l0 0.078125q0 1.09375 0.625 1.75q0.640625 0.65625 1.734375 0.65625q0.828125 0 1.3125 -0.390625q0.5 -0.390625 0.65625 -1.09375l1.234375 0q-0.25 1.265625 -1.109375 1.921875q-0.84375 0.65625 -2.125 0.65625q-1.203125 0 -2.03125 -0.53125q-0.828125 -0.546875 -1.21875 -1.5q-0.390625 -0.96875 -0.390625 -1.96875q0 -1.6875 1.0 -2.796875q1.015625 -1.125 2.5625 -1.125zm-2.25 3.234375l4.359375 0q-0.0625 -0.921875 -0.671875 -1.53125q-0.609375 -0.609375 -1.53125 -0.609375q-0.859375 0 -1.46875 0.578125q-0.609375 0.578125 -0.6875 1.5625z" fill-rule="nonzero"/><path fill="#999999" d="m26.261154 56.329395l276.56696 0l0 58.99213l-276.56696 0z" fill-rule="evenodd"/><path fill="#ffffff" d="m32.261158 62.396324l113.5748 0l0 47.181107l-113.5748 0z" fill-rule="evenodd"/><path stroke="#000000" stroke-width="2.0" stroke-linejoin="round" stroke-linecap="butt" d="m32.261158 62.396324l113.5748 0l0 47.181107l-113.5748 0z" fill-rule="evenodd"/><path fill="#000000" d="m46.292408 73.27125l3.703125 9.515625l-1.390625 0l-1.03125 -2.859375l-4.03125 0l-1.078125 2.859375l-1.296875 0l3.71875 -9.515625l1.40625 0zm-0.75 1.140625l-1.59375 4.4375l3.21875 0l-1.578125 -4.4375l-0.046875 0zm6.339081 1.484375l0 4.703125q0 0.578125 0.375 0.96875q0.375 0.375 1.03125 0.375q0.96875 0 1.5 -0.59375q0.53125 -0.59375 0.53125 -1.515625l0 -3.9375l1.140625 0l0 6.890625l-1.0625 0l0 -1.09375l-0.03125 0q-0.375 0.65625 -0.953125 0.953125q-0.5625 0.296875 -1.296875 0.296875q-1.203125 0 -1.78125 -0.609375q-0.578125 -0.625 -0.578125 -1.84375l0 -4.59375l1.125 0zm7.8499756 -2.0625l0 2.0625l1.375 0l0 1.0l-1.375 0l0 4.3125q0 0.515625 0.34375 0.546875q0.34375 0.03125 0.71875 0.03125l0.3125 0l0 1.0l-0.9375 0q-0.921875 0 -1.25 -0.328125q-0.3125 -0.328125 -0.3125 -1.109375l0 -4.453125l-1.1875 0l0 -1.0l1.1875 0l0 -2.0625l1.125 0zm3.760086 -0.5625l0 3.640625l0.03125 0q0.25 -0.5625 0.8281212 -0.859375q0.59375 -0.3125 1.34375 -0.3125q1.25 0 1.8125 0.640625q0.5625 0.640625 0.5625 1.8125l0 4.59375l-1.140625 0l0 -4.703125q0 -0.59375 -0.375 -0.96875q-0.375 -0.375 -1.03125 -0.375q-0.953125 0 -1.5 0.59375q-0.5312462 0.578125 -0.5312462 1.515625l0 3.9375l-1.125 0l0 -9.515625l1.125 0zm9.615597 2.46875q1.25 0 1.8125 0.640625q0.5625 0.640625 0.5625 1.8125l0 4.59375l-1.140625 0l0 -4.703125q0 -0.59375 -0.375 -0.96875q-0.375 -0.375 -1.03125 -0.375q-0.953125 0 -1.5 0.59375q-0.53125 0.578125 -0.53125 1.515625l0 3.9375l-1.125 0l0 -6.890625l1.0625 0l0 1.09375l0.03125 0q0.375 -0.640625 0.921875 -0.9375q0.546875 -0.3125 1.3125 -0.3125zm8.303101 -2.703125q1.578125 0 2.640625 0.828125q1.0625 0.8125 1.28125 2.265625l-1.265625 0q-0.21875 -0.96875 -0.921875 -1.484375q-0.703125 -0.53125 -1.75 -0.53125q-1.515625 0 -2.375 1.0625q-0.84375 1.0625 -0.84375 2.78125q0 1.828125 0.828125 2.90625q0.84375 1.078125 2.40625 1.078125q1.15625 0 1.90625 -0.734375q0.75 -0.734375 0.84375 -2.0l1.265625 0q-0.203125 1.84375 -1.28125 2.828125q-1.078125 0.984375 -2.84375 0.984375q-2.046875 0 -3.21875 -1.359375q-1.171875 -1.359375 -1.171875 -3.609375q0 -2.21875 1.203125 -3.609375q1.21875 -1.40625 3.296875 -1.40625zm8.375153 2.703125q1.5625 0 2.453125 1.015625q0.890625 1.0 0.890625 2.59375q0 1.609375 -0.921875 2.609375q-0.90625 0.984375 -2.421875 0.984375q-1.5 0 -2.421875 -0.96875q-0.921875 -0.984375 -0.921875 -2.625q0 -1.640625 0.90625 -2.625q0.90625 -0.984375 2.4375 -0.984375zm-2.15625 3.609375q0 1.1875 0.609375 1.890625q0.609375 0.703125 1.546875 0.703125q0.921875 0 1.53125 -0.703125q0.609375 -0.71875 0.609375 -1.890625q0 -1.171875 -0.609375 -1.890625q-0.59375 -0.71875 -1.546875 -0.71875q-0.90625 0 -1.53125 0.703125q-0.609375 0.703125 -0.609375 1.90625zm10.168884 -3.609375q1.25 0 1.8125 0.640625q0.5625 0.640625 0.5625 1.8125l0 4.59375l-1.140625 0l0 -4.703125q0 -0.59375 -0.375 -0.96875q-0.375 -0.375 -1.03125 -0.375q-0.953125 0 -1.5 0.59375q-0.53125 0.578125 -0.53125 1.515625l0 3.9375l-1.125 0l0 -6.890625l1.0625 0l0 1.09375l0.03125 0q0.375 -0.640625 0.921875 -0.9375q0.546875 -0.3125 1.3125 -0.3125zm5.6468506 -1.90625l0 2.0625l1.375 0l0 1.0l-1.375 0l0 4.3125q0 0.515625 0.34375 0.546875q0.34375 0.03125 0.71875 0.03125l0.3125 0l0 1.0l-0.9375 0q-0.921875 0 -1.25 -0.328125q-0.3125 -0.328125 -0.3125 -1.109375l0 -4.453125l-1.1875 0l0 -1.0l1.1875 0l0 -2.0625l1.125 0zm5.494461 1.90625q1.484375 0 2.296875 1.078125q0.828125 1.0625 0.828125 2.734375l0 0.125l-5.171875 0l0 0.09375q0 0.984375 0.578125 1.578125q0.578125 0.59375 1.578125 0.59375q0.75 0 1.1875 -0.34375q0.453125 -0.359375 0.59375 -1.0l1.125 0q-0.234375 1.140625 -1.015625 1.75q-0.765625 0.59375 -1.9375 0.59375q-1.078125 0 -1.828125 -0.484375q-0.75 -0.484375 -1.109375 -1.359375q-0.359375 -0.890625 -0.359375 -1.796875q0 -1.53125 0.90625 -2.546875q0.921875 -1.015625 2.328125 -1.015625zm-2.046875 2.9375l3.96875 0q-0.0625 -0.84375 -0.625 -1.390625q-0.546875 -0.546875 -1.375 -0.546875q-0.78125 0 -1.34375 0.53125q-0.546875 0.515625 -0.625 1.40625zm7.236786 -2.78125l1.65625 2.40625l0.015625 0l1.703125 -2.40625l1.359375 0l-2.359375 3.171875l2.65625 3.71875l-1.453125 0l-1.921875 -2.84375l-1.921875 2.84375l-1.375 0l2.59375 -3.625l-2.390625 -3.265625l1.4375 0zm7.5767365 -2.0625l0 2.0625l1.375 0l0 1.0l-1.375 0l0 4.3125q0 0.515625 0.34375 0.546875q0.34375 0.03125 0.71875 0.03125l0.3125 0l0 1.0l-0.9375 0q-0.921875 0 -1.25 -0.328125q-0.3125 -0.328125 -0.3125 -1.109375l0 -4.453125l-1.1875 0l0 -1.0l1.1875 0l0 -2.0625l1.125 0z" fill-rule="nonzero"/><path fill="#000000" d="m46.292408 89.27125l3.703125 9.515625l-1.390625 0l-1.03125 -2.859375l-4.03125 0l-1.078125 2.859375l-1.296875 0l3.71875 -9.515625l1.40625 0zm-0.75 1.140625l-1.59375 4.4375l3.21875 0l-1.578125 -4.4375l-0.046875 0zm7.495331 1.328125q1.390625 0 2.0625 0.546875q0.6875 0.53125 0.75 1.609375l-1.125 0l0 -0.015625q-0.046875 -0.546875 -0.484375 -0.84375q-0.4375 -0.296875 -1.109375 -0.296875q-0.6875 0 -1.09375 0.234375q-0.390625 0.21875 -0.390625 0.640625q0 0.375 0.34375 0.625q0.359375 0.234375 1.0625 0.375l1.0625 0.25q1.0 0.21875 1.515625 0.6875q0.53125 0.453125 0.53125 1.21875q0 1.015625 -0.796875 1.59375q-0.78125 0.578125 -2.140625 0.578125q-1.3125 0 -2.09375 -0.578125q-0.765625 -0.59375 -0.828125 -1.75l1.140625 0q0.015625 0.640625 0.5 0.984375q0.5 0.34375 1.34375 0.34375q0.828125 0 1.25 -0.25q0.421875 -0.265625 0.421875 -0.78125q0 -0.453125 -0.421875 -0.71875q-0.421875 -0.28125 -1.71875 -0.53125q-1.296875 -0.265625 -1.828125 -0.71875q-0.53125 -0.46875 -0.53125 -1.25q0 -0.90625 0.734375 -1.421875q0.734375 -0.53125 1.84375 -0.53125zm6.6640625 0q1.390625 0 2.0625 0.546875q0.6875 0.53125 0.75 1.609375l-1.125 0l0 -0.015625q-0.046875 -0.546875 -0.484375 -0.84375q-0.4375 -0.296875 -1.109375 -0.296875q-0.6875 0 -1.09375 0.234375q-0.390625 0.21875 -0.390625 0.640625q0 0.375 0.34375 0.625q0.359375 0.234375 1.0625 0.375l1.0625 0.25q1.0 0.21875 1.515625 0.6875q0.53125 0.453125 0.53125 1.21875q0 1.015625 -0.796875 1.59375q-0.78125 0.578125 -2.140625 0.578125q-1.3125 0 -2.09375 -0.578125q-0.765625 -0.59375 -0.828125 -1.75l1.140625 0q0.015625 0.640625 0.5 0.984375q0.5 0.34375 1.34375 0.34375q0.828125 0 1.25 -0.25q0.421875 -0.265625 0.421875 -0.78125q0 -0.453125 -0.421875 -0.71875q-0.421875 -0.28125 -1.71875 -0.53125q-1.296875 -0.265625 -1.828125 -0.71875q-0.53125 -0.46875 -0.53125 -1.25q0 -0.90625 0.734375 -1.421875q0.734375 -0.53125 1.84375 -0.53125zm7.2421837 0q1.484375 0 2.296875 1.078125q0.828125 1.0625 0.828125 2.734375l0 0.125l-5.171875 0l0 0.09375q0 0.984375 0.578125 1.578125q0.578125 0.59375 1.578125 0.59375q0.75 0 1.1875 -0.34375q0.453125 -0.359375 0.59375 -1.0l1.125 0q-0.234375 1.140625 -1.015625 1.75q-0.765625 0.59375 -1.9375 0.59375q-1.078125 0 -1.828125 -0.484375q-0.75 -0.484375 -1.109375 -1.359375q-0.3593712 -0.890625 -0.3593712 -1.796875q0 -1.53125 0.9062462 -2.546875q0.921875 -1.015625 2.328125 -1.015625zm-2.046875 2.9375l3.96875 0q-0.0625 -0.84375 -0.625 -1.390625q-0.546875 -0.546875 -1.375 -0.546875q-0.78125 0 -1.34375 0.53125q-0.546875 0.515625 -0.625 1.40625zm9.768036 -2.9375q0.046875 0 0.078125 0q0.03125 0 0.078125 0l0 1.203125q-1.28125 0 -1.890625 0.671875q-0.59375 0.671875 -0.59375 2.09375l0 3.078125l-1.140625 0l0 -6.890625l1.0625 0l0 1.453125l0.03125 0q0.390625 -0.828125 0.96875 -1.21875q0.59375 -0.390625 1.40625 -0.390625zm2.5789948 -1.90625l0 2.0625l1.375 0l0 1.0l-1.375 0l0 4.3125q0 0.515625 0.34375 0.546875q0.34375 0.03125 0.71875 0.03125l0.3125 0l0 1.0l-0.9375 0q-0.921875 0 -1.25 -0.328125q-0.3125 -0.328125 -0.3125 -1.109375l0 -4.453125l-1.1875 0l0 -1.0l1.1875 0l0 -2.0625l1.125 0zm3.822586 -0.5625l0 1.390625l-1.125 0l0 -1.390625l1.125 0zm0 2.625l0 6.890625l-1.125 0l0 -6.890625l1.125 0zm4.74234 -0.15625q1.5625 0 2.453125 1.015625q0.890625 1.0 0.890625 2.59375q0 1.609375 -0.921875 2.609375q-0.90625 0.984375 -2.421875 0.984375q-1.5 0 -2.421875 -0.96875q-0.921875 -0.984375 -0.921875 -2.625q0 -1.640625 0.90625 -2.625q0.90625 -0.984375 2.4375 -0.984375zm-2.15625 3.609375q0 1.1875 0.609375 1.890625q0.609375 0.703125 1.546875 0.703125q0.921875 0 1.53125 -0.703125q0.609375 -0.71875 0.609375 -1.890625q0 -1.171875 -0.609375 -1.890625q-0.59375 -0.71875 -1.546875 -0.71875q-0.90625 0 -1.53125 0.703125q-0.609375 0.703125 -0.609375 1.90625zm10.168884 -3.609375q1.25 0 1.8125 0.640625q0.5625 0.640625 0.5625 1.8125l0 4.59375l-1.140625 0l0 -4.703125q0 -0.59375 -0.375 -0.96875q-0.375 -0.375 -1.03125 -0.375q-0.953125 0 -1.5 0.59375q-0.53125 0.578125 -0.53125 1.515625l0 3.9375l-1.125 0l0 -6.890625l1.0625 0l0 1.09375l0.03125 0q0.375 -0.640625 0.921875 -0.9375q0.546875 -0.3125 1.3125 -0.3125z" fill-rule="nonzero"/><path fill="#999999" d="m26.261154 124.7762l276.56696 0l0 58.992126l-276.56696 0z" fill-rule="evenodd"/><path fill="#ffffff" d="m32.261158 130.84383l113.5748 0l0 47.181107l-113.5748 0z" fill-rule="evenodd"/><path stroke="#000000" stroke-width="2.0" stroke-linejoin="round" stroke-linecap="butt" d="m32.261158 130.84383l113.5748 0l0 47.181107l-113.5748 0z" fill-rule="evenodd"/><path fill="#000000" d="m43.620533 141.71877l0 9.515625l-1.265625 0l0 -9.515625l1.265625 0zm8.105423 0l0 9.515625l-1.140625 0l0 -0.9375l-0.03125 0q-0.265625 0.546875 -0.84375 0.828125q-0.578125 0.265625 -1.34375 0.265625q-1.453125 0 -2.3125 -1.0q-0.859375 -1.0 -0.859375 -2.625q0 -1.59375 0.828125 -2.578125q0.84375 -1.0 2.3125 -1.0q0.671875 0 1.28125 0.28125q0.609375 0.265625 0.9375 0.796875l0.03125 0l0 -3.546875l1.140625 0zm-5.34375 6.125q0 1.109375 0.578125 1.828125q0.578125 0.71875 1.5625 0.71875q1.0 0 1.546875 -0.71875q0.5625 -0.71875 0.5625 -1.875q0 -1.171875 -0.578125 -1.890625q-0.5625 -0.71875 -1.609375 -0.71875q-0.984375 0 -1.53125 0.71875q-0.53125 0.703125 -0.53125 1.9375zm9.947433 -3.65625q1.484375 0 2.296875 1.078125q0.828125 1.0625 0.828125 2.734375l0 0.125l-5.171875 0l0 0.09375q0 0.984375 0.578125 1.578125q0.578125 0.59375 1.578125 0.59375q0.75 0 1.1875 -0.34375q0.453125 -0.359375 0.59375 -1.0l1.125 0q-0.234375 1.140625 -1.015625 1.75q-0.765625 0.59375 -1.9375 0.59375q-1.078125 0 -1.828125 -0.484375q-0.75 -0.484375 -1.109375 -1.359375q-0.359375 -0.890625 -0.359375 -1.796875q0 -1.53125 0.90625 -2.546875q0.921875 -1.015625 2.328125 -1.015625zm-2.046875 2.9375l3.96875 0q-0.0625 -0.84375 -0.625 -1.390625q-0.546875 -0.546875 -1.375 -0.546875q-0.78125 0 -1.34375 0.53125q-0.546875 0.515625 -0.625 1.40625zm9.674286 -2.9375q1.2499962 0 1.8124962 0.640625q0.5625 0.640625 0.5625 1.8125l0 4.59375l-1.140625 0l0 -4.703125q0 -0.59375 -0.375 -0.96875q-0.375 -0.375 -1.0312462 -0.375q-0.953125 0 -1.5 0.59375q-0.53125 0.578125 -0.53125 1.515625l0 3.9375l-1.125 0l0 -6.890625l1.0625 0l0 1.09375l0.03125 0q0.375 -0.640625 0.921875 -0.9375q0.546875 -0.3125 1.3125 -0.3125zm5.646847 -1.90625l0 2.0625l1.375 0l0 1.0l-1.375 0l0 4.3125q0 0.515625 0.34375 0.546875q0.34375 0.03125 0.71875 0.03125l0.3125 0l0 1.0l-0.9375 0q-0.921875 0 -1.25 -0.328125q-0.3125 -0.328125 -0.3125 -1.109375l0 -4.453125l-1.1875 0l0 -1.0l1.1875 0l0 -2.0625l1.125 0zm3.822586 -0.5625l0 1.390625l-1.125 0l0 -1.390625l1.125 0zm0 2.625l0 6.890625l-1.125 0l0 -6.890625l1.125 0zm3.33609 -2.0625l0 2.0625l1.375 0l0 1.0l-1.375 0l0 4.3125q0 0.515625 0.34375 0.546875q0.34375 0.03125 0.71875 0.03125l0.3125 0l0 1.0l-0.9375 0q-0.921875 0 -1.25 -0.328125q-0.3125 -0.328125 -0.3125 -1.109375l0 -4.453125l-1.1875 0l0 -1.0l1.1875 0l0 -2.0625l1.125 0zm3.166336 2.0625l2.0 5.640625l0.03125 0l1.9375 -5.640625l1.203125 0l-2.9375 7.625q-0.453125 1.1875 -0.890625 1.609375q-0.421875 0.421875 -1.171875 0.421875q-0.203125 0 -0.40625 -0.03125q-0.1875 -0.03125 -0.375 -0.09375l0 -1.046875q0.15625 0.0625 0.3125 0.109375q0.171875 0.046875 0.34375 0.046875q0.6875 0 0.953125 -0.6875q0.28125 -0.6875 0.453125 -1.09375l-2.734375 -6.859375l1.28125 0z" fill-rule="nonzero"/><path fill="#000000" d="m46.292408 157.71875l3.703125 9.515625l-1.390625 0l-1.03125 -2.859375l-4.03125 0l-1.078125 2.859375l-1.296875 0l3.71875 -9.515625l1.40625 0zm-0.75 1.140625l-1.59375 4.4375l3.21875 0l-1.578125 -4.4375l-0.046875 0zm7.495331 1.328125q1.390625 0 2.0625 0.546875q0.6875 0.53125 0.75 1.609375l-1.125 0l0 -0.015625q-0.046875 -0.546875 -0.484375 -0.84375q-0.4375 -0.296875 -1.109375 -0.296875q-0.6875 0 -1.09375 0.234375q-0.390625 0.21875 -0.390625 0.640625q0 0.375 0.34375 0.625q0.359375 0.234375 1.0625 0.375l1.0625 0.25q1.0 0.21875 1.515625 0.6875q0.53125 0.453125 0.53125 1.21875q0 1.015625 -0.796875 1.59375q-0.78125 0.578125 -2.140625 0.578125q-1.3125 0 -2.09375 -0.578125q-0.765625 -0.59375 -0.828125 -1.75l1.140625 0q0.015625 0.640625 0.5 0.984375q0.5 0.34375 1.34375 0.34375q0.828125 0 1.25 -0.25q0.421875 -0.265625 0.421875 -0.78125q0 -0.453125 -0.421875 -0.71875q-0.421875 -0.28125 -1.71875 -0.53125q-1.296875 -0.265625 -1.828125 -0.71875q-0.53125 -0.46875 -0.53125 -1.25q0 -0.90625 0.734375 -1.421875q0.734375 -0.53125 1.84375 -0.53125zm6.6640625 0q1.390625 0 2.0625 0.546875q0.6875 0.53125 0.75 1.609375l-1.125 0l0 -0.015625q-0.046875 -0.546875 -0.484375 -0.84375q-0.4375 -0.296875 -1.109375 -0.296875q-0.6875 0 -1.09375 0.234375q-0.390625 0.21875 -0.390625 0.640625q0 0.375 0.34375 0.625q0.359375 0.234375 1.0625 0.375l1.0625 0.25q1.0 0.21875 1.515625 0.6875q0.53125 0.453125 0.53125 1.21875q0 1.015625 -0.796875 1.59375q-0.78125 0.578125 -2.140625 0.578125q-1.3125 0 -2.09375 -0.578125q-0.765625 -0.59375 -0.828125 -1.75l1.140625 0q0.015625 0.640625 0.5 0.984375q0.5 0.34375 1.34375 0.34375q0.828125 0 1.25 -0.25q0.421875 -0.265625 0.421875 -0.78125q0 -0.453125 -0.421875 -0.71875q-0.421875 -0.28125 -1.71875 -0.53125q-1.296875 -0.265625 -1.828125 -0.71875q-0.53125 -0.46875 -0.53125 -1.25q0 -0.90625 0.734375 -1.421875q0.734375 -0.53125 1.84375 -0.53125zm7.2421837 0q1.484375 0 2.296875 1.078125q0.828125 1.0625 0.828125 2.734375l0 0.125l-5.171875 0l0 0.09375q0 0.984375 0.578125 1.578125q0.578125 0.59375 1.578125 0.59375q0.75 0 1.1875 -0.34375q0.453125 -0.359375 0.59375 -1.0l1.125 0q-0.234375 1.140625 -1.015625 1.75q-0.765625 0.59375 -1.9375 0.59375q-1.078125 0 -1.828125 -0.484375q-0.75 -0.484375 -1.109375 -1.359375q-0.3593712 -0.890625 -0.3593712 -1.796875q0 -1.53125 0.9062462 -2.546875q0.921875 -1.015625 2.328125 -1.015625zm-2.046875 2.9375l3.96875 0q-0.0625 -0.84375 -0.625 -1.390625q-0.546875 -0.546875 -1.375 -0.546875q-0.78125 0 -1.34375 0.53125q-0.546875 0.515625 -0.625 1.40625zm9.768036 -2.9375q0.046875 0 0.078125 0q0.03125 0 0.078125 0l0 1.203125q-1.28125 0 -1.890625 0.671875q-0.59375 0.671875 -0.59375 2.09375l0 3.078125l-1.140625 0l0 -6.890625l1.0625 0l0 1.453125l0.03125 0q0.390625 -0.828125 0.96875 -1.21875q0.59375 -0.390625 1.40625 -0.390625zm2.5789948 -1.90625l0 2.0625l1.375 0l0 1.0l-1.375 0l0 4.3125q0 0.515625 0.34375 0.546875q0.34375 0.03125 0.71875 0.03125l0.3125 0l0 1.0l-0.9375 0q-0.921875 0 -1.25 -0.328125q-0.3125 -0.328125 -0.3125 -1.109375l0 -4.453125l-1.1875 0l0 -1.0l1.1875 0l0 -2.0625l1.125 0zm3.822586 -0.5625l0 1.390625l-1.125 0l0 -1.390625l1.125 0zm0 2.625l0 6.890625l-1.125 0l0 -6.890625l1.125 0zm4.74234 -0.15625q1.5625 0 2.453125 1.015625q0.890625 1.0 0.890625 2.59375q0 1.609375 -0.921875 2.609375q-0.90625 0.984375 -2.421875 0.984375q-1.5 0 -2.421875 -0.96875q-0.921875 -0.984375 -0.921875 -2.625q0 -1.640625 0.90625 -2.625q0.90625 -0.984375 2.4375 -0.984375zm-2.15625 3.609375q0 1.1875 0.609375 1.890625q0.609375 0.703125 1.546875 0.703125q0.921875 0 1.53125 -0.703125q0.609375 -0.71875 0.609375 -1.890625q0 -1.171875 -0.609375 -1.890625q-0.59375 -0.71875 -1.546875 -0.71875q-0.90625 0 -1.53125 0.703125q-0.609375 0.703125 -0.609375 1.90625zm10.168884 -3.609375q1.25 0 1.8125 0.640625q0.5625 0.640625 0.5625 1.8125l0 4.59375l-1.140625 0l0 -4.703125q0 -0.59375 -0.375 -0.96875q-0.375 -0.375 -1.03125 -0.375q-0.953125 0 -1.5 0.59375q-0.53125 0.578125 -0.53125 1.515625l0 3.9375l-1.125 0l0 -6.890625l1.0625 0l0 1.09375l0.03125 0q0.375 -0.640625 0.921875 -0.9375q0.546875 -0.3125 1.3125 -0.3125z" fill-rule="nonzero"/><path fill="#ffffff" d="m145.83714 130.7769l78.29921 0l0 47.181107l-78.29921 0z" fill-rule="evenodd"/><path stroke="#000000" stroke-width="2.0" stroke-linejoin="round" stroke-linecap="butt" d="m145.83714 130.7769l78.29921 0l0 47.181107l-78.29921 0z" fill-rule="evenodd"/><path fill="#000000" d="m159.07152 141.41745q1.59375 0 2.515625 0.78125q0.9375 0.765625 1.0 2.234375l-1.203125 0q-0.109375 -0.96875 -0.703125 -1.453125q-0.59375 -0.484375 -1.65625 -0.484375q-1.015625 0 -1.578125 0.421875q-0.5625 0.421875 -0.5625 1.203125q0 0.546875 0.46875 0.90625q0.484375 0.359375 2.59375 0.78125q1.515625 0.3125 2.265625 0.96875q0.765625 0.640625 0.765625 1.78125q0 1.328125 -1.09375 2.09375q-1.078125 0.75 -2.625 0.75q-1.734375 0 -2.828125 -0.859375q-1.09375 -0.875 -1.09375 -2.5l1.1875 0q0.015625 1.078125 0.78125 1.6875q0.765625 0.59375 2.0 0.59375q1.140625 0 1.765625 -0.4375q0.640625 -0.453125 0.640625 -1.296875q0 -0.671875 -0.578125 -1.078125q-0.578125 -0.40625 -2.09375 -0.703125q-2.03125 -0.390625 -2.734375 -1.0q-0.6875 -0.609375 -0.6875 -1.59375q0 -1.28125 0.96875 -2.03125q0.984375 -0.765625 2.484375 -0.765625zm6.448456 0.234375l0 1.390625l-1.125 0l0 -1.390625l1.125 0zm0 2.625l0 6.890625l-1.125 0l0 -6.890625l1.125 0zm4.570465 -0.15625q0.71875 0 1.25 0.3125q0.53125 0.3125 0.8125 0.828125l0.015625 0l0 -0.984375l1.0625 0l0 6.375q0 1.625 -0.78125 2.46875q-0.78125 0.84375 -2.40625 0.84375q-1.1875 0 -2.0 -0.53125q-0.8125 -0.515625 -0.859375 -1.484375l1.125 0q0.03125 0.515625 0.5625 0.8125q0.546875 0.296875 1.21875 0.296875q1.015625 0 1.546875 -0.671875q0.53125 -0.65625 0.53125 -1.953125l0 -0.4375l-0.03125 0q-0.265625 0.578125 -0.84375 0.921875q-0.578125 0.328125 -1.3125 0.328125q-1.390625 0 -2.234375 -0.953125q-0.828125 -0.96875 -0.828125 -2.53125q0 -1.578125 0.828125 -2.609375q0.84375 -1.03125 2.34375 -1.03125zm-1.984375 3.5q0 1.234375 0.515625 1.9375q0.515625 0.6875 1.4375 0.6875q0.9375 0 1.484375 -0.71875q0.5625 -0.734375 0.5625 -1.9375q0 -1.109375 -0.515625 -1.78125q-0.515625 -0.6875 -1.453125 -0.6875q-0.953125 0 -1.5 0.6875q-0.53125 0.671875 -0.53125 1.8125zm10.168884 -3.5q1.25 0 1.8125 0.640625q0.5625 0.640625 0.5625 1.8125l0 4.59375l-1.140625 0l0 -4.703125q0 -0.59375 -0.375 -0.96875q-0.375 -0.375 -1.03125 -0.375q-0.953125 0 -1.5 0.59375q-0.53125 0.578125 -0.53125 1.515625l0 3.9375l-1.125 0l0 -6.890625l1.0625 0l0 1.09375l0.03125 0q0.375 -0.640625 0.921875 -0.9375q0.546875 -0.3125 1.3125 -0.3125zm6.9437256 0q1.484375 0 2.296875 1.078125q0.828125 1.0625 0.828125 2.734375l0 0.125l-5.171875 0l0 0.09375q0 0.984375 0.578125 1.578125q0.578125 0.59375 1.578125 0.59375q0.75 0 1.1875 -0.34375q0.453125 -0.359375 0.59375 -1.0l1.125 0q-0.234375 1.140625 -1.015625 1.75q-0.765625 0.59375 -1.9375 0.59375q-1.078125 0 -1.828125 -0.484375q-0.75 -0.484375 -1.109375 -1.359375q-0.359375 -0.890625 -0.359375 -1.796875q0 -1.53125 0.90625 -2.546875q0.921875 -1.015625 2.328125 -1.015625zm-2.046875 2.9375l3.96875 0q-0.0625 -0.84375 -0.625 -1.390625q-0.546875 -0.546875 -1.375 -0.546875q-0.78125 0 -1.34375 0.53125q-0.546875 0.515625 -0.625 1.40625zm12.502411 -5.40625l0 9.515625l-1.140625 0l0 -0.9375l-0.03125 0q-0.265625 0.546875 -0.84375 0.828125q-0.578125 0.265625 -1.34375 0.265625q-1.453125 0 -2.3125 -1.0q-0.859375 -1.0 -0.859375 -2.625q0 -1.59375 0.828125 -2.578125q0.84375 -1.0 2.3125 -1.0q0.671875 0 1.28125 0.28125q0.609375 0.265625 0.9375 0.796875l0.03125 0l0 -3.546875l1.140625 0zm-5.34375 6.125q0 1.109375 0.578125 1.828125q0.578125 0.71875 1.5625 0.71875q1.0 0 1.546875 -0.71875q0.5625 -0.71875 0.5625 -1.875q0 -1.171875 -0.578125 -1.890625q-0.5625 -0.71875 -1.609375 -0.71875q-0.984375 0 -1.53125 0.71875q-0.53125 0.703125 -0.53125 1.9375zm11.962921 -6.125l0 3.5625l0.015625 0q0.265625 -0.53125 0.828125 -0.8125q0.578125 -0.28125 1.375 -0.28125q1.484375 0 2.328125 1.015625q0.84375 1.015625 0.84375 2.609375q0 1.59375 -0.84375 2.59375q-0.84375 0.984375 -2.296875 0.984375q-0.640625 0 -1.265625 -0.265625q-0.609375 -0.265625 -0.96875 -0.8125l-0.015625 0l0 0.921875l-1.140625 0l0 -9.515625l1.140625 0zm-0.046875 6.0625q0 1.203125 0.578125 1.90625q0.578125 0.703125 1.59375 0.703125q0.984375 0 1.515625 -0.703125q0.546875 -0.703125 0.546875 -1.953125q0 -1.109375 -0.578125 -1.828125q-0.5625 -0.71875 -1.5625 -0.71875q-1.0 0 -1.546875 0.734375q-0.546875 0.71875 -0.546875 1.859375zm7.3068085 -3.4375l2.0 5.640625l0.03125 0l1.9375 -5.640625l1.203125 0l-2.9375 7.625q-0.453125 1.1875 -0.890625 1.609375q-0.421875 0.421875 -1.171875 0.421875q-0.203125 0 -0.40625 -0.03125q-0.1875 -0.03125 -0.375 -0.09375l0 -1.046875q0.15625 0.0625 0.3125 0.109375q0.171875 0.046875 0.34375 0.046875q0.6875 0 0.953125 -0.6875q0.28125 -0.6875 0.453125 -1.09375l-2.734375 -6.859375l1.28125 0z" fill-rule="nonzero"/><path fill="#000000" d="m157.19652 157.65182l0 9.515625l-1.265625 0l0 -9.515625l1.265625 0zm5.464798 0q2.171875 0 3.328125 1.15625q1.171875 1.140625 1.171875 3.375q0 2.515625 -1.15625 3.75q-1.15625 1.234375 -3.34375 1.234375l-3.328125 0l0 -9.515625l3.328125 0zm0.078125 8.453125q1.4375 0 2.296875 -0.921875q0.859375 -0.9375 0.859375 -2.828125q0 -1.890625 -0.78125 -2.765625q-0.78125 -0.875 -2.328125 -0.875l-2.203125 0l0 7.390625l2.15625 0zm10.196854 -8.453125q1.3125 0 2.078125 0.71875q0.78125 0.703125 0.78125 2.09375q0 1.40625 -0.78125 2.109375q-0.765625 0.703125 -1.984375 0.703125l-3.0625 0l0 3.890625l-1.25 0l0 -9.515625l4.21875 0zm-0.34375 4.5625q0.90625 0 1.421875 -0.421875q0.515625 -0.4375 0.515625 -1.328125q0 -0.875 -0.515625 -1.3125q-0.5 -0.4375 -1.5 -0.4375l-2.546875 0l0 3.5l2.625 0z" fill-rule="nonzero"/><path fill="#000000" fill-opacity="0.0" d="m304.15082 77.27559l90.74017 0l0 32.850395l-90.74017 0z" fill-rule="evenodd"/><path fill="#000000" d="m321.19342 89.63684q1.75 0 2.765625 0.84375q1.03125 0.84375 1.09375 2.46875l-1.3125 0q-0.125 -1.0625 -0.78125 -1.59375q-0.640625 -0.546875 -1.828125 -0.546875q-1.109375 0 -1.734375 0.46875q-0.609375 0.46875 -0.609375 1.328125q0 0.609375 0.53125 1.0q0.53125 0.390625 2.84375 0.859375q1.671875 0.34375 2.5 1.0625q0.828125 0.703125 0.828125 1.953125q0 1.46875 -1.203125 2.296875q-1.1875 0.828125 -2.890625 0.828125q-1.890625 0 -3.09375 -0.953125q-1.203125 -0.953125 -1.21875 -2.734375l1.3125 0q0.015625 1.1875 0.859375 1.859375q0.84375 0.65625 2.1875 0.65625q1.265625 0 1.953125 -0.484375q0.703125 -0.5 0.703125 -1.421875q0 -0.75 -0.640625 -1.1875q-0.625 -0.453125 -2.3125 -0.78125q-2.21875 -0.421875 -2.984375 -1.09375q-0.765625 -0.671875 -0.765625 -1.765625q0 -1.40625 1.0625 -2.234375q1.078125 -0.828125 2.734375 -0.828125zm7.090271 0.25l0 1.53125l-1.234375 0l0 -1.53125l1.234375 0zm0 2.890625l0 7.578125l-1.234375 0l0 -7.578125l1.234375 0zm5.021759 -0.171875q0.796875 0 1.375 0.34375q0.578125 0.34375 0.90625 0.921875l0.015625 0l0 -1.09375l1.15625 0l0 7.015625q0 1.78125 -0.859375 2.703125q-0.859375 0.9375 -2.640625 0.9375q-1.3125 0 -2.203125 -0.578125q-0.890625 -0.5625 -0.9375 -1.640625l1.234375 0q0.03125 0.578125 0.625 0.890625q0.59375 0.328125 1.34375 0.328125q1.09375 0 1.6875 -0.734375q0.59375 -0.71875 0.59375 -2.15625l0 -0.46875l-0.03125 0q-0.296875 0.625 -0.9375 1.0q-0.625 0.359375 -1.4375 0.359375q-1.53125 0 -2.453125 -1.046875q-0.921875 -1.0625 -0.921875 -2.78125q0 -1.734375 0.921875 -2.859375q0.921875 -1.140625 2.5625 -1.140625zm-2.171875 3.84375q0 1.359375 0.5625 2.125q0.578125 0.765625 1.578125 0.765625q1.03125 0 1.640625 -0.796875q0.609375 -0.796875 0.609375 -2.125q0 -1.21875 -0.5625 -1.96875q-0.5625 -0.75 -1.59375 -0.75q-1.046875 0 -1.640625 0.75q-0.59375 0.75 -0.59375 2.0zm11.181519 -3.84375q1.359375 0 1.984375 0.703125q0.625 0.703125 0.625 2.0l0 5.046875l-1.25 0l0 -5.171875q0 -0.640625 -0.421875 -1.0625q-0.40625 -0.421875 -1.125 -0.421875q-1.0625 0 -1.65625 0.65625q-0.578125 0.640625 -0.578125 1.671875l0 4.328125l-1.25 0l0 -7.578125l1.171875 0l0 1.203125l0.03125 0q0.421875 -0.703125 1.015625 -1.03125q0.609375 -0.34375 1.453125 -0.34375zm7.635498 0q1.625 0 2.515625 1.171875q0.90625 1.171875 0.90625 3.015625l0 0.15625l-5.671875 0l0 0.078125q0 1.09375 0.625 1.75q0.640625 0.65625 1.734375 0.65625q0.828125 0 1.3125 -0.390625q0.5 -0.390625 0.65625 -1.09375l1.234375 0q-0.25 1.265625 -1.109375 1.921875q-0.84375 0.65625 -2.125 0.65625q-1.203125 0 -2.03125 -0.53125q-0.828125 -0.546875 -1.21875 -1.5q-0.390625 -0.96875 -0.390625 -1.96875q0 -1.6875 1.0 -2.796875q1.015625 -1.125 2.5625 -1.125zm-2.25 3.234375l4.359375 0q-0.0625 -0.921875 -0.671875 -1.53125q-0.609375 -0.609375 -1.53125 -0.609375q-0.859375 0 -1.46875 0.578125q-0.609375 0.578125 -0.6875 1.5625zm13.731384 -5.953125l0 10.46875l-1.234375 0l0 -1.015625l-0.03125 0q-0.296875 0.578125 -0.9375 0.890625q-0.640625 0.296875 -1.484375 0.296875q-1.59375 0 -2.546875 -1.09375q-0.9375 -1.109375 -0.9375 -2.890625q0 -1.75 0.921875 -2.84375q0.921875 -1.09375 2.53125 -1.09375q0.734375 0 1.40625 0.296875q0.671875 0.296875 1.046875 0.890625l0.03125 0l0 -3.90625l1.234375 0zm-5.859375 6.734375q0 1.234375 0.625 2.03125q0.640625 0.78125 1.71875 0.78125q1.109375 0 1.703125 -0.78125q0.609375 -0.796875 0.609375 -2.078125q0 -1.296875 -0.625 -2.078125q-0.609375 -0.796875 -1.78125 -0.796875q-1.0625 0 -1.65625 0.78125q-0.59375 0.78125 -0.59375 2.140625zm13.134796 -6.734375l0 3.921875l0.03125 0q0.296875 -0.59375 0.921875 -0.890625q0.625 -0.3125 1.5 -0.3125q1.625 0 2.5625 1.125q0.9375 1.109375 0.9375 2.859375q0 1.765625 -0.9375 2.859375q-0.921875 1.078125 -2.53125 1.078125q-0.703125 0 -1.390625 -0.28125q-0.671875 -0.296875 -1.0625 -0.90625l-0.03125 0l0 1.015625l-1.234375 0l0 -10.46875l1.234375 0zm-0.03125 6.671875q0 1.328125 0.625 2.109375q0.640625 0.765625 1.765625 0.765625q1.078125 0 1.671875 -0.765625q0.59375 -0.78125 0.59375 -2.15625q0 -1.234375 -0.625 -2.015625q-0.625 -0.796875 -1.734375 -0.796875q-1.09375 0 -1.703125 0.8125q-0.59375 0.796875 -0.59375 2.046875zm8.031586 -3.78125l2.203125 6.203125l0.03125 0l2.125 -6.203125l1.328125 0l-3.21875 8.390625q-0.515625 1.3125 -0.984375 1.765625q-0.46875 0.453125 -1.296875 0.453125q-0.234375 0 -0.453125 -0.03125q-0.203125 -0.015625 -0.40625 -0.09375l0 -1.140625q0.171875 0.046875 0.34375 0.109375q0.1875 0.0625 0.375 0.0625q0.765625 0 1.0625 -0.765625q0.296875 -0.75 0.484375 -1.21875l-3.015625 -7.53125l1.421875 0z" fill-rule="nonzero"/><path fill="#000000" d="m338.34055 107.88684l0 4.5l5.515625 0l0 -4.5l1.390625 0l0 10.46875l-1.390625 0l0 -4.796875l-5.515625 0l0 4.796875l-1.390625 0l0 -10.46875l1.390625 0zm10.240509 2.890625l0 5.171875q0 0.640625 0.40625 1.0625q0.40625 0.421875 1.140625 0.421875q1.0625 0 1.640625 -0.65625q0.59375 -0.65625 0.59375 -1.671875l0 -4.328125l1.25 0l0 7.578125l-1.171875 0l0 -1.203125l-0.03125 0q-0.421875 0.71875 -1.046875 1.046875q-0.625 0.328125 -1.421875 0.328125q-1.328125 0 -1.96875 -0.671875q-0.640625 -0.6875 -0.640625 -2.03125l0 -5.046875l1.25 0zm8.182373 -2.890625l0 3.921875l0.03125 0q0.296875 -0.59375 0.921875 -0.890625q0.625 -0.3125 1.5 -0.3125q1.625 0 2.5625 1.125q0.9375 1.109375 0.9375 2.859375q0 1.765625 -0.9375 2.859375q-0.921875 1.078125 -2.53125 1.078125q-0.703125 0 -1.390625 -0.28125q-0.671875 -0.296875 -1.0625 -0.90625l-0.03125 0l0 1.015625l-1.234375 0l0 -10.46875l1.234375 0zm-0.03125 6.671875q0 1.328125 0.625 2.109375q0.640625 0.765625 1.765625 0.765625q1.078125 0 1.671875 -0.765625q0.59375 -0.78125 0.59375 -2.15625q0 -1.234375 -0.625 -2.015625q-0.625 -0.796875 -1.734375 -0.796875q-1.09375 0 -1.703125 0.8125q-0.59375 0.796875 -0.59375 2.046875z" fill-rule="nonzero"/><path fill="#000000" fill-opacity="0.0" d="m223.77419 128.74976l84.50395 0l0 47.181107l-84.50395 0z" fill-rule="evenodd"/><path fill="#000000" d="m233.82106 150.54976l0 -9.546875l6.90625 0l0 1.125l-5.640625 0l0 2.921875l5.28125 0l0 1.125l-5.28125 0l0 3.25l5.859375 0l0 1.125l-7.125 0zm8.71788 0l0 -6.90625l1.0625 0l0 0.984375q0.75 -1.140625 2.1875 -1.140625q0.625 0 1.15625 0.21875q0.53125 0.21875 0.78125 0.59375q0.265625 0.359375 0.375 0.859375q0.0625 0.328125 0.0625 1.140625l0 4.25l-1.171875 0l0 -4.203125q0 -0.71875 -0.140625 -1.0625q-0.140625 -0.359375 -0.484375 -0.5625q-0.34375 -0.21875 -0.8125 -0.21875q-0.75 0 -1.296875 0.46875q-0.546875 0.46875 -0.546875 1.796875l0 3.78125l-1.171875 0zm11.928101 -2.53125l1.15625 0.15625q-0.1875 1.1875 -0.96875 1.859375q-0.78125 0.671875 -1.921875 0.671875q-1.40625 0 -2.28125 -0.921875q-0.859375 -0.9375 -0.859375 -2.65625q0 -1.125 0.375 -1.96875q0.375 -0.84375 1.125 -1.25q0.765625 -0.421875 1.65625 -0.421875q1.125 0 1.84375 0.578125q0.71875 0.5625 0.921875 1.609375l-1.140625 0.171875q-0.171875 -0.703125 -0.59375 -1.046875q-0.40625 -0.359375 -0.984375 -0.359375q-0.890625 0 -1.453125 0.640625q-0.546875 0.640625 -0.546875 2.0q0 1.40625 0.53125 2.03125q0.546875 0.625 1.40625 0.625q0.6875 0 1.140625 -0.421875q0.46875 -0.421875 0.59375 -1.296875zm2.1328125 2.53125l0 -6.90625l1.0625 0l0 1.046875q0.40625 -0.734375 0.734375 -0.96875q0.34375 -0.234375 0.765625 -0.234375q0.59375 0 1.203125 0.375l-0.40625 1.078125q-0.4375 -0.25 -0.859375 -0.25q-0.390625 0 -0.703125 0.234375q-0.296875 0.234375 -0.421875 0.640625q-0.203125 0.625 -0.203125 1.359375l0 3.625l-1.171875 0zm4.407135 2.65625l-0.125 -1.09375q0.375 0.109375 0.65625 0.109375q0.390625 0 0.625 -0.140625q0.234375 -0.125 0.390625 -0.359375q0.109375 -0.171875 0.359375 -0.875q0.03125 -0.09375 0.109375 -0.28125l-2.625 -6.921875l1.265625 0l1.4375 4.0q0.28125 0.765625 0.5 1.59375q0.203125 -0.796875 0.46875 -1.578125l1.484375 -4.015625l1.171875 0l-2.625 7.015625q-0.421875 1.140625 -0.65625 1.578125q-0.3125 0.578125 -0.71875 0.84375q-0.40625 0.28125 -0.96875 0.28125q-0.328125 0 -0.75 -0.15625zm6.7109375 0l0 -9.5625l1.078125 0l0 0.890625q0.375 -0.53125 0.84375 -0.78125q0.484375 -0.265625 1.15625 -0.265625q0.875 0 1.546875 0.453125q0.6875 0.453125 1.03125 1.28125q0.34375 0.828125 0.34375 1.828125q0 1.046875 -0.375 1.90625q-0.375 0.84375 -1.109375 1.296875q-0.71875 0.453125 -1.53125 0.453125q-0.578125 0 -1.046875 -0.25q-0.46875 -0.25 -0.765625 -0.625l0 3.375l-1.171875 0zm1.0625 -6.078125q0 1.34375 0.53125 1.984375q0.546875 0.625 1.3125 0.625q0.78125 0 1.34375 -0.65625q0.5625 -0.65625 0.5625 -2.046875q0 -1.3125 -0.546875 -1.96875q-0.546875 -0.671875 -1.296875 -0.671875q-0.75 0 -1.328125 0.703125q-0.578125 0.703125 -0.578125 2.03125zm8.912476 2.375l0.171875 1.03125q-0.5 0.109375 -0.890625 0.109375q-0.640625 0 -1.0 -0.203125q-0.34375 -0.203125 -0.484375 -0.53125q-0.140625 -0.328125 -0.140625 -1.390625l0 -3.96875l-0.859375 0l0 -0.90625l0.859375 0l0 -1.71875l1.171875 -0.703125l0 2.421875l1.171875 0l0 0.90625l-1.171875 0l0 4.046875q0 0.5 0.046875 0.640625q0.0625 0.140625 0.203125 0.234375q0.140625 0.078125 0.40625 0.078125q0.203125 0 0.515625 -0.046875zm5.8748474 -1.171875l1.203125 0.140625q-0.28125 1.0625 -1.0625 1.65625q-0.765625 0.578125 -1.96875 0.578125q-1.515625 0 -2.40625 -0.9375q-0.890625 -0.9375 -0.890625 -2.609375q0 -1.75 0.890625 -2.703125q0.90625 -0.96875 2.34375 -0.96875q1.390625 0 2.265625 0.9375q0.875 0.9375 0.875 2.65625q0 0.109375 0 0.3125l-5.15625 0q0.0625 1.140625 0.640625 1.75q0.578125 0.59375 1.4375 0.59375q0.65625 0 1.109375 -0.328125q0.453125 -0.34375 0.71875 -1.078125zm-3.84375 -1.90625l3.859375 0q-0.078125 -0.859375 -0.4375 -1.296875q-0.5625 -0.6875 -1.453125 -0.6875q-0.8125 0 -1.359375 0.546875q-0.546875 0.53125 -0.609375 1.4375zm11.006226 4.125l0 -0.875q-0.65625 1.03125 -1.9375 1.03125q-0.8125 0 -1.515625 -0.453125q-0.6875 -0.453125 -1.078125 -1.265625q-0.375 -0.828125 -0.375 -1.890625q0 -1.03125 0.34375 -1.875q0.34375 -0.84375 1.03125 -1.28125q0.703125 -0.453125 1.546875 -0.453125q0.625 0 1.109375 0.265625q0.5 0.25 0.796875 0.671875l0 -3.421875l1.171875 0l0 9.546875l-1.09375 0zm-3.703125 -3.453125q0 1.328125 0.5625 1.984375q0.5625 0.65625 1.328125 0.65625q0.765625 0 1.296875 -0.625q0.53125 -0.625 0.53125 -1.90625q0 -1.421875 -0.546875 -2.078125q-0.546875 -0.671875 -1.34375 -0.671875q-0.78125 0 -1.3125 0.640625q-0.515625 0.625 -0.515625 2.0z" fill-rule="nonzero"/><path fill="#000000" d="m233.93044 166.54976l0 -6.0l-1.03125 0l0 -0.90625l1.03125 0l0 -0.734375q0 -0.703125 0.125 -1.046875q0.171875 -0.453125 0.59375 -0.734375q0.421875 -0.28125 1.203125 -0.28125q0.484375 0 1.09375 0.109375l-0.1875 1.03125q-0.359375 -0.0625 -0.6875 -0.0625q-0.53125 0 -0.75 0.234375q-0.21875 0.21875 -0.21875 0.84375l0 0.640625l1.34375 0l0 0.90625l-1.34375 0l0 6.0l-1.171875 0zm2.9842377 -3.453125q0 -1.921875 1.078125 -2.84375q0.890625 -0.765625 2.171875 -0.765625q1.421875 0 2.328125 0.9375q0.90625 0.921875 0.90625 2.578125q0 1.328125 -0.40625 2.09375q-0.390625 0.765625 -1.15625 1.1875q-0.765625 0.421875 -1.671875 0.421875q-1.453125 0 -2.359375 -0.921875q-0.890625 -0.9375 -0.890625 -2.6875zm1.203125 0q0 1.328125 0.578125 1.984375q0.59375 0.65625 1.46875 0.65625q0.875 0 1.453125 -0.65625q0.578125 -0.671875 0.578125 -2.03125q0 -1.28125 -0.59375 -1.9375q-0.578125 -0.65625 -1.4375 -0.65625q-0.875 0 -1.46875 0.65625q-0.578125 0.65625 -0.578125 1.984375zm6.6312256 3.453125l0 -6.90625l1.0625 0l0 1.046875q0.40625 -0.734375 0.734375 -0.96875q0.34375 -0.234375 0.765625 -0.234375q0.59375 0 1.203125 0.375l-0.40625 1.078125q-0.4375 -0.25 -0.859375 -0.25q-0.390625 0 -0.703125 0.234375q-0.296875 0.234375 -0.421875 0.640625q-0.203125 0.625 -0.203125 1.359375l0 3.625l-1.171875 0zm7.8757324 -3.0625l1.203125 -0.109375q0.078125 0.71875 0.390625 1.1875q0.3125 0.453125 0.953125 0.734375q0.65625 0.28125 1.46875 0.28125q0.71875 0 1.265625 -0.21875q0.5625 -0.21875 0.828125 -0.578125q0.265625 -0.375 0.265625 -0.828125q0 -0.453125 -0.265625 -0.78125q-0.25 -0.328125 -0.84375 -0.5625q-0.390625 -0.15625 -1.703125 -0.46875q-1.3125 -0.3125 -1.84375 -0.59375q-0.671875 -0.359375 -1.015625 -0.890625q-0.328125 -0.53125 -0.328125 -1.1875q0 -0.71875 0.40625 -1.34375q0.40625 -0.625 1.1875 -0.953125q0.796875 -0.328125 1.765625 -0.328125q1.046875 0 1.859375 0.34375q0.8125 0.34375 1.25 1.015625q0.4375 0.65625 0.46875 1.484375l-1.203125 0.09375q-0.109375 -0.90625 -0.671875 -1.359375q-0.5625 -0.46875 -1.65625 -0.46875q-1.140625 0 -1.671875 0.421875q-0.515625 0.421875 -0.515625 1.015625q0 0.515625 0.359375 0.84375q0.375 0.328125 1.90625 0.6875q1.546875 0.34375 2.109375 0.59375q0.84375 0.390625 1.234375 0.984375q0.390625 0.578125 0.390625 1.359375q0 0.75 -0.4375 1.4375q-0.421875 0.671875 -1.25 1.046875q-0.8125 0.359375 -1.828125 0.359375q-1.296875 0 -2.171875 -0.375q-0.875 -0.375 -1.375 -1.125q-0.5 -0.765625 -0.53125 -1.71875zm13.9053955 0.84375l1.203125 0.140625q-0.28125 1.0625 -1.0625 1.65625q-0.765625 0.578125 -1.96875 0.578125q-1.515625 0 -2.40625 -0.9375q-0.890625 -0.9375 -0.890625 -2.609375q0 -1.75 0.890625 -2.703125q0.90625 -0.96875 2.34375 -0.96875q1.390625 0 2.265625 0.9375q0.875 0.9375 0.875 2.65625q0 0.109375 0 0.3125l-5.15625 0q0.0625 1.140625 0.640625 1.75q0.578125 0.59375 1.4375 0.59375q0.65625 0 1.109375 -0.328125q0.453125 -0.34375 0.71875 -1.078125zm-3.84375 -1.90625l3.859375 0q-0.078125 -0.859375 -0.4375 -1.296875q-0.5625 -0.6875 -1.453125 -0.6875q-0.8125 0 -1.359375 0.546875q-0.546875 0.53125 -0.609375 1.4375zm6.5062256 4.125l0 -6.90625l1.0625 0l0 1.046875q0.40625 -0.734375 0.734375 -0.96875q0.34375 -0.234375 0.765625 -0.234375q0.59375 0 1.203125 0.375l-0.40625 1.078125q-0.4375 -0.25 -0.859375 -0.25q-0.390625 0 -0.703125 0.234375q-0.296875 0.234375 -0.421875 0.640625q-0.203125 0.625 -0.203125 1.359375l0 3.625l-1.171875 0zm6.3758545 0l-2.625 -6.90625l1.234375 0l1.484375 4.140625q0.234375 0.65625 0.4375 1.390625q0.15625 -0.546875 0.4375 -1.3125l1.53125 -4.21875l1.21875 0l-2.625 6.90625l-1.09375 0zm4.7578125 -8.1875l0 -1.359375l1.171875 0l0 1.359375l-1.171875 0zm0 8.1875l0 -6.90625l1.171875 0l0 6.90625l-1.171875 0zm7.46109 -2.53125l1.15625 0.15625q-0.1875 1.1875 -0.96875 1.859375q-0.78125 0.671875 -1.921875 0.671875q-1.40625 0 -2.28125 -0.921875q-0.859375 -0.9375 -0.859375 -2.65625q0 -1.125 0.375 -1.96875q0.375 -0.84375 1.125 -1.25q0.765625 -0.421875 1.65625 -0.421875q1.125 0 1.84375 0.578125q0.71875 0.5625 0.921875 1.609375l-1.140625 0.171875q-0.171875 -0.703125 -0.59375 -1.046875q-0.40625 -0.359375 -0.984375 -0.359375q-0.890625 0 -1.453125 0.640625q-0.546875 0.640625 -0.546875 2.0q0 1.40625 0.53125 2.03125q0.546875 0.625 1.40625 0.625q0.6875 0 1.140625 -0.421875q0.46875 -0.421875 0.59375 -1.296875zm6.8828125 0.3125l1.203125 0.140625q-0.28125 1.0625 -1.0625 1.65625q-0.765625 0.578125 -1.96875 0.578125q-1.515625 0 -2.40625 -0.9375q-0.890625 -0.9375 -0.890625 -2.609375q0 -1.75 0.890625 -2.703125q0.90625 -0.96875 2.34375 -0.96875q1.390625 0 2.265625 0.9375q0.875 0.9375 0.875 2.65625q0 0.109375 0 0.3125l-5.15625 0q0.0625 1.140625 0.640625 1.75q0.578125 0.59375 1.4375 0.59375q0.65625 0 1.109375 -0.328125q0.453125 -0.34375 0.71875 -1.078125zm-3.84375 -1.90625l3.859375 0q-0.078125 -0.859375 -0.4375 -1.296875q-0.5625 -0.6875 -1.453125 -0.6875q-0.8125 0 -1.359375 0.546875q-0.546875 0.53125 -0.609375 1.4375z" fill-rule="nonzero"/><path fill="#ffffff" d="m145.65685 62.145515l78.29921 0l0 47.1811l-78.29921 0z" fill-rule="evenodd"/><path stroke="#000000" stroke-width="2.0" stroke-linejoin="round" stroke-linecap="butt" d="m145.65685 62.145515l78.29921 0l0 47.1811l-78.29921 0z" fill-rule="evenodd"/><path fill="#000000" d="m158.89122 72.786064q1.59375 0 2.515625 0.78125q0.9375 0.765625 1.0 2.234375l-1.203125 0q-0.109375 -0.96875 -0.703125 -1.453125q-0.59375 -0.484375 -1.65625 -0.484375q-1.015625 0 -1.578125 0.421875q-0.5625 0.421875 -0.5625 1.203125q0 0.546875 0.46875 0.90625q0.484375 0.359375 2.59375 0.78125q1.515625 0.3125 2.265625 0.96875q0.765625 0.640625 0.765625 1.78125q0 1.328125 -1.09375 2.09375q-1.078125 0.75 -2.625 0.75q-1.734375 0 -2.828125 -0.859375q-1.09375 -0.875 -1.09375 -2.5l1.1875 0q0.015625 1.078125 0.78125 1.6875q0.765625 0.59375 2.0 0.59375q1.140625 0 1.765625 -0.4375q0.640625 -0.453125 0.640625 -1.296875q0 -0.671875 -0.578125 -1.078125q-0.578125 -0.40625 -2.09375 -0.703125q-2.03125 -0.390625 -2.734375 -1.0q-0.6875 -0.609375 -0.6875 -1.59375q0 -1.28125 0.96875 -2.03125q0.984375 -0.765625 2.484375 -0.765625zm6.448456 0.234375l0 1.390625l-1.125 0l0 -1.390625l1.125 0zm0 2.625l0 6.890625l-1.125 0l0 -6.890625l1.125 0zm4.570465 -0.15625q0.71875 0 1.25 0.3125q0.53125 0.3125 0.8125 0.828125l0.015625 0l0 -0.984375l1.0625 0l0 6.375q0 1.625 -0.78125 2.46875q-0.78125 0.84375 -2.40625 0.84375q-1.1875 0 -2.0 -0.53125q-0.8125 -0.515625 -0.859375 -1.484375l1.125 0q0.03125 0.515625 0.5625 0.8125q0.546875 0.296875 1.21875 0.296875q1.015625 0 1.546875 -0.671875q0.53125 -0.65625 0.53125 -1.953125l0 -0.4375l-0.03125 0q-0.265625 0.578125 -0.84375 0.921875q-0.578125 0.328125 -1.3125 0.328125q-1.390625 0 -2.234375 -0.953125q-0.828125 -0.96875 -0.828125 -2.53125q0 -1.578125 0.828125 -2.609375q0.84375 -1.03125 2.34375 -1.03125zm-1.984375 3.5q0 1.234375 0.515625 1.9375q0.515625 0.6875 1.4375 0.6875q0.9375 0 1.484375 -0.71875q0.5625 -0.734375 0.5625 -1.9375q0 -1.109375 -0.515625 -1.78125q-0.515625 -0.6875 -1.453125 -0.6875q-0.953125 0 -1.5 0.6875q-0.53125 0.671875 -0.53125 1.8125zm10.168884 -3.5q1.25 0 1.8125 0.640625q0.5625 0.640625 0.5625 1.8125l0 4.59375l-1.140625 0l0 -4.703125q0 -0.59375 -0.375 -0.96875q-0.375 -0.375 -1.03125 -0.375q-0.953125 0 -1.5 0.59375q-0.53125 0.578125 -0.53125 1.515625l0 3.9375l-1.125 0l0 -6.890625l1.0625 0l0 1.09375l0.03125 0q0.375 -0.640625 0.921875 -0.9375q0.546875 -0.3125 1.3125 -0.3125zm6.9437256 0q1.484375 0 2.296875 1.078125q0.828125 1.0625 0.828125 2.734375l0 0.125l-5.171875 0l0 0.09375q0 0.984375 0.578125 1.578125q0.578125 0.59375 1.578125 0.59375q0.75 0 1.1875 -0.34375q0.453125 -0.359375 0.59375 -1.0l1.125 0q-0.234375 1.140625 -1.015625 1.75q-0.765625 0.59375 -1.9375 0.59375q-1.078125 0 -1.828125 -0.484375q-0.75 -0.484375 -1.109375 -1.359375q-0.359375 -0.890625 -0.359375 -1.796875q0 -1.53125 0.90625 -2.546875q0.921875 -1.015625 2.328125 -1.015625zm-2.046875 2.9375l3.96875 0q-0.0625 -0.84375 -0.625 -1.390625q-0.546875 -0.546875 -1.375 -0.546875q-0.78125 0 -1.34375 0.53125q-0.546875 0.515625 -0.625 1.40625zm12.502411 -5.40625l0 9.515625l-1.140625 0l0 -0.9375l-0.03125 0q-0.265625 0.546875 -0.84375 0.828125q-0.578125 0.265625 -1.34375 0.265625q-1.453125 0 -2.3125 -1.0q-0.859375 -1.0 -0.859375 -2.625q0 -1.59375 0.828125 -2.578125q0.84375 -1.0 2.3125 -1.0q0.671875 0 1.28125 0.28125q0.609375 0.265625 0.9375 0.796875l0.03125 0l0 -3.546875l1.140625 0zm-5.34375 6.125q0 1.109375 0.578125 1.828125q0.578125 0.71875 1.5625 0.71875q1.0 0 1.546875 -0.71875q0.5625 -0.71875 0.5625 -1.875q0 -1.171875 -0.578125 -1.890625q-0.5625 -0.71875 -1.609375 -0.71875q-0.984375 0 -1.53125 0.71875q-0.53125 0.703125 -0.53125 1.9375zm11.962921 -6.125l0 3.5625l0.015625 0q0.265625 -0.53125 0.828125 -0.8125q0.578125 -0.28125 1.375 -0.28125q1.484375 0 2.328125 1.015625q0.84375 1.015625 0.84375 2.609375q0 1.59375 -0.84375 2.59375q-0.84375 0.984375 -2.296875 0.984375q-0.640625 0 -1.265625 -0.265625q-0.609375 -0.265625 -0.96875 -0.8125l-0.015625 0l0 0.921875l-1.140625 0l0 -9.515625l1.140625 0zm-0.046875 6.0625q0 1.203125 0.578125 1.90625q0.578125 0.703125 1.59375 0.703125q0.984375 0 1.515625 -0.703125q0.546875 -0.703125 0.546875 -1.953125q0 -1.109375 -0.578125 -1.828125q-0.5625 -0.71875 -1.5625 -0.71875q-1.0 0 -1.546875 0.734375q-0.546875 0.71875 -0.546875 1.859375zm7.3068085 -3.4375l2.0 5.640625l0.03125 0l1.9375 -5.640625l1.203125 0l-2.9375 7.625q-0.453125 1.1875 -0.890625 1.609375q-0.421875 0.421875 -1.171875 0.421875q-0.203125 0 -0.40625 -0.03125q-0.1875 -0.03125 -0.375 -0.09375l0 -1.046875q0.15625 0.0625 0.3125 0.109375q0.171875 0.046875 0.34375 0.046875q0.6875 0 0.953125 -0.6875q0.28125 -0.6875 0.453125 -1.09375l-2.734375 -6.859375l1.28125 0z" fill-rule="nonzero"/><path fill="#000000" d="m157.01622 89.02044l0 9.515625l-1.265625 0l0 -9.515625l1.265625 0zm5.464798 0q2.171875 0 3.328125 1.15625q1.171875 1.140625 1.171875 3.375q0 2.515625 -1.15625 3.75q-1.15625 1.234375 -3.34375 1.234375l-3.328125 0l0 -9.515625l3.328125 0zm0.078125 8.453125q1.4375 0 2.296875 -0.921875q0.859375 -0.9375 0.859375 -2.828125q0 -1.890625 -0.78125 -2.765625q-0.78125 -0.875 -2.328125 -0.875l-2.203125 0l0 7.390625l2.15625 0zm10.196854 -8.453125q1.3125 0 2.078125 0.71875q0.78125 0.703125 0.78125 2.09375q0 1.40625 -0.78125 2.109375q-0.765625 0.703125 -1.984375 0.703125l-3.0625 0l0 3.890625l-1.25 0l0 -9.515625l4.21875 0zm-0.34375 4.5625q0.90625 0 1.421875 -0.421875q0.515625 -0.4375 0.515625 -1.328125q0 -0.875 -0.515625 -1.3125q-0.5 -0.4375 -1.5 -0.4375l-2.546875 0l0 3.5l2.625 0z" fill-rule="nonzero"/><path fill="#000000" fill-opacity="0.0" d="m223.95413 60.24288l84.50394 0l0 47.1811l-84.50394 0z" fill-rule="evenodd"/><path fill="#000000" d="m234.001 82.04288l0 -9.546875l6.90625 0l0 1.125l-5.640625 0l0 2.921875l5.28125 0l0 1.125l-5.28125 0l0 3.25l5.859375 0l0 1.125l-7.125 0zm8.71788 0l0 -6.90625l1.0625 0l0 0.984375q0.75 -1.140625 2.1875 -1.140625q0.625 0 1.15625 0.21875q0.53125 0.21875 0.78125 0.59375q0.265625 0.359375 0.375 0.859375q0.0625 0.328125 0.0625 1.140625l0 4.25l-1.171875 0l0 -4.203125q0 -0.71875 -0.140625 -1.0625q-0.140625 -0.359375 -0.484375 -0.5625q-0.34375 -0.21875 -0.8125 -0.21875q-0.75 0 -1.296875 0.46875q-0.546875 0.46875 -0.546875 1.796875l0 3.78125l-1.171875 0zm11.928101 -2.53125l1.15625 0.15625q-0.1875 1.1875 -0.96875 1.859375q-0.78125 0.671875 -1.921875 0.671875q-1.40625 0 -2.28125 -0.921875q-0.859375 -0.9375 -0.859375 -2.65625q0 -1.125 0.375 -1.96875q0.375 -0.84375 1.125 -1.25q0.765625 -0.421875 1.65625 -0.421875q1.125 0 1.84375 0.578125q0.71875 0.5625 0.921875 1.609375l-1.140625 0.171875q-0.171875 -0.703125 -0.59375 -1.046875q-0.40625 -0.359375 -0.984375 -0.359375q-0.890625 0 -1.453125 0.640625q-0.546875 0.640625 -0.546875 2.0q0 1.40625 0.53125 2.03125q0.546875 0.625 1.40625 0.625q0.6875 0 1.140625 -0.421875q0.46875 -0.421875 0.59375 -1.296875zm2.1327972 2.53125l0 -6.90625l1.0625 0l0 1.046875q0.40625 -0.734375 0.734375 -0.96875q0.34375 -0.234375 0.765625 -0.234375q0.59375 0 1.203125 0.375l-0.40625 1.078125q-0.4375 -0.25 -0.859375 -0.25q-0.390625 0 -0.703125 0.234375q-0.296875 0.234375 -0.421875 0.640625q-0.203125 0.625 -0.203125 1.359375l0 3.625l-1.171875 0zm4.407135 2.65625l-0.125 -1.09375q0.375 0.109375 0.65625 0.109375q0.390625 0 0.625 -0.140625q0.234375 -0.125 0.390625 -0.359375q0.109375 -0.171875 0.359375 -0.875q0.03125 -0.09375 0.109375 -0.28125l-2.625 -6.921875l1.265625 0l1.4375 4.0q0.28125 0.765625 0.5 1.59375q0.203125 -0.796875 0.46875 -1.578125l1.484375 -4.015625l1.171875 0l-2.625 7.015625q-0.421875 1.140625 -0.65625 1.578125q-0.3125 0.578125 -0.71875 0.84375q-0.40625 0.28125 -0.96875 0.28125q-0.328125 0 -0.75 -0.15625zm6.7109375 0l0 -9.5625l1.078125 0l0 0.890625q0.375 -0.53125 0.84375 -0.78125q0.484375 -0.265625 1.15625 -0.265625q0.875 0 1.546875 0.453125q0.6875 0.453125 1.03125 1.28125q0.34375 0.828125 0.34375 1.828125q0 1.046875 -0.375 1.90625q-0.375 0.84375 -1.109375 1.296875q-0.71875 0.453125 -1.53125 0.453125q-0.578125 0 -1.046875 -0.25q-0.46875 -0.25 -0.765625 -0.625l0 3.375l-1.171875 0zm1.0625 -6.078125q0 1.34375 0.53125 1.984375q0.546875 0.625 1.3125 0.625q0.78125 0 1.34375 -0.65625q0.5625 -0.65625 0.5625 -2.046875q0 -1.3125 -0.546875 -1.96875q-0.546875 -0.671875 -1.296875 -0.671875q-0.75 0 -1.328125 0.703125q-0.578125 0.703125 -0.578125 2.03125zm8.912476 2.375l0.171875 1.03125q-0.5 0.109375 -0.890625 0.109375q-0.640625 0 -1.0 -0.203125q-0.34375 -0.203125 -0.484375 -0.53125q-0.140625 -0.328125 -0.140625 -1.390625l0 -3.96875l-0.859375 0l0 -0.90625l0.859375 0l0 -1.71875l1.171875 -0.703125l0 2.421875l1.171875 0l0 0.90625l-1.171875 0l0 4.046875q0 0.5 0.046875 0.640625q0.0625 0.140625 0.203125 0.234375q0.140625 0.078125 0.40625 0.078125q0.203125 0 0.515625 -0.046875zm5.8748474 -1.171875l1.203125 0.140625q-0.28125 1.0625 -1.0625 1.65625q-0.765625 0.578125 -1.96875 0.578125q-1.515625 0 -2.40625 -0.9375q-0.890625 -0.9375 -0.890625 -2.609375q0 -1.75 0.890625 -2.703125q0.90625 -0.96875 2.34375 -0.96875q1.390625 0 2.265625 0.9375q0.875 0.9375 0.875 2.65625q0 0.109375 0 0.3125l-5.15625 0q0.0625 1.140625 0.640625 1.75q0.578125 0.59375 1.4375 0.59375q0.65625 0 1.109375 -0.328125q0.453125 -0.34375 0.71875 -1.078125zm-3.84375 -1.90625l3.859375 0q-0.078125 -0.859375 -0.4375 -1.296875q-0.5625 -0.6875 -1.453125 -0.6875q-0.8125 0 -1.359375 0.546875q-0.546875 0.53125 -0.609375 1.4375zm11.006226 4.125l0 -0.875q-0.65625 1.03125 -1.9375 1.03125q-0.8125 0 -1.515625 -0.453125q-0.6875 -0.453125 -1.078125 -1.265625q-0.375 -0.828125 -0.375 -1.890625q0 -1.03125 0.34375 -1.875q0.34375 -0.84375 1.03125 -1.28125q0.703125 -0.453125 1.546875 -0.453125q0.625 0 1.109375 0.265625q0.5 0.25 0.796875 0.671875l0 -3.421875l1.171875 0l0 9.546875l-1.09375 0zm-3.703125 -3.453125q0 1.328125 0.5625 1.984375q0.5625 0.65625 1.328125 0.65625q0.765625 0 1.296875 -0.625q0.53125 -0.625 0.53125 -1.90625q0 -1.421875 -0.546875 -2.078125q-0.546875 -0.671875 -1.34375 -0.671875q-0.78125 0 -1.3125 0.640625q-0.515625 0.625 -0.515625 2.0z" fill-rule="nonzero"/><path fill="#000000" d="m234.11038 98.04288l0 -6.0l-1.03125 0l0 -0.90625l1.03125 0l0 -0.734375q0 -0.703125 0.125 -1.046875q0.171875 -0.453125 0.59375 -0.734375q0.421875 -0.28125 1.203125 -0.28125q0.484375 0 1.09375 0.109375l-0.1875 1.03125q-0.359375 -0.0625 -0.6875 -0.0625q-0.53125 0 -0.75 0.234375q-0.21875 0.21875 -0.21875 0.84375l0 0.640625l1.34375 0l0 0.90625l-1.34375 0l0 6.0l-1.171875 0zm2.9842377 -3.453125q0 -1.921875 1.078125 -2.84375q0.890625 -0.765625 2.171875 -0.765625q1.421875 0 2.328125 0.9375q0.90625 0.921875 0.90625 2.578125q0 1.328125 -0.40625 2.09375q-0.390625 0.765625 -1.15625 1.1875q-0.765625 0.421875 -1.671875 0.421875q-1.453125 0 -2.359375 -0.921875q-0.890625 -0.9375 -0.890625 -2.6875zm1.203125 0q0 1.328125 0.578125 1.984375q0.59375 0.65625 1.46875 0.65625q0.875 0 1.453125 -0.65625q0.578125 -0.671875 0.578125 -2.03125q0 -1.28125 -0.59375 -1.9375q-0.578125 -0.65625 -1.4375 -0.65625q-0.875 0 -1.46875 0.65625q-0.578125 0.65625 -0.578125 1.984375zm6.6312256 3.453125l0 -6.90625l1.0625 0l0 1.046875q0.40625 -0.734375 0.734375 -0.96875q0.34375 -0.234375 0.765625 -0.234375q0.59375 0 1.203125 0.375l-0.40625 1.078125q-0.4375 -0.25 -0.859375 -0.25q-0.390625 0 -0.703125 0.234375q-0.296875 0.234375 -0.421875 0.640625q-0.203125 0.625 -0.203125 1.359375l0 3.625l-1.171875 0zm7.8757324 -3.0625l1.203125 -0.109375q0.078125 0.71875 0.390625 1.1875q0.3125 0.453125 0.953125 0.734375q0.65623474 0.28125 1.4687347 0.28125q0.71875 0 1.265625 -0.21875q0.5625 -0.21875 0.828125 -0.578125q0.265625 -0.375 0.265625 -0.828125q0 -0.453125 -0.265625 -0.78125q-0.25 -0.328125 -0.84375 -0.5625q-0.390625 -0.15625 -1.703125 -0.46875q-1.3124847 -0.3125 -1.8437347 -0.59375q-0.671875 -0.359375 -1.015625 -0.890625q-0.328125 -0.53125 -0.328125 -1.1875q0 -0.71875 0.40625 -1.34375q0.40625 -0.625 1.1875 -0.953125q0.796875 -0.328125 1.7656097 -0.328125q1.046875 0 1.859375 0.34375q0.8125 0.34375 1.25 1.015625q0.4375 0.65625 0.46875 1.484375l-1.203125 0.09375q-0.109375 -0.90625 -0.671875 -1.359375q-0.5625 -0.46875 -1.65625 -0.46875q-1.1406097 0 -1.6718597 0.421875q-0.515625 0.421875 -0.515625 1.015625q0 0.515625 0.359375 0.84375q0.375 0.328125 1.9062347 0.6875q1.546875 0.34375 2.109375 0.59375q0.84375 0.390625 1.234375 0.984375q0.390625 0.578125 0.390625 1.359375q0 0.75 -0.4375 1.4375q-0.421875 0.671875 -1.25 1.046875q-0.8125 0.359375 -1.828125 0.359375q-1.2968597 0 -2.1718597 -0.375q-0.875 -0.375 -1.375 -1.125q-0.5 -0.765625 -0.53125 -1.71875zm13.90538 0.84375l1.203125 0.140625q-0.28125 1.0625 -1.0625 1.65625q-0.765625 0.578125 -1.96875 0.578125q-1.515625 0 -2.40625 -0.9375q-0.890625 -0.9375 -0.890625 -2.609375q0 -1.75 0.890625 -2.703125q0.90625 -0.96875 2.34375 -0.96875q1.390625 0 2.265625 0.9375q0.875 0.9375 0.875 2.65625q0 0.109375 0 0.3125l-5.15625 0q0.0625 1.140625 0.640625 1.75q0.578125 0.59375 1.4375 0.59375q0.65625 0 1.109375 -0.328125q0.453125 -0.34375 0.71875 -1.078125zm-3.84375 -1.90625l3.859375 0q-0.078125 -0.859375 -0.4375 -1.296875q-0.5625 -0.6875 -1.453125 -0.6875q-0.8125 0 -1.359375 0.546875q-0.546875 0.53125 -0.609375 1.4375zm6.5062256 4.125l0 -6.90625l1.0625 0l0 1.046875q0.40625 -0.734375 0.734375 -0.96875q0.34375 -0.234375 0.765625 -0.234375q0.59375 0 1.203125 0.375l-0.40625 1.078125q-0.4375 -0.25 -0.859375 -0.25q-0.390625 0 -0.703125 0.234375q-0.296875 0.234375 -0.421875 0.640625q-0.203125 0.625 -0.203125 1.359375l0 3.625l-1.171875 0zm6.3758545 0l-2.625 -6.90625l1.234375 0l1.484375 4.140625q0.234375 0.65625 0.4375 1.390625q0.15625 -0.546875 0.4375 -1.3125l1.53125 -4.21875l1.21875 0l-2.625 6.90625l-1.09375 0zm4.7578125 -8.1875l0 -1.359375l1.171875 0l0 1.359375l-1.171875 0zm0 8.1875l0 -6.90625l1.171875 0l0 6.90625l-1.171875 0zm7.46109 -2.53125l1.15625 0.15625q-0.1875 1.1875 -0.96875 1.859375q-0.78125 0.671875 -1.921875 0.671875q-1.40625 0 -2.28125 -0.921875q-0.859375 -0.9375 -0.859375 -2.65625q0 -1.125 0.375 -1.96875q0.375 -0.84375 1.125 -1.25q0.765625 -0.421875 1.65625 -0.421875q1.125 0 1.84375 0.578125q0.71875 0.5625 0.921875 1.609375l-1.140625 0.171875q-0.171875 -0.703125 -0.59375 -1.046875q-0.40625 -0.359375 -0.984375 -0.359375q-0.890625 0 -1.453125 0.640625q-0.546875 0.640625 -0.546875 2.0q0 1.40625 0.53125 2.03125q0.546875 0.625 1.40625 0.625q0.6875 0 1.140625 -0.421875q0.46875 -0.421875 0.59375 -1.296875zm6.8828125 0.3125l1.203125 0.140625q-0.28125 1.0625 -1.0625 1.65625q-0.765625 0.578125 -1.96875 0.578125q-1.515625 0 -2.40625 -0.9375q-0.890625 -0.9375 -0.890625 -2.609375q0 -1.75 0.890625 -2.703125q0.90625 -0.96875 2.34375 -0.96875q1.390625 0 2.265625 0.9375q0.875 0.9375 0.875 2.65625q0 0.109375 0 0.3125l-5.15625 0q0.0625 1.140625 0.640625 1.75q0.578125 0.59375 1.4375 0.59375q0.65625 0 1.109375 -0.328125q0.453125 -0.34375 0.71875 -1.078125zm-3.84375 -1.90625l3.859375 0q-0.078125 -0.859375 -0.4375 -1.296875q-0.5625 -0.6875 -1.453125 -0.6875q-0.8125 0 -1.359375 0.546875q-0.546875 0.53125 -0.609375 1.4375z" fill-rule="nonzero"/></g></svg>