<svg version="1.1" viewBox="0.0 0.0 312.62204724409446 100.0" fill="none" stroke="none" stroke-linecap="square" stroke-miterlimit="10" xmlns:xlink="http://www.w3.org/1999/xlink" xmlns="http://www.w3.org/2000/svg"><clipPath id="p.0"><path d="m0 0l312.62204 0l0 100.0l-312.62204 0l0 -100.0z" clip-rule="nonzero"/></clipPath><g clip-path="url(#p.0)"><path fill="#000000" fill-opacity="0.0" d="m0 0l312.62204 0l0 100.0l-312.62204 0z" fill-rule="evenodd"/><path fill="#ffffff" d="m21.55495 24.976377l195.93701 0l0 47.1811l-195.93701 0z" fill-rule="evenodd"/><path stroke="#000000" stroke-width="2.0" stroke-linejoin="round" stroke-linecap="butt" d="m21.55495 24.976377l195.93701 0l0 47.1811l-195.93701 0z" fill-rule="evenodd"/><path fill="#000000" d="m78.48819 43.17818l4.078125 10.46875l-1.53125 0l-1.140625 -3.15625l-4.4375 0l-1.171875 3.15625l-1.421875 0l4.078125 -10.46875l1.546875 0zm-0.8125 1.265625l-1.765625 4.875l3.53125 0l-1.734375 -4.875l-0.03125 0zm6.9652557 1.625l0 5.171875q0 0.640625 0.40625 1.0625q0.40625 0.421875 1.140625 0.421875q1.0625 0 1.640625 -0.65625q0.59375 -0.65625 0.59375 -1.671875l0 -4.328125l1.25 0l0 7.578125l-1.171875 0l0 -1.203125l-0.03125 0q-0.421875 0.71875 -1.046875 1.046875q-0.625 0.328125 -1.421875 0.328125q-1.328125 0 -1.96875 -0.671875q-0.640625 -0.6875 -0.640625 -2.03125l0 -5.046875l1.25 0zm8.635483 -2.265625l0 2.265625l1.5 0l0 1.109375l-1.5 0l0 4.734375q0 0.5625 0.375 0.59375q0.375 0.03125 0.78125 0.03125l0.34375 0l0 1.109375l-1.015625 0q-1.03125 0 -1.390625 -0.359375q-0.34375 -0.375 -0.34375 -1.234375l0 -4.875l-1.296875 0l0 -1.109375l1.296875 0l0 -2.265625l1.25 0zm4.131485 -0.625l0 4.0l0.03125 0q0.265625 -0.609375 0.90625 -0.9375q0.65625 -0.34375 1.484375 -0.34375q1.359375 0 1.984375 0.703125q0.625 0.703125 0.625 2.0l0 5.046875l-1.25 0l0 -5.171875q0 -0.640625 -0.421875 -1.0625q-0.40625 -0.421875 -1.125 -0.421875q-1.0625 0 -1.65625 0.65625q-0.578125 0.640625 -0.578125 1.671875l0 4.328125l-1.25 0l0 -10.46875l1.25 0zm10.572983 2.71875q1.359375 0 1.984375 0.703125q0.625 0.703125 0.625 2.0l0 5.046875l-1.25 0l0 -5.171875q0 -0.640625 -0.421875 -1.0625q-0.40625 -0.421875 -1.125 -0.421875q-1.0625 0 -1.65625 0.65625q-0.578125 0.640625 -0.578125 1.671875l0 4.328125l-1.25 0l0 -7.578125l1.171875 0l0 1.203125l0.03125 0q0.421875 -0.703125 1.015625 -1.03125q0.609375 -0.34375 1.453125 -0.34375zm9.682358 -2.71875q1.359375 0 2.234375 0.734375q0.875 0.71875 0.875 2.015625q0 1.03125 -0.453125 1.71875q-0.453125 0.671875 -1.375 0.921875l0 0.03125q0.796875 0.15625 1.171875 0.75q0.375 0.578125 0.4375 2.0q0.03125 0.90625 0.171875 1.4375q0.140625 0.515625 0.40625 0.859375l-1.546875 0q-0.140625 -0.171875 -0.1875 -0.34375q-0.03125 -0.171875 -0.0625 -0.453125l-0.0625 -1.15625q-0.015625 -0.8125 -0.34375 -1.640625q-0.328125 -0.84375 -1.4375 -0.875l-3.4375 0l0 4.46875l-1.390625 0l0 -10.46875l5.0 0zm-0.625 4.828125q1.15625 0 1.75 -0.453125q0.59375 -0.453125 0.59375 -1.40625q0 -0.84375 -0.484375 -1.3125q-0.46875 -0.46875 -1.328125 -0.46875l-3.515625 0l0 3.640625l2.984375 0zm8.618515 -2.109375q1.625 0 2.515625 1.171875q0.90625 1.171875 0.90625 3.015625l0 0.15625l-5.671875 0l0 0.078125q0 1.09375 0.625 1.75q0.640625 0.65625 1.734375 0.65625q0.828125 0 1.3125 -0.390625q0.5 -0.390625 0.65625 -1.09375l1.234375 0q-0.25 1.265625 -1.109375 1.921875q-0.84375 0.65625 -2.125 0.65625q-1.203125 0 -2.03125 -0.53125q-0.828125 -0.546875 -1.21875 -1.5q-0.390625 -0.96875 -0.390625 -1.96875q0 -1.6875 1.0 -2.796875q1.015625 -1.125 2.5625 -1.125zm-2.25 3.234375l4.359375 0q-0.0625 -0.921875 -0.671875 -1.53125q-0.609375 -0.609375 -1.53125 -0.609375q-0.859375 0 -1.46875 0.578125q-0.609375 0.578125 -0.6875 1.5625zm10.012634 -3.234375q0.734375 0 1.40625 0.296875q0.671875 0.296875 1.046875 0.890625l0.03125 0l0 -1.015625l1.234375 0l0 10.484375l-1.234375 0l0 -3.921875l-0.03125 0q-0.296875 0.578125 -0.9375 0.890625q-0.640625 0.296875 -1.484375 0.296875q-1.59375 0 -2.546875 -1.09375q-0.9375 -1.109375 -0.9375 -2.890625q0 -1.75 0.921875 -2.84375q0.9375 -1.09375 2.53125 -1.09375zm-2.140625 4.015625q0 1.234375 0.625 2.03125q0.640625 0.78125 1.71875 0.78125q1.109375 0 1.703125 -0.78125q0.609375 -0.796875 0.609375 -2.078125q0 -1.296875 -0.625 -2.078125q-0.609375 -0.796875 -1.78125 -0.796875q-1.0625 0 -1.65625 0.78125q-0.59375 0.78125 -0.59375 2.140625zm9.031586 -3.84375l0 5.171875q0 0.640625 0.40625 1.0625q0.40625 0.421875 1.140625 0.421875q1.0625 0 1.640625 -0.65625q0.59375 -0.65625 0.59375 -1.671875l0 -4.328125l1.25 0l0 7.578125l-1.171875 0l0 -1.203125l-0.03125 0q-0.421875 0.71875 -1.046875 1.046875q-0.625 0.328125 -1.421875 0.328125q-1.328125 0 -1.96875 -0.671875q-0.640625 -0.6875 -0.640625 -2.03125l0 -5.046875l1.25 0zm10.057358 -0.171875q1.625 0 2.515625 1.171875q0.90625 1.171875 0.90625 3.015625l0 0.15625l-5.671875 0l0 0.078125q0 1.09375 0.625 1.75q0.640625 0.65625 1.734375 0.65625q0.828125 0 1.3125 -0.390625q0.5 -0.390625 0.65625 -1.09375l1.234375 0q-0.25 1.265625 -1.109375 1.921875q-0.84375 0.65625 -2.125 0.65625q-1.203125 0 -2.03125 -0.53125q-0.828125 -0.546875 -1.21875 -1.5q-0.390625 -0.96875 -0.390625 -1.96875q0 -1.6875 1.0 -2.796875q1.015625 -1.125 2.5625 -1.125zm-2.25 3.234375l4.359375 0q-0.0625 -0.921875 -0.671875 -1.53125q-0.609375 -0.609375 -1.53125 -0.609375q-0.859375 0 -1.46875 0.578125q-0.609375 0.578125 -0.6875 1.5625zm9.481384 -3.234375q1.53125 0 2.265625 0.59375q0.75 0.59375 0.828125 1.78125l-1.25 0l0 -0.015625q-0.046875 -0.609375 -0.53125 -0.9375q-0.46875 -0.328125 -1.21875 -0.328125q-0.75 0 -1.1875 0.265625q-0.421875 0.25 -0.421875 0.703125q0 0.40625 0.375 0.671875q0.390625 0.265625 1.15625 0.4375l1.171875 0.265625q1.109375 0.234375 1.671875 0.75q0.578125 0.5 0.578125 1.34375q0 1.125 -0.875 1.765625q-0.859375 0.625 -2.34375 0.625q-1.453125 0 -2.3125 -0.640625q-0.84375 -0.65625 -0.90625 -1.921875l1.25 0q0.015625 0.703125 0.546875 1.09375q0.546875 0.375 1.484375 0.375q0.90625 0 1.359375 -0.28125q0.46875 -0.296875 0.46875 -0.84375q0 -0.515625 -0.46875 -0.8125q-0.453125 -0.296875 -1.875 -0.578125q-1.4375 -0.28125 -2.03125 -0.796875q-0.578125 -0.515625 -0.578125 -1.359375q0 -1.0 0.8125 -1.578125q0.8125 -0.578125 2.03125 -0.578125zm6.546875 -2.09375l0 2.265625l1.5 0l0 1.109375l-1.5 0l0 4.734375q0 0.5625 0.375 0.59375q0.375 0.03125 0.78125 0.03125l0.34375 0l0 1.109375l-1.015625 0q-1.03125 0 -1.390625 -0.359375q-0.34375 -0.375 -0.34375 -1.234375l0 -4.875l-1.296875 0l0 -1.109375l1.296875 0l0 -2.265625l1.25 0z" fill-rule="nonzero"/><path fill="#ffffff" d="m217.50038 24.976377l90.74016 0l0 47.1811l-90.74016 0z" fill-rule="evenodd"/><path stroke="#000000" stroke-width="2.0" stroke-linejoin="round" stroke-linecap="butt" d="m217.50038 24.976377l90.74016 0l0 47.1811l-90.74016 0z" fill-rule="evenodd"/><path fill="#000000" d="m231.15663 33.92818q1.75 0 2.765625 0.84375q1.03125 0.84375 1.09375 2.46875l-1.3125 0q-0.125 -1.0625 -0.78125 -1.59375q-0.640625 -0.546875 -1.828125 -0.546875q-1.109375 0 -1.734375 0.46875q-0.609375 0.46875 -0.609375 1.328125q0 0.609375 0.53125 1.0q0.53125 0.390625 2.84375 0.859375q1.671875 0.34375 2.5 1.0625q0.828125 0.703125 0.828125 1.953125q0 1.46875 -1.203125 2.296875q-1.1875 0.828125 -2.890625 0.828125q-1.890625 0 -3.09375 -0.953125q-1.203125 -0.953125 -1.21875 -2.734375l1.3125 0q0.015625 1.1875 0.859375 1.859375q0.84375 0.65625 2.1875 0.65625q1.265625 0 1.953125 -0.484375q0.703125 -0.5 0.703125 -1.421875q0 -0.75 -0.640625 -1.1875q-0.625 -0.453125 -2.3125 -0.78125q-2.21875 -0.421875 -2.984375 -1.09375q-0.765625 -0.671875 -0.765625 -1.765625q0 -1.40625 1.0625 -2.234375q1.078125 -0.828125 2.734375 -0.828125zm7.0902557 0.25l0 1.53125l-1.234375 0l0 -1.53125l1.234375 0zm0 2.890625l0 7.578125l-1.234375 0l0 -7.578125l1.234375 0zm5.0217743 -0.171875q0.796875 0 1.375 0.34375q0.578125 0.34375 0.90625 0.921875l0.015625 0l0 -1.09375l1.15625 0l0 7.015625q0 1.78125 -0.859375 2.703125q-0.859375 0.9375 -2.640625 0.9375q-1.3125 0 -2.203125 -0.578125q-0.890625 -0.5625 -0.9375 -1.640625l1.234375 0q0.03125 0.578125 0.625 0.890625q0.59375 0.328125 1.34375 0.328125q1.09375 0 1.6875 -0.734375q0.59375 -0.71875 0.59375 -2.15625l0 -0.46875l-0.03125 0q-0.296875 0.625 -0.9375 1.0q-0.625 0.359375 -1.4375 0.359375q-1.53125 0 -2.453125 -1.046875q-0.921875 -1.0625 -0.921875 -2.78125q0 -1.734375 0.921875 -2.859375q0.921875 -1.140625 2.5625 -1.140625zm-2.171875 3.84375q0 1.359375 0.5625 2.125q0.578125 0.765625 1.578125 0.765625q1.03125 0 1.640625 -0.796875q0.609375 -0.796875 0.609375 -2.125q0 -1.21875 -0.5625 -1.96875q-0.5625 -0.75 -1.59375 -0.75q-1.046875 0 -1.640625 0.75q-0.59375 0.75 -0.59375 2.0zm11.181519 -3.84375q1.359375 0 1.984375 0.703125q0.625 0.703125 0.625 2.0l0 5.046875l-1.25 0l0 -5.171875q0 -0.640625 -0.421875 -1.0625q-0.40625 -0.421875 -1.125 -0.421875q-1.0625 0 -1.65625 0.65625q-0.578125 0.640625 -0.578125 1.671875l0 4.328125l-1.25 0l0 -7.578125l1.171875 0l0 1.203125l0.03125 0q0.421875 -0.703125 1.015625 -1.03125q0.609375 -0.34375 1.453125 -0.34375zm7.635483 0q1.625 0 2.515625 1.171875q0.90625 1.171875 0.90625 3.015625l0 0.15625l-5.671875 0l0 0.078125q0 1.09375 0.625 1.75q0.640625 0.65625 1.734375 0.65625q0.828125 0 1.3125 -0.390625q0.5 -0.390625 0.65625 -1.09375l1.234375 0q-0.25 1.265625 -1.109375 1.921875q-0.84375 0.65625 -2.125 0.65625q-1.203125 0 -2.03125 -0.53125q-0.828125 -0.546875 -1.21875 -1.5q-0.390625 -0.96875 -0.390625 -1.96875q0 -1.6875 1.0 -2.796875q1.015625 -1.125 2.5625 -1.125zm-2.25 3.234375l4.359375 0q-0.0625 -0.921875 -0.671875 -1.53125q-0.609375 -0.609375 -1.53125 -0.609375q-0.859375 0 -1.46875 0.578125q-0.609375 0.578125 -0.6875 1.5625zm13.731384 -5.953125l0 10.46875l-1.234375 0l0 -1.015625l-0.03125 0q-0.296875 0.578125 -0.9375 0.890625q-0.640625 0.296875 -1.484375 0.296875q-1.59375 0 -2.546875 -1.09375q-0.9375 -1.109375 -0.9375 -2.890625q0 -1.75 0.921875 -2.84375q0.921875 -1.09375 2.53125 -1.09375q0.734375 0 1.40625 0.296875q0.671875 0.296875 1.046875 0.890625l0.03125 0l0 -3.90625l1.234375 0zm-5.859375 6.734375q0 1.234375 0.625 2.03125q0.640625 0.78125 1.71875 0.78125q1.109375 0 1.703125 -0.78125q0.609375 -0.796875 0.609375 -2.078125q0 -1.296875 -0.625 -2.078125q-0.609375 -0.796875 -1.78125 -0.796875q-1.0625 0 -1.65625 0.78125q-0.59375 0.78125 -0.59375 2.140625zm13.134827 -6.734375l0 3.921875l0.03125 0q0.296875 -0.59375 0.921875 -0.890625q0.625 -0.3125 1.5 -0.3125q1.625 0 2.5625 1.125q0.9375 1.109375 0.9375 2.859375q0 1.765625 -0.9375 2.859375q-0.921875 1.078125 -2.53125 1.078125q-0.703125 0 -1.390625 -0.28125q-0.671875 -0.296875 -1.0625 -0.90625l-0.03125 0l0 1.015625l-1.234375 0l0 -10.46875l1.234375 0zm-0.03125 6.671875q0 1.328125 0.625 2.109375q0.640625 0.765625 1.765625 0.765625q1.078125 0 1.671875 -0.765625q0.59375 -0.78125 0.59375 -2.15625q0 -1.234375 -0.625 -2.015625q-0.625 -0.796875 -1.734375 -0.796875q-1.09375 0 -1.703125 0.8125q-0.59375 0.796875 -0.59375 2.046875zm8.031586 -3.78125l2.203125 6.203125l0.03125 0l2.125 -6.203125l1.328125 0l-3.21875 8.390625q-0.515625 1.3125 -0.984375 1.765625q-0.46875 0.453125 -1.296875 0.453125q-0.234375 0 -0.453125 -0.03125q-0.203125 -0.015625 -0.40625 -0.09375l0 -1.140625q0.171875 0.046875 0.34375 0.109375q0.1875 0.0625 0.375 0.0625q0.765625 0 1.0625 -0.765625q0.296875 -0.75 0.484375 -1.21875l-3.015625 -7.53125l1.421875 0z" fill-rule="nonzero"/><path fill="#000000" d="m231.15663 51.92818q1.75 0 2.765625 0.84375q1.03125 0.84375 1.09375 2.46875l-1.3125 0q-0.125 -1.0625 -0.78125 -1.59375q-0.640625 -0.546875 -1.828125 -0.546875q-1.109375 0 -1.734375 0.46875q-0.609375 0.46875 -0.609375 1.328125q0 0.609375 0.53125 1.0q0.53125 0.390625 2.84375 0.859375q1.671875 0.34375 2.5 1.0625q0.828125 0.703125 0.828125 1.953125q0 1.46875 -1.203125 2.296875q-1.1875 0.828125 -2.890625 0.828125q-1.890625 0 -3.09375 -0.953125q-1.203125 -0.953125 -1.21875 -2.734375l1.3125 0q0.015625 1.1875 0.859375 1.859375q0.84375 0.65625 2.1875 0.65625q1.265625 0 1.953125 -0.484375q0.703125 -0.5 0.703125 -1.421875q0 -0.75 -0.640625 -1.1875q-0.625 -0.453125 -2.3125 -0.78125q-2.21875 -0.421875 -2.984375 -1.09375q-0.765625 -0.671875 -0.765625 -1.765625q0 -1.40625 1.0625 -2.234375q1.078125 -0.828125 2.734375 -0.828125zm8.934006 2.96875q1.625 0 2.515625 1.171875q0.90625 1.171875 0.90625 3.015625l0 0.15625l-5.671875 0l0 0.078125q0 1.09375 0.625 1.75q0.640625 0.65625 1.734375 0.65625q0.828125 0 1.3125 -0.390625q0.5 -0.390625 0.65625 -1.09375l1.234375 0q-0.25 1.265625 -1.109375 1.921875q-0.84375 0.65625 -2.125 0.65625q-1.203125 0 -2.03125 -0.53125q-0.828125 -0.546875 -1.21875 -1.5q-0.390625 -0.96875 -0.390625 -1.96875q0 -1.6875 1.0 -2.796875q1.015625 -1.125 2.5625 -1.125zm-2.25 3.234375l4.359375 0q-0.0625 -0.921875 -0.671875 -1.53125q-0.609375 -0.609375 -1.53125 -0.609375q-0.859375 0 -1.46875 0.578125q-0.609375 0.578125 -0.6875 1.5625zm10.731384 -3.234375q0.046875 0 0.078125 0q0.046875 0 0.09375 0l0 1.3125q-1.390625 0 -2.0625 0.75q-0.671875 0.75 -0.671875 2.296875l0 3.390625l-1.25 0l0 -7.578125l1.171875 0l0 1.59375l0.03125 0q0.4375 -0.90625 1.078125 -1.328125q0.640625 -0.4375 1.53125 -0.4375zm1.7712708 0.171875l2.125 6.3125l0.03125 0l2.0625 -6.3125l1.3125 0l-2.78125 7.578125l-1.328125 0l-2.8125 -7.578125l1.390625 0zm7.984375 -2.890625l0 1.53125l-1.234375 0l0 -1.53125l1.234375 0zm0 2.890625l0 7.578125l-1.234375 0l0 -7.578125l1.234375 0zm5.0999146 -0.171875q1.390625 0 2.25 0.65625q0.875 0.65625 1.03125 1.953125l-1.296875 0q-0.140625 -0.734375 -0.640625 -1.125q-0.484375 -0.390625 -1.234375 -0.390625q-1.15625 0 -1.765625 0.78125q-0.59375 0.765625 -0.59375 2.1875q0 1.25 0.59375 2.015625q0.59375 0.75 1.625 0.75q0.90625 0 1.421875 -0.484375q0.53125 -0.5 0.65625 -1.359375l1.265625 0q-0.203125 1.40625 -1.0625 2.171875q-0.859375 0.765625 -2.265625 0.765625q-1.65625 0 -2.609375 -1.03125q-0.9375 -1.046875 -0.9375 -2.828125q0 -1.859375 0.953125 -2.953125q0.953125 -1.109375 2.609375 -1.109375zm7.8720093 0q1.625 0 2.515625 1.171875q0.90625 1.171875 0.90625 3.015625l0 0.15625l-5.671875 0l0 0.078125q0 1.09375 0.625 1.75q0.640625 0.65625 1.734375 0.65625q0.828125 0 1.3125 -0.390625q0.5 -0.390625 0.65625 -1.09375l1.234375 0q-0.25 1.265625 -1.109375 1.921875q-0.84375 0.65625 -2.125 0.65625q-1.203125 0 -2.03125 -0.53125q-0.828125 -0.546875 -1.21875 -1.5q-0.390625 -0.96875 -0.390625 -1.96875q0 -1.6875 1.0 -2.796875q1.015625 -1.125 2.5625 -1.125zm-2.25 3.234375l4.359375 0q-0.0625 -0.921875 -0.671875 -1.53125q-0.609375 -0.609375 -1.53125 -0.609375q-0.859375 0 -1.46875 0.578125q-0.609375 0.578125 -0.6875 1.5625z" fill-rule="nonzero"/><path fill="#ffffff" d="m5.8200827 25.136482l0 0c0 -9.071384 7.360862 -16.425196 16.440945 -16.425196l0 0c4.360409 0 8.542227 1.730506 11.625504 4.810828c3.0832748 3.0803213 4.815441 7.258136 4.815441 11.6143675l0 0c0 9.071388 -7.3608627 16.425198 -16.440945 16.425198l0 0c-9.080084 0 -16.440945 -7.3538094 -16.440945 -16.425198z" fill-rule="evenodd"/><path stroke="#000000" stroke-width="2.0" stroke-linejoin="round" stroke-linecap="butt" d="m5.8200827 25.136482l0 0c0 -9.071384 7.360862 -16.425196 16.440945 -16.425196l0 0c4.360409 0 8.542227 1.730506 11.625504 4.810828c3.0832748 3.0803213 4.815441 7.258136 4.815441 11.6143675l0 0c0 9.071388 -7.3608627 16.425198 -16.440945 16.425198l0 0c-9.080084 0 -16.440945 -7.3538094 -16.440945 -16.425198z" fill-rule="evenodd"/><path fill="#000000" fill-opacity="0.0" d="m7.9654965 5.8535757l32.88189 0l0 36.409447l-32.88189 0z" fill-rule="evenodd"/><path fill="#000000" d="m21.324871 18.869825q1.5625 0 2.546875 0.890625q1.0 0.875 1.0 2.375q0 1.171875 -0.65625 2.125q-0.65625 0.9375 -2.78125 2.15625q-1.296875 0.75 -1.84375 1.34375q-0.53125 0.59375 -0.65625 1.25l5.828125 0l0 1.203125l-7.40625 0q0.109375 -1.421875 0.71875 -2.484375q0.625 -1.0625 2.296875 -2.0625q1.984375 -1.203125 2.515625 -1.890625q0.546875 -0.6875 0.546875 -1.65625q0 -0.890625 -0.625 -1.46875q-0.625 -0.578125 -1.5625 -0.578125q-1.03125 0 -1.625 0.765625q-0.59375 0.75 -0.59375 1.9375l0 0.109375l-1.359375 0l0 -0.28125q0 -1.6875 1.0 -2.703125q1.0 -1.03125 2.65625 -1.03125z" fill-rule="nonzero"/></g></svg>