<svg id="Layer_1" data-name="Layer 1" xmlns="http://www.w3.org/2000/svg" viewBox="0 0 630 360"><title>verify-tech-diagram</title><rect id="verify" x="482.47" y="262.7" width="125.86" height="78.21" fill="#fff" stroke="#1d1d1b" stroke-miterlimit="10"/><rect id="verify-2" data-name="verify" x="477.47" y="257.7" width="125.86" height="78.21" fill="#fff" stroke="#1d1d1b" stroke-miterlimit="10"/><rect id="verify-3" data-name="verify" x="472.47" y="252.7" width="125.86" height="78.21" fill="#fff" stroke="#1d1d1b" stroke-miterlimit="10"/><path d="M16.78,67A4.11,4.11,0,0,0,20,68.45c1.36,0,2.55-.69,2.55-2a1.62,1.62,0,0,0-1.06-1.57c-1.12-.53-2.86-.56-4.06-1.29a2.58,2.58,0,0,1-1.32-2.34c0-1.73,1.44-3.11,3.83-3.11a5.11,5.11,0,0,1,3.7,1.52l-1,.82a3.69,3.69,0,0,0-2.69-1.15c-1.36,0-2.43.67-2.43,1.87,0,1.83,2.64,1.62,4.57,2.47a2.74,2.74,0,0,1,1.88,2.65c0,2.23-2,3.33-4.07,3.33a5.4,5.4,0,0,1-4.1-1.74Z" fill="#1d1d1b"/><path d="M31.86,66.94h-4.5l-.74,2.53H25.17l3.47-11.2h2l3.51,11.2H32.61ZM27.7,65.78h3.82L29.66,59.5h-.12Z" fill="#1d1d1b"/><path d="M45,58.27h1.71v11.2H45.36V60l-3.82,5.16h0L37.71,60v9.47H36.32V58.27H38L41.54,63Z" fill="#1d1d1b"/><path d="M50,58.27h1.38v10h4.48v1.23H50Z" fill="#1d1d1b"/><path d="M16.21,27.6h2.27v4.85l4-4.85h2.79l-3.89,4.45,4.14,6.76H22.88l-3-5L18.48,35.4v3.41H16.21Z" fill="#1d1d1b"/><path d="M27.86,35.37a2,2,0,0,0,2,1.63A3,3,0,0,0,32,36.22l1.07,1.63A5,5,0,0,1,29.82,39a4.07,4.07,0,0,1-4.21-4.29v-.1a4,4,0,0,1,4.05-4.3,3.84,3.84,0,0,1,3.85,4.11v1Zm0-1.64h3.38a1.61,1.61,0,0,0-1.65-1.58A1.68,1.68,0,0,0,27.87,33.73Z" fill="#1d1d1b"/><path d="M36.75,39.14l.07-.27h-.16l-2.58-8.43h2.4L38,36.23l1.5-5.79h2.37L39,40c-.37,1.25-1.35,1.59-2.61,1.59a15.21,15.21,0,0,1-2-.16l.45-1.91a7.44,7.44,0,0,0,1.15.1A.64.64,0,0,0,36.75,39.14Z" fill="#1d1d1b"/><path d="M16.78,152.78A4.08,4.08,0,0,0,20,154.25c1.36,0,2.55-.68,2.55-2a1.61,1.61,0,0,0-1.06-1.57c-1.12-.53-2.86-.56-4.06-1.3A2.55,2.55,0,0,1,16.06,147c0-1.73,1.44-3.11,3.83-3.11a5.11,5.11,0,0,1,3.7,1.52l-1,.82a3.65,3.65,0,0,0-2.69-1.15c-1.36,0-2.43.67-2.43,1.87,0,1.82,2.64,1.61,4.57,2.46a2.76,2.76,0,0,1,1.88,2.66c0,2.22-2,3.33-4.07,3.33a5.37,5.37,0,0,1-4.1-1.75Z" fill="#1d1d1b"/><path d="M27.76,153.29c0,.53.1,1,1,1a6.78,6.78,0,0,0,1-.1l.14,1.16a11.91,11.91,0,0,1-1.42.11c-1.27,0-2.05-.5-2.05-1.86v-5.14H24.94v-1.15h1.51v-2.61l1.31-.46v3.07H30v1.15H27.76Z" fill="#1d1d1b"/><path d="M32.66,151.69a2.51,2.51,0,0,0,2.48,2.6,3.19,3.19,0,0,0,2.09-.79l.68.95a4.53,4.53,0,0,1-2.84,1c-2.32,0-3.79-1.75-3.79-4.15s1.42-4.16,3.63-4.16,3.41,1.75,3.41,4.15v.41Zm0-1.05H36.9c0-1.24-.74-2.36-2-2.36A2.33,2.33,0,0,0,32.67,150.64Z" fill="#1d1d1b"/><path d="M41.62,147.29v.91A2.8,2.8,0,0,1,44,147.13c2.07,0,3.4,1.75,3.4,4.16S46,155.44,44,155.44a2.8,2.8,0,0,1-2.33-1.07v3.34H40.3V147.29Zm4.37,4c0-1.67-.81-2.95-2.28-2.95a2.08,2.08,0,0,0-2.11,2.34v1.29a2.08,2.08,0,0,0,2.11,2.34c1.47,0,2.28-1.28,2.28-2.94Z" fill="#1d1d1b"/><path d="M15.57,112a6.41,6.41,0,0,0,1.47.29c1.6,0,1.76-.7,1.76-2.19v-8h1.38v8.92c0,1.84-1.44,2.45-3,2.45a7,7,0,0,1-2-.32Z" fill="#1d1d1b"/><path d="M23.54,110.86a4,4,0,0,0,3.17,1.47c1.36,0,2.54-.69,2.54-2a1.6,1.6,0,0,0-1.06-1.57c-1.12-.53-2.86-.56-4.06-1.3a2.56,2.56,0,0,1-1.31-2.34c0-1.73,1.44-3.1,3.82-3.1a5.07,5.07,0,0,1,3.7,1.52l-1,.81a3.69,3.69,0,0,0-2.69-1.15c-1.36,0-2.43.67-2.43,1.87,0,1.83,2.64,1.62,4.58,2.47a2.76,2.76,0,0,1,1.87,2.66c0,2.22-2,3.33-4.07,3.33a5.39,5.39,0,0,1-4.09-1.75Z" fill="#1d1d1b"/><path d="M37.34,102c3,0,4.9,2.54,4.9,5.76s-1.87,5.75-4.9,5.75-4.89-2.53-4.89-5.75S34.32,102,37.34,102Zm3.45,5.65c0-2.32-1-4.45-3.45-4.45s-3.44,2.13-3.44,4.45v.21c0,2.32,1,4.45,3.44,4.45s3.45-2.13,3.45-4.45Z" fill="#1d1d1b"/><path d="M46.16,103.62v9.74H44.82V102.15h2l5.81,9.24v-9.24H54v11.21H52.27Z" fill="#1d1d1b"/><g id="key_line" data-name="key line"><line x1="15.36" y1="122.5" x2="58.82" y2="122.5" fill="none" stroke="#1d1d1b" stroke-miterlimit="10" stroke-dasharray="2 2"/><polygon points="57.37 127.49 66 122.5 57.37 117.52 57.37 127.49" fill="#1d1d1b"/></g><g id="key_line-2" data-name="key line"><line x1="15.36" y1="80.74" x2="58.82" y2="80.74" fill="none" stroke="#1d1d1b" stroke-miterlimit="10"/><polygon points="57.37 85.72 66 80.74 57.37 75.75 57.37 85.72" fill="#1d1d1b"/></g><g id="key_line-3" data-name="key line"><line x1="561" y1="143.62" x2="561" y2="245.53" fill="none" stroke="#1d1d1b" stroke-miterlimit="10"/><polygon points="556.01 244.07 561 252.7 565.99 244.07 556.01 244.07" fill="#1d1d1b"/></g><g id="key_line-4" data-name="key line"><line x1="519" y1="252.7" x2="519" y2="150.79" fill="none" stroke="#1d1d1b" stroke-miterlimit="10"/><polygon points="523.99 152.25 519 143.62 514.01 152.25 523.99 152.25" fill="#1d1d1b"/></g><rect id="service_background" data-name="service background" x="128.54" y="18.7" width="269.32" height="323.21" fill="#e8e6e6"/><rect id="verify-4" data-name="verify" x="472.47" y="65.29" width="141.76" height="78.33" fill="#fff" stroke="#1d1d1b" stroke-miterlimit="10"/><rect id="your_service" data-name="your service" x="143.12" y="65.29" width="239.44" height="75.55" fill="#fff" stroke="#1d1d1b" stroke-miterlimit="10"/><rect id="verify_service_provider" data-name="verify service provider" x="143.12" y="252.66" width="239.44" height="76.28" fill="#fff" stroke="#1d1d1b" stroke-miterlimit="10"/><path d="M522.69,95.78v-.56h-3.14V94.07h4.37V100h-1.25V98.48a3.39,3.39,0,0,1-3.11,1.67c-3,0-4.8-2.53-4.8-5.75s1.86-5.76,4.88-5.76A4.59,4.59,0,0,1,523.77,91l-1.16.61a3.13,3.13,0,0,0-3-1.73c-2.33,0-3.42,2.13-3.42,4.45v.21c0,2.32,1.1,4.45,3.44,4.45A2.91,2.91,0,0,0,522.69,95.78Z" fill="#1d1d1b"/><path d="M530.94,88.64c3,0,4.9,2.54,4.9,5.76s-1.87,5.75-4.9,5.75S526,97.62,526,94.4,527.92,88.64,530.94,88.64Zm3.44,5.65c0-2.32-1-4.45-3.44-4.45S527.5,92,527.5,94.29v.21c0,2.32,1,4.45,3.44,4.45s3.44-2.13,3.44-4.45Z" fill="#1d1d1b"/><path d="M540.46,100l-3.3-11.21h1.47l2.74,9.93,2.75-9.93h1.48L542.32,100Z" fill="#1d1d1b"/><path d="M547.55,98a1.08,1.08,0,1,1-1.08,1.08A1.07,1.07,0,0,1,547.55,98Z" fill="#1d1d1b"/><path d="M558,96V88.78h1.34v7.35a4.14,4.14,0,0,1-8.27,0V88.78h1.36V96A2.79,2.79,0,1,0,558,96Z" fill="#1d1d1b"/><path d="M562.41,88.78h1.38v6l4.85-6h1.68l-3.67,4.42,4,6.79h-1.62l-3.35-5.78-1.93,2.4V100h-1.38Z" fill="#1d1d1b"/><path d="M510.92,116l-3.29-11.21h1.47l2.74,9.93,2.75-9.93h1.47L512.78,116Z" fill="#1d1d1b"/><path d="M518.11,112.4a2.51,2.51,0,0,0,2.48,2.6,3.24,3.24,0,0,0,2.1-.79l.67,1a4.51,4.51,0,0,1-2.84,1c-2.32,0-3.79-1.75-3.79-4.15s1.43-4.16,3.63-4.16,3.41,1.74,3.41,4.15v.41Zm0-1.05h4.23c-.05-1.24-.74-2.36-2-2.36A2.33,2.33,0,0,0,518.12,111.35Z" fill="#1d1d1b"/><path d="M529.84,109.17h-.21c-1.35,0-2.56.54-2.56,2.72V116h-1.32v-8h1.32v1.27a2.47,2.47,0,0,1,2.38-1.41h.39Z" fill="#1d1d1b"/><path d="M532.2,104.78a1,1,0,1,1-1,1A1,1,0,0,1,532.2,104.78Zm.64,11.21h-1.31v-8h1.31Z" fill="#1d1d1b"/><path d="M537.28,108h1.58v1.15h-1.58V116H536v-6.84h-1.33V108H536v-1.49c0-1.37.93-1.87,2.2-1.87a7.75,7.75,0,0,1,1.28.11l-.1,1.12c-.3,0-.88-.06-1.14-.06-.75,0-.92.46-.92,1Z" fill="#1d1d1b"/><path d="M539.79,108h1.48l2,6.6,1.88-6.6h1.47l-2.91,9.19a1.93,1.93,0,0,1-2.12,1.41,9.36,9.36,0,0,1-1.42-.13l.19-1.15a6.29,6.29,0,0,0,1.06.11.91.91,0,0,0,1-.8l.08-.37Z" fill="#1d1d1b"/><path d="M552.14,104.78h1.31v4.13a2.78,2.78,0,0,1,2.34-1.07,2.55,2.55,0,0,1,2.67,2.72V116h-1.31v-5c0-1.41-.72-1.94-1.65-1.94a2,2,0,0,0-2,2.21V116h-1.31Z" fill="#1d1d1b"/><path d="M567.21,116H565.9v-.91a2.76,2.76,0,0,1-2.34,1.07,2.55,2.55,0,0,1-2.67-2.72V108h1.31v5c0,1.41.72,1.94,1.65,1.94a2,2,0,0,0,2-2.21V108h1.31Z" fill="#1d1d1b"/><path d="M571.08,116h-1.31V104.78h1.31v4.13a2.83,2.83,0,0,1,2.34-1.07c2.06,0,3.39,1.74,3.39,4.16s-1.33,4.15-3.39,4.15a2.83,2.83,0,0,1-2.34-1.07Zm4.37-4c0-1.66-.8-2.94-2.27-2.94a2.08,2.08,0,0,0-2.11,2.34v1.29a2.08,2.08,0,0,0,2.11,2.34c1.47,0,2.27-1.28,2.27-3Z" fill="#1d1d1b"/><path d="M187.54,296.81l-3.29-11.21h1.47l2.74,9.92,2.75-9.92h1.47l-3.28,11.21Z" fill="#1d1d1b"/><path d="M194.73,293.22a2.51,2.51,0,0,0,2.48,2.59,3.18,3.18,0,0,0,2.09-.78l.68.94a4.46,4.46,0,0,1-2.84,1c-2.32,0-3.79-1.75-3.79-4.15s1.43-4.16,3.63-4.16,3.41,1.74,3.41,4.14v.42Zm0-1.06H199c-.05-1.23-.74-2.35-2-2.35A2.33,2.33,0,0,0,194.74,292.16Z" fill="#1d1d1b"/><path d="M206.46,290h-.21c-1.35,0-2.56.54-2.56,2.72v4.1h-1.31v-8h1.31v1.26a2.49,2.49,0,0,1,2.38-1.41h.39Z" fill="#1d1d1b"/><path d="M208.82,285.6a1,1,0,0,1,1,1,1,1,0,1,1-1.93,0A1,1,0,0,1,208.82,285.6Zm.64,11.21h-1.31v-8h1.31Z" fill="#1d1d1b"/><path d="M213.9,288.82h1.58V290H213.9v6.84h-1.32V290h-1.33v-1.15h1.33v-1.49c0-1.38.93-1.87,2.2-1.87a7.75,7.75,0,0,1,1.28.11l-.1,1.12c-.3,0-.88-.07-1.14-.07-.75,0-.92.47-.92,1Z" fill="#1d1d1b"/><path d="M216.41,288.82h1.48l2,6.59,1.88-6.59h1.47L220.29,298a1.91,1.91,0,0,1-2.11,1.4,9.27,9.27,0,0,1-1.42-.12l.19-1.16a5.64,5.64,0,0,0,1.06.12.9.9,0,0,0,1-.8l.08-.37Z" fill="#1d1d1b"/><path d="M229.3,294.31a4.06,4.06,0,0,0,3.17,1.47c1.36,0,2.55-.69,2.55-2A1.61,1.61,0,0,0,234,292.2c-1.12-.53-2.87-.56-4.07-1.3a2.56,2.56,0,0,1-1.31-2.34c0-1.73,1.44-3.1,3.83-3.1A5,5,0,0,1,236.1,287l-1,.81a3.69,3.69,0,0,0-2.69-1.15c-1.36,0-2.44.67-2.44,1.87,0,1.83,2.65,1.62,4.58,2.47a2.74,2.74,0,0,1,1.87,2.66c0,2.22-2,3.33-4.06,3.33a5.41,5.41,0,0,1-4.1-1.75Z" fill="#1d1d1b"/><path d="M239.43,293.22a2.51,2.51,0,0,0,2.48,2.59A3.19,3.19,0,0,0,244,295l.67.94a4.43,4.43,0,0,1-2.83,1c-2.32,0-3.8-1.75-3.8-4.15s1.43-4.16,3.64-4.16,3.41,1.74,3.41,4.14v.42Zm0-1.06h4.22c0-1.23-.73-2.35-2-2.35A2.31,2.31,0,0,0,239.45,292.16Z" fill="#1d1d1b"/><path d="M251.16,290H251c-1.34,0-2.56.54-2.56,2.72v4.1h-1.31v-8h1.31v1.26a2.5,2.5,0,0,1,2.39-1.41h.38Z" fill="#1d1d1b"/><path d="M254.57,296.81l-2.53-8h1.49l1.92,6.77,1.9-6.77h1.49l-2.53,8Z" fill="#1d1d1b"/><path d="M261.25,285.6a1,1,0,0,1,1,1,1,1,0,1,1-1.93,0A1,1,0,0,1,261.25,285.6Zm.64,11.21h-1.31v-8h1.31Z" fill="#1d1d1b"/><path d="M265.33,292.85c0,1.6.79,3,2.32,3a2.29,2.29,0,0,0,2.07-1.34l1.09.62a3.41,3.41,0,0,1-3.16,1.88c-2.2,0-3.68-1.73-3.68-4.15s1.48-4.16,3.68-4.16a3.4,3.4,0,0,1,3.16,1.87l-1.09.63a2.28,2.28,0,0,0-2.07-1.35c-1.53,0-2.32,1.36-2.32,3Z" fill="#1d1d1b"/><path d="M273.61,293.22a2.51,2.51,0,0,0,2.48,2.59,3.18,3.18,0,0,0,2.09-.78l.68.94a4.46,4.46,0,0,1-2.84,1c-2.32,0-3.79-1.75-3.79-4.15s1.42-4.16,3.63-4.16,3.41,1.74,3.41,4.14v.42Zm0-1.06h4.23c-.05-1.23-.74-2.35-2-2.35A2.33,2.33,0,0,0,273.62,292.16Z" fill="#1d1d1b"/><path d="M285.78,285.6h3.94a3.32,3.32,0,0,1,3.47,3.52,3.42,3.42,0,0,1-3.63,3.51h-2.4v4.18h-1.38Zm3.65,1.19h-2.27v4.65h2.27a2.16,2.16,0,0,0,2.31-2.27v-.08A2.19,2.19,0,0,0,289.43,286.79Z" fill="#1d1d1b"/><path d="M299.06,290h-.2c-1.35,0-2.57.54-2.57,2.72v4.1H295v-8h1.31v1.26a2.5,2.5,0,0,1,2.39-1.41h.38Z" fill="#1d1d1b"/><path d="M307.45,292.82c0,2.4-1.47,4.15-3.68,4.15s-3.69-1.75-3.69-4.15,1.48-4.16,3.69-4.16S307.45,290.39,307.45,292.82Zm-1.36.05v-.1c0-1.6-.8-3-2.32-3s-2.32,1.36-2.32,3v.1c0,1.57.8,2.94,2.32,2.94S306.09,294.44,306.09,292.87Z" fill="#1d1d1b"/><path d="M311.08,296.81l-2.53-8H310l1.92,6.77,1.9-6.77h1.49l-2.53,8Z" fill="#1d1d1b"/><path d="M317.76,285.6a1,1,0,0,1,1,1,1,1,0,1,1-1-1Zm.65,11.21h-1.32v-8h1.32Z" fill="#1d1d1b"/><path d="M326.23,295.89a2.79,2.79,0,0,1-2.34,1.08c-2.06,0-3.39-1.73-3.39-4.15s1.33-4.16,3.39-4.16a2.78,2.78,0,0,1,2.34,1.07V285.6h1.31v11.21h-1.31Zm-4.37-3c0,1.67.8,2.95,2.27,2.95a2.08,2.08,0,0,0,2.12-2.34v-1.3a2.08,2.08,0,0,0-2.12-2.33c-1.47,0-2.27,1.28-2.27,2.94Z" fill="#1d1d1b"/><path d="M331,293.22a2.51,2.51,0,0,0,2.48,2.59,3.23,3.23,0,0,0,2.1-.78l.67.94a4.46,4.46,0,0,1-2.84,1c-2.32,0-3.79-1.75-3.79-4.15s1.42-4.16,3.63-4.16,3.41,1.74,3.41,4.14v.42Zm0-1.06h4.23c-.05-1.23-.74-2.35-2-2.35A2.33,2.33,0,0,0,331,292.16Z" fill="#1d1d1b"/><path d="M342.73,290h-.21c-1.35,0-2.56.54-2.56,2.72v4.1h-1.32v-8H340v1.26a2.49,2.49,0,0,1,2.38-1.41h.39Z" fill="#1d1d1b"/><path d="M254.72,88.78h1.49l-3.61,6.63V100h-1.37V95.41l-3.62-6.63h1.57L252,94.11Z" fill="#1d1d1b"/><path d="M263.52,96c0,2.4-1.48,4.15-3.68,4.15s-3.69-1.75-3.69-4.15,1.48-4.16,3.69-4.16S263.52,93.57,263.52,96Zm-1.36,0V96c0-1.61-.8-3-2.32-3s-2.33,1.36-2.33,3v.09c0,1.57.81,3,2.33,3S262.16,97.62,262.16,96.05Z" fill="#1d1d1b"/><path d="M271.85,100h-1.31v-.91a2.76,2.76,0,0,1-2.34,1.07,2.55,2.55,0,0,1-2.67-2.72V92h1.31v5c0,1.41.72,1.94,1.65,1.94a2,2,0,0,0,2.05-2.21V92h1.31Z" fill="#1d1d1b"/><path d="M278.49,93.17h-.21c-1.34,0-2.56.54-2.56,2.72V100h-1.31V92h1.31v1.27a2.49,2.49,0,0,1,2.39-1.41h.38Z" fill="#1d1d1b"/><path d="M238.31,115l.8-.93a3.83,3.83,0,0,0,2.42,1c.91,0,1.6-.41,1.6-1.2s-.86-1-1.95-1.34-2.48-.69-2.48-2.34c0-1.34,1.23-2.32,2.91-2.32a4.32,4.32,0,0,1,2.77,1l-.77.88a2.93,2.93,0,0,0-2-.76c-1,0-1.58.46-1.58,1.18s.45.86,1.15,1.06c.42.11.9.25,1.31.38,1.08.34,2,.9,2,2.18,0,1.65-1.46,2.4-3,2.4A4.83,4.83,0,0,1,238.31,115Z" fill="#1d1d1b"/><path d="M247.42,112.4a2.51,2.51,0,0,0,2.48,2.6,3.2,3.2,0,0,0,2.1-.79l.67,1a4.51,4.51,0,0,1-2.84,1c-2.32,0-3.79-1.75-3.79-4.15s1.43-4.16,3.63-4.16,3.41,1.75,3.41,4.15v.41Zm0-1.05h4.23c0-1.24-.74-2.36-2-2.36A2.33,2.33,0,0,0,247.43,111.35Z" fill="#1d1d1b"/><path d="M259.15,109.17h-.21c-1.35,0-2.56.54-2.56,2.72V116h-1.31v-8h1.31v1.27a2.47,2.47,0,0,1,2.38-1.41h.39Z" fill="#1d1d1b"/><path d="M262.55,116,260,108h1.48l1.93,6.77,1.9-6.77h1.49l-2.53,8Z" fill="#1d1d1b"/><path d="M269.24,104.78a1,1,0,1,1-1,1A1,1,0,0,1,269.24,104.78Zm.64,11.21h-1.31v-8h1.31Z" fill="#1d1d1b"/><path d="M273.32,112c0,1.6.79,3,2.32,3a2.3,2.3,0,0,0,2.07-1.35l1.09.63a3.42,3.42,0,0,1-3.16,1.87c-2.21,0-3.68-1.73-3.68-4.15s1.47-4.16,3.68-4.16a3.42,3.42,0,0,1,3.16,1.87l-1.09.63a2.3,2.3,0,0,0-2.07-1.35c-1.53,0-2.32,1.36-2.32,3Z" fill="#1d1d1b"/><path d="M281.59,112.4a2.52,2.52,0,0,0,2.49,2.6,3.19,3.19,0,0,0,2.09-.79l.67,1a4.48,4.48,0,0,1-2.83,1c-2.32,0-3.79-1.75-3.79-4.15s1.42-4.16,3.63-4.16,3.41,1.75,3.41,4.15v.41Zm0-1.05h4.23c0-1.24-.74-2.36-2-2.36A2.32,2.32,0,0,0,281.61,111.35Z" fill="#1d1d1b"/><path d="M204.25,34.78h1.49l-3.6,6.63V46h-1.38V41.41l-3.62-6.63h1.57l2.77,5.33Z" fill="#1d1d1b"/><path d="M213.05,42c0,2.4-1.47,4.15-3.68,4.15s-3.68-1.75-3.68-4.15,1.47-4.16,3.68-4.16S213.05,39.57,213.05,42Zm-1.36,0V42c0-1.61-.8-3-2.32-3s-2.32,1.36-2.32,3v.09c0,1.57.8,3,2.32,3S211.69,43.62,211.69,42.05Z" fill="#1d1d1b"/><path d="M221.39,46h-1.32v-.91a2.76,2.76,0,0,1-2.33,1.07,2.55,2.55,0,0,1-2.68-2.72V38h1.32v5c0,1.41.72,1.94,1.64,1.94a2,2,0,0,0,2-2.21V38h1.32Z" fill="#1d1d1b"/><path d="M228,39.17h-.2c-1.35,0-2.57.54-2.57,2.72V46h-1.31V38h1.31v1.27a2.5,2.5,0,0,1,2.39-1.41H228Z" fill="#1d1d1b"/><path d="M234.23,34.78a1,1,0,1,1-1,1A1,1,0,0,1,234.23,34.78ZM234.87,46h-1.31V38h1.31Z" fill="#1d1d1b"/><path d="M237.43,38h1.31v.91a2.78,2.78,0,0,1,2.34-1.07,2.54,2.54,0,0,1,2.67,2.72V46h-1.31V41c0-1.41-.72-1.94-1.65-1.94a2.05,2.05,0,0,0-2,2.21V46h-1.31Z" fill="#1d1d1b"/><path d="M248.12,38h1.58v1.15h-1.58V46h-1.31V39.15h-1.33V38h1.33V36.51c0-1.37.92-1.87,2.19-1.87a7.75,7.75,0,0,1,1.28.11l-.1,1.12c-.3,0-.88-.06-1.13-.06-.76,0-.93.46-.93,1Z" fill="#1d1d1b"/><path d="M255.59,39.17h-.21c-1.34,0-2.56.54-2.56,2.72V46h-1.31V38h1.31v1.27a2.49,2.49,0,0,1,2.39-1.41h.38Z" fill="#1d1d1b"/><path d="M259.48,46.15a2.5,2.5,0,0,1-2.79-2.42,2.24,2.24,0,0,1,2.13-2.26l2.82-.38v-.51c0-1.22-.78-1.59-1.78-1.59a4.81,4.81,0,0,0-2.3.63l-.5-1a6,6,0,0,1,2.93-.74c1.94,0,3,.87,3,2.55v3.73a1.07,1.07,0,0,0,.66,1.08l-.74.95a1.59,1.59,0,0,1-1.07-1A3,3,0,0,1,259.48,46.15Zm0-3.71c-.89.12-1.46.41-1.46,1.23a1.47,1.47,0,0,0,1.63,1.44c1,0,2-.63,2-1.55V42.12Z" fill="#1d1d1b"/><path d="M264.81,45l.8-.93A3.78,3.78,0,0,0,268,45c.92,0,1.6-.41,1.6-1.2s-.86-1.05-1.95-1.34-2.48-.69-2.48-2.34c0-1.34,1.23-2.32,2.91-2.32a4.32,4.32,0,0,1,2.77,1l-.77.88a2.91,2.91,0,0,0-2-.76c-1.05,0-1.58.46-1.58,1.18s.45.86,1.15,1.06c.42.11.9.25,1.32.38,1.07.34,2,.9,2,2.18,0,1.65-1.46,2.4-3,2.4A4.81,4.81,0,0,1,264.81,45Z" fill="#1d1d1b"/><path d="M275.08,44c0,.53.09,1,1,1a6.78,6.78,0,0,0,1-.1l.14,1.16a12,12,0,0,1-1.43.11c-1.26,0-2-.5-2-1.86V39.15h-1.51V38h1.51V35.39l1.31-.46V38h2.22v1.15h-2.22Z" fill="#1d1d1b"/><path d="M283.16,39.17H283c-1.34,0-2.56.54-2.56,2.72V46h-1.31V38h1.31v1.27a2.49,2.49,0,0,1,2.39-1.41h.38Z" fill="#1d1d1b"/><path d="M291.11,46H289.8v-.91a2.78,2.78,0,0,1-2.34,1.07,2.55,2.55,0,0,1-2.67-2.72V38h1.31v5c0,1.41.72,1.94,1.65,1.94a2,2,0,0,0,2.05-2.21V38h1.31Z" fill="#1d1d1b"/><path d="M294.55,42c0,1.6.78,3,2.32,3a2.3,2.3,0,0,0,2.07-1.35l1.08.63a3.39,3.39,0,0,1-3.15,1.87c-2.21,0-3.68-1.73-3.68-4.15s1.47-4.16,3.68-4.16A3.39,3.39,0,0,1,300,39.71l-1.08.63A2.3,2.3,0,0,0,296.87,39c-1.54,0-2.32,1.36-2.32,3Z" fill="#1d1d1b"/><path d="M304.07,44c0,.53.1,1,1,1a6.78,6.78,0,0,0,1-.1l.14,1.16a11.91,11.91,0,0,1-1.42.11c-1.27,0-2.05-.5-2.05-1.86V39.15h-1.51V38h1.51V35.39l1.31-.46V38h2.22v1.15h-2.22Z" fill="#1d1d1b"/><path d="M314.33,46H313v-.91a2.78,2.78,0,0,1-2.34,1.07A2.55,2.55,0,0,1,308,43.43V38h1.32v5c0,1.41.72,1.94,1.65,1.94a2,2,0,0,0,2-2.21V38h1.31Z" fill="#1d1d1b"/><path d="M321,39.17h-.21c-1.35,0-2.56.54-2.56,2.72V46h-1.31V38h1.31v1.27a2.47,2.47,0,0,1,2.38-1.41H321Z" fill="#1d1d1b"/><path d="M323.37,42.4a2.51,2.51,0,0,0,2.48,2.6,3.19,3.19,0,0,0,2.09-.79l.68.95a4.51,4.51,0,0,1-2.84,1c-2.32,0-3.79-1.75-3.79-4.15s1.42-4.16,3.63-4.16S329,39.59,329,42v.41Zm0-1h4.23c-.05-1.24-.74-2.36-2-2.36A2.33,2.33,0,0,0,323.38,41.35Z" fill="#1d1d1b"/><line x1="286.22" y1="142.03" x2="286.22" y2="244.53" fill="none" stroke="#1d1d1b" stroke-miterlimit="10" stroke-dasharray="2 2"/><polygon points="281.24 243.07 286.22 251.7 291.21 243.07 281.24 243.07" fill="#1d1d1b"/><line x1="338.16" y1="251.7" x2="338.16" y2="148.01" fill="none" stroke="#1d1d1b" stroke-miterlimit="10" stroke-dasharray="2 2"/><polygon points="343.15 149.47 338.16 140.84 333.18 149.47 343.15 149.47" fill="#1d1d1b"/><polyline points="358.46 245.4 358.46 124 472.47 124" fill="none" stroke="#1d1d1b" stroke-miterlimit="10"/><polyline points="306.7 252.7 306.7 84.77 449 84.77" fill="none" stroke="#1d1d1b" stroke-miterlimit="10"/><line x1="447" y1="84.69" x2="465.3" y2="84.69" fill="none" stroke="#1d1d1b" stroke-miterlimit="10"/><polygon points="463.84 89.68 472.47 84.69 463.84 79.71 463.84 89.68" fill="#1d1d1b"/><polygon points="353.48 243.83 358.46 252.47 363.45 243.83 353.48 243.83" fill="#1d1d1b"/><circle cx="285.82" cy="198.89" r="11.54" fill="#e8e6e6" stroke="#1d1d1b" stroke-miterlimit="10"/><path d="M285.16,193v-.11h1.34v11.2h-1.39v-8.19H283v-1.2h.21C284.72,194.67,285.16,194.16,285.16,193Z" fill="#1d1d1b"/><circle cx="338.16" cy="198.89" r="11.54" fill="#e8e6e6" stroke="#1d1d1b" stroke-miterlimit="10"/><path d="M334.58,198.8c0-3,1.2-6.09,4.45-6.09a3.64,3.64,0,0,1,3.33,1.8l-1.38.43a2.2,2.2,0,0,0-2-1.07c-2.11,0-3,2.21-3,4.46l0,0a3.3,3.3,0,0,1,3-1.6,3.53,3.53,0,0,1,3.65,3.65,3.73,3.73,0,0,1-3.85,3.82c-2.37,0-4.2-1.8-4.2-5.15Zm4.15,4.26a2.57,2.57,0,1,0-2.52-2.61A2.47,2.47,0,0,0,338.73,203.06Z" fill="#1d1d1b"/><circle cx="28.17" cy="176.92" r="11.54" fill="none" stroke="#1d1d1b" stroke-miterlimit="10"/><path d="M28.52,170.71v-.11h1.34v11.2H28.47v-8.19H26.4v-1.2h.21C28.08,172.41,28.52,171.89,28.52,170.71Z" fill="#1d1d1b"/><circle cx="437.33" cy="84.69" r="11.54" fill="#fff" stroke="#1d1d1b" stroke-miterlimit="10"/><path d="M434,89.54V88.2c.83-.74,3.19-2.68,4-3.45a4.21,4.21,0,0,0,1.71-3.09,2,2,0,0,0-2.18-2.22c-1.41,0-2.1,1-2.2,2.34L434,81.67a3.66,3.66,0,0,1,7.31.07c0,1.65-.84,2.7-3.35,4.82l-2.05,1.74,5.52,0v1.25Z" fill="#1d1d1b"/><circle cx="561" cy="198.89" r="11.54" fill="#fff" stroke="#1d1d1b" stroke-miterlimit="10"/><path d="M557.81,200.88a2.53,2.53,0,0,0,2.59,1.83c1.63,0,2.38-.94,2.39-2.07s-.92-2-2.62-2h-.5v-1.2H560c1.46,0,2.66-.5,2.66-1.92a1.94,1.94,0,0,0-2.17-2,2.6,2.6,0,0,0-2.47,1.69l-1.26-.48a3.76,3.76,0,0,1,3.75-2.41c2,0,3.58,1.26,3.58,3A2.53,2.53,0,0,1,562,198a2.63,2.63,0,0,1,2.28,2.73c0,2.17-1.84,3.21-3.89,3.2a3.88,3.88,0,0,1-3.92-2.61Z" fill="#1d1d1b"/><circle cx="519" cy="198.89" r="11.54" fill="#fff" stroke="#1d1d1b" stroke-miterlimit="10"/><path d="M519.54,203.75v-2.88l-5.61,0v-1.37l5.08-6.93h2l0,7.16h1.84v1.17H521v2.88Zm0-4.05,0-6-4.34,6Z" fill="#1d1d1b"/><circle cx="437.33" cy="125.18" r="11.54" fill="#fff" stroke="#1d1d1b" stroke-miterlimit="10"/><path d="M433.73,124.08l.61-5.5,6.4,0v1.2l-5.3,0-.35,3.19a3.51,3.51,0,0,1,2.39-.88,3.65,3.65,0,0,1,3.69,3.81,3.85,3.85,0,0,1-4,4,3.61,3.61,0,0,1-3.78-2.68l1.44-.19a2.25,2.25,0,0,0,2.34,1.67,2.51,2.51,0,0,0,2.57-2.74,2.46,2.46,0,0,0-2.56-2.72,2.87,2.87,0,0,0-2.13,1Z" fill="#1d1d1b"/><path d="M509.91,277.17h1.37v11.2h-1.37Z" fill="#1d1d1b"/><path d="M519.29,287.46a2.81,2.81,0,0,1-2.34,1.07c-2.07,0-3.4-1.73-3.4-4.14s1.33-4.17,3.4-4.17a2.81,2.81,0,0,1,2.34,1.08v-4.13h1.31v11.2h-1.31Zm-4.37-3c0,1.66.8,2.94,2.27,2.94A2.07,2.07,0,0,0,519.3,285v-1.3a2.08,2.08,0,0,0-2.11-2.34c-1.47,0-2.27,1.28-2.27,2.95Z" fill="#1d1d1b"/><path d="M524.05,284.79a2.51,2.51,0,0,0,2.48,2.59,3.24,3.24,0,0,0,2.1-.78l.67.94a4.42,4.42,0,0,1-2.83,1c-2.32,0-3.8-1.74-3.8-4.14s1.43-4.17,3.64-4.17,3.41,1.75,3.41,4.15v.42Zm0-1.06h4.22a2.15,2.15,0,0,0-2-2.35A2.31,2.31,0,0,0,524.07,283.73Z" fill="#1d1d1b"/><path d="M531.7,280.38H533v.92a2.76,2.76,0,0,1,2.34-1.08A2.55,2.55,0,0,1,538,283v5.42h-1.31v-5c0-1.41-.72-1.93-1.65-1.93a2.05,2.05,0,0,0-2,2.2v4.74H531.7Z" fill="#1d1d1b"/><path d="M542.58,286.39c0,.53.1,1,1,1a6.76,6.76,0,0,0,1-.09l.14,1.15a11.91,11.91,0,0,1-1.42.11c-1.27,0-2.05-.49-2.05-1.85v-5.14h-1.51v-1.16h1.51v-2.6l1.31-.47v3.07h2.22v1.16h-2.22Z" fill="#1d1d1b"/><path d="M547.25,277.17a1,1,0,0,1,1,1,1,1,0,0,1-1,1,1,1,0,0,1-1-1A1,1,0,0,1,547.25,277.17Zm.64,11.2h-1.31v-8h1.31Z" fill="#1d1d1b"/><path d="M552.52,286.39c0,.53.09,1,1,1a6.62,6.62,0,0,0,1-.09l.15,1.15a12,12,0,0,1-1.43.11c-1.26,0-2-.49-2-1.85v-5.14h-1.5v-1.16h1.5v-2.6l1.32-.47v3.07h2.22v1.16h-2.22Z" fill="#1d1d1b"/><path d="M555.63,280.38h1.49l2,6.6,1.87-6.6h1.48l-2.92,9.19a1.91,1.91,0,0,1-2.11,1.41,9.36,9.36,0,0,1-1.42-.13l.19-1.15a6.1,6.1,0,0,0,1.05.11.9.9,0,0,0,1-.8l.08-.37Z" fill="#1d1d1b"/><path d="M505,296.38v.92a2.79,2.79,0,0,1,2.34-1.08c2.06,0,3.39,1.75,3.39,4.17s-1.33,4.14-3.39,4.14a2.78,2.78,0,0,1-2.34-1.07v3.35h-1.32V296.38Zm4.37,4c0-1.67-.8-2.95-2.28-2.95a2.08,2.08,0,0,0-2.11,2.34V301a2.07,2.07,0,0,0,2.11,2.33c1.48,0,2.28-1.28,2.28-2.94Z" fill="#1d1d1b"/><path d="M516.85,297.55h-.21c-1.34,0-2.56.55-2.56,2.72v4.1h-1.31v-8h1.31v1.27a2.5,2.5,0,0,1,2.39-1.41h.38Z" fill="#1d1d1b"/><path d="M525.24,300.39c0,2.4-1.47,4.14-3.68,4.14s-3.68-1.74-3.68-4.14,1.47-4.17,3.68-4.17S525.24,298,525.24,300.39Zm-1.36,0v-.09c0-1.6-.8-3-2.32-3s-2.32,1.36-2.32,3v.09c0,1.57.8,2.95,2.32,2.95S523.88,302,523.88,300.43Z" fill="#1d1d1b"/><path d="M528.87,304.37l-2.53-8h1.49l1.92,6.78,1.9-6.78h1.49l-2.53,8Z" fill="#1d1d1b"/><path d="M535.56,293.17a1,1,0,0,1,1,1,1,1,0,1,1-1-1Zm.64,11.2h-1.32v-8h1.32Z" fill="#1d1d1b"/><path d="M544,303.46a2.78,2.78,0,0,1-2.34,1.07c-2.06,0-3.39-1.73-3.39-4.14s1.33-4.17,3.39-4.17A2.79,2.79,0,0,1,544,297.3v-4.13h1.31v11.2H544Zm-4.37-3c0,1.66.8,2.94,2.27,2.94A2.08,2.08,0,0,0,544,301v-1.3a2.08,2.08,0,0,0-2.12-2.34c-1.47,0-2.27,1.28-2.27,2.95Z" fill="#1d1d1b"/><path d="M548.79,300.79a2.51,2.51,0,0,0,2.48,2.59,3.26,3.26,0,0,0,2.1-.78l.67.94a4.45,4.45,0,0,1-2.84,1c-2.32,0-3.79-1.74-3.79-4.14s1.43-4.17,3.63-4.17,3.41,1.75,3.41,4.15v.42Zm0-1.06H553c0-1.23-.74-2.35-2-2.35A2.32,2.32,0,0,0,548.8,299.73Z" fill="#1d1d1b"/><path d="M560.52,297.55h-.21c-1.35,0-2.56.55-2.56,2.72v4.1h-1.32v-8h1.32v1.27a2.49,2.49,0,0,1,2.38-1.41h.39Z" fill="#1d1d1b"/><path d="M561.52,303.38l.8-.93a3.81,3.81,0,0,0,2.42,1c.91,0,1.6-.42,1.6-1.2s-.86-1.06-2-1.35-2.48-.69-2.48-2.33c0-1.35,1.23-2.33,2.91-2.33a4.29,4.29,0,0,1,2.77,1l-.77.88a2.93,2.93,0,0,0-2-.77c-1.06,0-1.58.46-1.58,1.18s.44.87,1.15,1.06c.42.11.9.26,1.31.38,1.07.34,1.95.9,1.95,2.18,0,1.65-1.45,2.4-3,2.4A4.83,4.83,0,0,1,561.52,303.38Z" fill="#1d1d1b"/></svg>