<svg id="Layer_1" data-name="Layer 1" xmlns="http://www.w3.org/2000/svg" viewBox="0 0 760 366"><title>1 with outline text</title><g id="Your_infrastructure" data-name="Your infrastructure"><rect id="service_background" data-name="service background" width="315" height="366" fill="#e7e6e5"/><path d="M95.71,13.78H97.2l-3.6,6.63V25H92.22V20.41L88.6,13.78h1.57l2.77,5.33Z" fill="#1d1d1b"/><path d="M104.51,21c0,2.4-1.47,4.15-3.68,4.15S97.15,23.4,97.15,21s1.47-4.16,3.68-4.16S104.51,18.57,104.51,21Zm-1.36.05V21c0-1.6-.8-3-2.32-3s-2.32,1.36-2.32,3v.1c0,1.57.8,2.95,2.32,2.95S103.15,22.62,103.15,21.05Z" fill="#1d1d1b"/><path d="M112.85,25h-1.32v-.91a2.76,2.76,0,0,1-2.33,1.07,2.55,2.55,0,0,1-2.68-2.72V17h1.32v5c0,1.41.72,1.94,1.65,1.94a2,2,0,0,0,2-2.21V17h1.32Z" fill="#1d1d1b"/><path d="M119.49,18.17h-.21c-1.35,0-2.56.54-2.56,2.72V25H115.4V17h1.32v1.27a2.47,2.47,0,0,1,2.38-1.41h.39Z" fill="#1d1d1b"/><path d="M125.69,13.78a1,1,0,1,1-1,1A1,1,0,0,1,125.69,13.78ZM126.33,25H125V17h1.31Z" fill="#1d1d1b"/><path d="M128.89,17h1.31v.91a2.78,2.78,0,0,1,2.34-1.07,2.54,2.54,0,0,1,2.67,2.72V25H133.9V20c0-1.41-.72-1.94-1.65-1.94a2.05,2.05,0,0,0-2.05,2.21V25h-1.31Z" fill="#1d1d1b"/><path d="M139.58,17h1.58v1.15h-1.58V25h-1.31V18.15h-1.33V17h1.33V15.51c0-1.37.93-1.87,2.19-1.87a7.75,7.75,0,0,1,1.28.11l-.1,1.12c-.3,0-.88-.06-1.13-.06-.75,0-.93.46-.93,1Z" fill="#1d1d1b"/><path d="M147.05,18.17h-.21c-1.34,0-2.56.54-2.56,2.72V25H143V17h1.31v1.27a2.49,2.49,0,0,1,2.39-1.41h.38Z" fill="#1d1d1b"/><path d="M150.94,25.15a2.5,2.5,0,0,1-2.78-2.42,2.23,2.23,0,0,1,2.12-2.26l2.82-.38v-.51c0-1.22-.78-1.59-1.78-1.59a4.81,4.81,0,0,0-2.3.63l-.5-1a6,6,0,0,1,2.93-.74c1.94,0,3,.87,3,2.55v3.73a1.07,1.07,0,0,0,.66,1.08l-.74.95a1.59,1.59,0,0,1-1.07-1A3,3,0,0,1,150.94,25.15Zm0-3.71c-.88.12-1.46.41-1.46,1.23a1.47,1.47,0,0,0,1.63,1.44c1,0,2-.63,2-1.55V21.11Z" fill="#1d1d1b"/><path d="M156.27,24l.8-.93a3.78,3.78,0,0,0,2.41,1c.92,0,1.6-.41,1.6-1.2s-.86-1.05-2-1.34-2.48-.69-2.48-2.34c0-1.34,1.23-2.32,2.91-2.32a4.32,4.32,0,0,1,2.77,1l-.76.88a3,3,0,0,0-2-.76c-1.06,0-1.59.46-1.59,1.18s.45.86,1.15,1.06c.42.11.9.25,1.32.38,1.07.34,2,.9,2,2.18,0,1.65-1.46,2.4-3,2.4A4.81,4.81,0,0,1,156.27,24Z" fill="#1d1d1b"/><path d="M166.54,23c0,.53.1,1,1,1a6.78,6.78,0,0,0,1-.1L168.7,25a11.91,11.91,0,0,1-1.42.11c-1.27,0-2.05-.5-2.05-1.86V18.15h-1.51V17h1.51V14.39l1.31-.46V17h2.22v1.15h-2.22Z" fill="#1d1d1b"/><path d="M174.62,18.17h-.21c-1.34,0-2.56.54-2.56,2.72V25h-1.31V17h1.31v1.27a2.49,2.49,0,0,1,2.39-1.41h.38Z" fill="#1d1d1b"/><path d="M182.57,25h-1.31v-.91a2.76,2.76,0,0,1-2.34,1.07,2.55,2.55,0,0,1-2.67-2.72V17h1.31v5c0,1.41.72,1.94,1.65,1.94a2,2,0,0,0,2-2.21V17h1.31Z" fill="#1d1d1b"/><path d="M186,21c0,1.61.78,3,2.32,3a2.3,2.3,0,0,0,2.07-1.35l1.09.63a3.42,3.42,0,0,1-3.16,1.87c-2.21,0-3.68-1.73-3.68-4.15s1.47-4.16,3.68-4.16a3.42,3.42,0,0,1,3.16,1.87l-1.09.63A2.3,2.3,0,0,0,188.33,18c-1.54,0-2.32,1.36-2.32,3Z" fill="#1d1d1b"/><path d="M195.53,23c0,.53.1,1,1,1a6.64,6.64,0,0,0,1-.1l.14,1.16a11.91,11.91,0,0,1-1.42.11c-1.27,0-2.05-.5-2.05-1.86V18.15h-1.51V17h1.51V14.39l1.31-.46V17h2.23v1.15h-2.23Z" fill="#1d1d1b"/><path d="M205.79,25h-1.31v-.91a2.78,2.78,0,0,1-2.34,1.07,2.54,2.54,0,0,1-2.67-2.72V17h1.31v5c0,1.41.72,1.94,1.65,1.94a2,2,0,0,0,2-2.21V17h1.31Z" fill="#1d1d1b"/><path d="M212.43,18.17h-.21c-1.34,0-2.56.54-2.56,2.72V25h-1.31V17h1.31v1.27A2.48,2.48,0,0,1,212,16.86h.39Z" fill="#1d1d1b"/><path d="M214.83,21.4a2.51,2.51,0,0,0,2.48,2.6,3.19,3.19,0,0,0,2.09-.79l.68.95a4.51,4.51,0,0,1-2.84,1c-2.32,0-3.79-1.75-3.79-4.15s1.43-4.16,3.63-4.16,3.41,1.75,3.41,4.15v.41Zm0-1h4.23c0-1.24-.74-2.36-2-2.36A2.33,2.33,0,0,0,214.84,20.35Z" fill="#1d1d1b"/></g><g id="Test_tool" data-name="Test tool"><rect id="your_service" data-name="your service" x="678.76" y="37.74" width="78" height="33.65" fill="#fff" stroke="#1d1d1b" stroke-miterlimit="10"/><path d="M687.44,48.4h7.68v1.23H692v10h-1.38v-10h-3.15Z" fill="#1d1d1b"/><path d="M696.43,56a2.51,2.51,0,0,0,2.48,2.59,3.2,3.2,0,0,0,2.1-.79l.67,1a4.42,4.42,0,0,1-2.83,1c-2.32,0-3.8-1.74-3.8-4.14s1.43-4.17,3.64-4.17,3.41,1.75,3.41,4.15V56Zm0-1.06h4.22c0-1.23-.73-2.35-2-2.35A2.31,2.31,0,0,0,696.45,55Z" fill="#1d1d1b"/><path d="M703.39,58.61l.8-.93a3.81,3.81,0,0,0,2.42,1c.91,0,1.6-.42,1.6-1.2s-.87-1.06-2-1.35-2.48-.69-2.48-2.33c0-1.35,1.23-2.33,2.91-2.33a4.32,4.32,0,0,1,2.77,1l-.77.88a3,3,0,0,0-2-.77c-1.06,0-1.58.46-1.58,1.18s.44.87,1.15,1.06l1.31.38c1.07.34,1.95.9,1.95,2.18,0,1.65-1.45,2.4-3,2.4A4.83,4.83,0,0,1,703.39,58.61Z" fill="#1d1d1b"/><path d="M713.66,57.62c0,.53.1,1,1,1a8.28,8.28,0,0,0,1-.09l.15,1.15a12,12,0,0,1-1.43.11c-1.26,0-2-.49-2-1.86V52.77h-1.5V51.61h1.5V49l1.31-.47v3.07h2.23v1.16h-2.23Z" fill="#1d1d1b"/><path d="M723.6,57.62c0,.53.1,1,1,1a8.44,8.44,0,0,0,1-.09l.14,1.15a11.91,11.91,0,0,1-1.42.11c-1.27,0-2.05-.49-2.05-1.86V52.77h-1.51V51.61h1.51V49l1.31-.47v3.07h2.23v1.16H723.6Z" fill="#1d1d1b"/><path d="M734.48,55.62c0,2.4-1.47,4.14-3.68,4.14s-3.68-1.74-3.68-4.14,1.47-4.17,3.68-4.17S734.48,53.18,734.48,55.62Zm-1.36,0v-.09c0-1.6-.8-3-2.32-3s-2.32,1.36-2.32,3v.09c0,1.57.8,3,2.32,3S733.12,57.23,733.12,55.66Z" fill="#1d1d1b"/><path d="M743.44,55.62c0,2.4-1.47,4.14-3.68,4.14s-3.68-1.74-3.68-4.14,1.47-4.17,3.68-4.17S743.44,53.18,743.44,55.62Zm-1.36,0v-.09c0-1.6-.8-3-2.32-3s-2.32,1.36-2.32,3v.09c0,1.57.8,3,2.32,3S742.08,57.23,742.08,55.66Z" fill="#1d1d1b"/><path d="M745.47,48.4h1.31v9.41c0,.53.16.8.77.8a8,8,0,0,0,.82,0l.13,1.11s-.76.09-1.33.09c-.95,0-1.7-.41-1.7-1.57Z" fill="#1d1d1b"/><rect id="your_service-2" data-name="your service" x="678.76" y="318.74" width="78" height="33.65" fill="#fff" stroke="#1d1d1b" stroke-miterlimit="10"/><path d="M687.44,329.4h7.68v1.23H692v10h-1.38v-10h-3.15Z" fill="#1d1d1b"/><path d="M696.43,337a2.51,2.51,0,0,0,2.48,2.59,3.2,3.2,0,0,0,2.1-.79l.67.95a4.48,4.48,0,0,1-2.83,1c-2.32,0-3.8-1.74-3.8-4.14s1.43-4.17,3.64-4.17,3.41,1.75,3.41,4.15V337Zm0-1.06h4.22c0-1.23-.73-2.35-2-2.35A2.31,2.31,0,0,0,696.45,336Z" fill="#1d1d1b"/><path d="M703.39,339.61l.8-.93a3.81,3.81,0,0,0,2.42,1c.91,0,1.6-.42,1.6-1.2s-.87-1.06-2-1.35-2.48-.69-2.48-2.33c0-1.35,1.23-2.33,2.91-2.33a4.32,4.32,0,0,1,2.77,1l-.77.88a2.91,2.91,0,0,0-2-.77c-1.06,0-1.58.46-1.58,1.18s.44.87,1.15,1.06l1.31.38c1.07.34,1.95.9,1.95,2.18,0,1.65-1.45,2.4-3,2.4A4.83,4.83,0,0,1,703.39,339.61Z" fill="#1d1d1b"/><path d="M713.66,338.62c0,.52.1,1,1,1a8.28,8.28,0,0,0,1-.09l.15,1.15a12,12,0,0,1-1.43.11c-1.26,0-2-.49-2-1.86v-5.13h-1.5v-1.16h1.5V330l1.31-.46v3.07h2.23v1.16h-2.23Z" fill="#1d1d1b"/><path d="M723.6,338.62c0,.52.1,1,1,1a8.44,8.44,0,0,0,1-.09l.14,1.15a11.91,11.91,0,0,1-1.42.11c-1.27,0-2.05-.49-2.05-1.86v-5.13h-1.51v-1.16h1.51V330l1.31-.46v3.07h2.23v1.16H723.6Z" fill="#1d1d1b"/><path d="M734.48,336.62c0,2.4-1.47,4.14-3.68,4.14s-3.68-1.74-3.68-4.14,1.47-4.17,3.68-4.17S734.48,334.18,734.48,336.62Zm-1.36,0v-.09c0-1.6-.8-3-2.32-3s-2.32,1.36-2.32,3v.09c0,1.57.8,2.95,2.32,2.95S733.12,338.23,733.12,336.66Z" fill="#1d1d1b"/><path d="M743.44,336.62c0,2.4-1.47,4.14-3.68,4.14s-3.68-1.74-3.68-4.14,1.47-4.17,3.68-4.17S743.44,334.18,743.44,336.62Zm-1.36,0v-.09c0-1.6-.8-3-2.32-3s-2.32,1.36-2.32,3v.09c0,1.57.8,2.95,2.32,2.95S742.08,338.23,742.08,336.66Z" fill="#1d1d1b"/><path d="M745.47,329.4h1.31v9.41c0,.53.16.8.77.8a8,8,0,0,0,.82-.05l.13,1.11s-.76.09-1.33.09c-.95,0-1.7-.42-1.7-1.57Z" fill="#1d1d1b"/><line x1="717.76" y1="72.01" x2="717.76" y2="76.01" fill="none" stroke="#1d1d1b" stroke-miterlimit="10"/><line x1="717.76" y1="84.21" x2="717.75" y2="309.89" fill="none" stroke="#1d1d1b" stroke-miterlimit="10" stroke-dasharray="8.21 8.21"/><line x1="717.75" y1="313.99" x2="717.75" y2="317.99" fill="none" stroke="#1d1d1b" stroke-miterlimit="10"/></g><g id="Browser"><rect id="your_service-3" data-name="your service" x="451.3" y="37.74" width="78" height="33.65" fill="#fff" stroke="#1d1d1b" stroke-miterlimit="10"/><path d="M467.23,48.4a2.84,2.84,0,0,1,3.1,2.8,2.78,2.78,0,0,1-1.76,2.51A2.77,2.77,0,0,1,471,56.43c0,2.19-1.76,3.17-3.84,3.17h-4.28V48.4Zm1.71,3c0-1-.62-1.84-2.22-1.84h-2.47v3.71h2.47c1.6,0,2.22-.85,2.22-1.82Zm-1.78,3.06h-2.91v4h2.91c1.32,0,2.4-.59,2.4-2S468.48,54.45,467.16,54.45Z" fill="#1d1d1b"/><path d="M477.15,52.78h-.21c-1.35,0-2.56.55-2.56,2.72v4.1h-1.31v-8h1.31v1.27a2.47,2.47,0,0,1,2.38-1.41h.39Z" fill="#1d1d1b"/><path d="M485.53,55.62c0,2.4-1.47,4.14-3.68,4.14s-3.68-1.74-3.68-4.14,1.47-4.17,3.68-4.17S485.53,53.18,485.53,55.62Zm-1.36,0v-.09c0-1.6-.8-3-2.32-3s-2.32,1.36-2.32,3v.09c0,1.57.8,3,2.32,3S484.17,57.23,484.17,55.66Z" fill="#1d1d1b"/><path d="M494.45,58.05l1.44-6.44h1.39l-1.95,8h-1.69L492,53.2l-1.65,6.4h-1.62l-1.93-8h1.4l1.4,6.44,1.68-6.44h1.49Z" fill="#1d1d1b"/><path d="M498.44,58.61l.8-.93a3.81,3.81,0,0,0,2.42,1c.91,0,1.6-.42,1.6-1.2s-.86-1.06-1.95-1.35-2.48-.69-2.48-2.33c0-1.35,1.23-2.33,2.91-2.33a4.29,4.29,0,0,1,2.77,1l-.77.88a2.93,2.93,0,0,0-2-.77c-1.06,0-1.58.46-1.58,1.18s.44.87,1.15,1.06c.42.11.9.26,1.31.38,1.07.34,2,.9,2,2.18,0,1.65-1.45,2.4-3,2.4A4.83,4.83,0,0,1,498.44,58.61Z" fill="#1d1d1b"/><path d="M507.55,56A2.51,2.51,0,0,0,510,58.61a3.19,3.19,0,0,0,2.09-.79l.68,1a4.45,4.45,0,0,1-2.84,1c-2.32,0-3.79-1.74-3.79-4.14s1.42-4.17,3.63-4.17,3.41,1.75,3.41,4.15V56Zm0-1.06h4.23c-.05-1.23-.74-2.35-2-2.35A2.32,2.32,0,0,0,507.56,55Z" fill="#1d1d1b"/><path d="M519.28,52.78h-.21c-1.35,0-2.56.55-2.56,2.72v4.1h-1.32v-8h1.32v1.27a2.47,2.47,0,0,1,2.38-1.41h.39Z" fill="#1d1d1b"/><rect id="your_service-4" data-name="your service" x="451.3" y="318.74" width="78" height="33.65" fill="#fff" stroke="#1d1d1b" stroke-miterlimit="10"/><path d="M467.23,329.4a2.84,2.84,0,0,1,3.1,2.8,2.78,2.78,0,0,1-1.76,2.51,2.77,2.77,0,0,1,2.42,2.72c0,2.19-1.76,3.17-3.84,3.17h-4.28V329.4Zm1.71,3c0-1-.62-1.84-2.22-1.84h-2.47v3.71h2.47c1.6,0,2.22-.85,2.22-1.82Zm-1.78,3.06h-2.91v4h2.91c1.32,0,2.4-.59,2.4-2S468.48,335.45,467.16,335.45Z" fill="#1d1d1b"/><path d="M477.15,333.78h-.21c-1.35,0-2.56.55-2.56,2.72v4.1h-1.31v-8h1.31v1.27a2.47,2.47,0,0,1,2.38-1.41h.39Z" fill="#1d1d1b"/><path d="M485.53,336.62c0,2.4-1.47,4.14-3.68,4.14s-3.68-1.74-3.68-4.14,1.47-4.17,3.68-4.17S485.53,334.18,485.53,336.62Zm-1.36,0v-.09c0-1.6-.8-3-2.32-3s-2.32,1.36-2.32,3v.09c0,1.57.8,2.95,2.32,2.95S484.17,338.23,484.17,336.66Z" fill="#1d1d1b"/><path d="M494.45,339.05l1.44-6.44h1.39l-1.95,8h-1.69L492,334.2l-1.65,6.4h-1.62l-1.93-8h1.4l1.4,6.44,1.68-6.44h1.49Z" fill="#1d1d1b"/><path d="M498.44,339.61l.8-.93a3.81,3.81,0,0,0,2.42,1c.91,0,1.6-.42,1.6-1.2s-.86-1.06-1.95-1.35-2.48-.69-2.48-2.33c0-1.35,1.23-2.33,2.91-2.33a4.29,4.29,0,0,1,2.77,1l-.77.88a2.89,2.89,0,0,0-2-.77c-1.06,0-1.58.46-1.58,1.18s.44.87,1.15,1.06c.42.11.9.26,1.31.38,1.07.34,2,.9,2,2.18,0,1.65-1.45,2.4-3,2.4A4.83,4.83,0,0,1,498.44,339.61Z" fill="#1d1d1b"/><path d="M507.55,337a2.51,2.51,0,0,0,2.48,2.59,3.19,3.19,0,0,0,2.09-.79l.68.95a4.51,4.51,0,0,1-2.84,1c-2.32,0-3.79-1.74-3.79-4.14s1.42-4.17,3.63-4.17,3.41,1.75,3.41,4.15V337Zm0-1.06h4.23c-.05-1.23-.74-2.35-2-2.35A2.32,2.32,0,0,0,507.56,336Z" fill="#1d1d1b"/><path d="M519.28,333.78h-.21c-1.35,0-2.56.55-2.56,2.72v4.1h-1.32v-8h1.32v1.27a2.47,2.47,0,0,1,2.38-1.41h.39Z" fill="#1d1d1b"/><line x1="490.3" y1="72" x2="490.3" y2="76" fill="none" stroke="#1d1d1b" stroke-miterlimit="10"/><line x1="490.3" y1="84.21" x2="490.29" y2="309.88" fill="none" stroke="#1d1d1b" stroke-miterlimit="10" stroke-dasharray="8.21 8.21"/><line x1="490.29" y1="313.99" x2="490.29" y2="317.99" fill="none" stroke="#1d1d1b" stroke-miterlimit="10"/></g><g id="Service"><rect id="your_service-5" data-name="your service" x="220.03" y="37.74" width="82.38" height="33.65" fill="#fff" stroke="#1d1d1b" stroke-miterlimit="10"/><path d="M236.8,57.1A4.07,4.07,0,0,0,240,58.58c1.36,0,2.54-.69,2.54-2a1.63,1.63,0,0,0-1-1.57c-1.12-.53-2.87-.56-4.07-1.29a2.57,2.57,0,0,1-1.31-2.34c0-1.73,1.44-3.11,3.82-3.11a5.09,5.09,0,0,1,3.7,1.52l-1,.82a3.69,3.69,0,0,0-2.69-1.15c-1.36,0-2.43.67-2.43,1.87,0,1.82,2.64,1.62,4.58,2.47a2.73,2.73,0,0,1,1.87,2.65c0,2.23-2,3.33-4.06,3.33a5.39,5.39,0,0,1-4.1-1.74Z" fill="#1d1d1b"/><path d="M246.93,56a2.51,2.51,0,0,0,2.48,2.59,3.19,3.19,0,0,0,2.09-.79l.68,1a4.45,4.45,0,0,1-2.84,1c-2.32,0-3.79-1.74-3.79-4.14s1.42-4.17,3.63-4.17,3.41,1.75,3.41,4.15V56Zm0-1.06h4.23c0-1.23-.74-2.35-2-2.35A2.32,2.32,0,0,0,246.94,55Z" fill="#1d1d1b"/><path d="M258.66,52.78h-.21c-1.35,0-2.56.55-2.56,2.72v4.1h-1.32v-8h1.32v1.27a2.47,2.47,0,0,1,2.38-1.41h.39Z" fill="#1d1d1b"/><path d="M262.06,59.6l-2.53-8H261l1.92,6.78,1.91-6.78h1.49l-2.53,8Z" fill="#1d1d1b"/><path d="M268.75,48.4a1,1,0,0,1,1,1,1,1,0,0,1-1,1,1,1,0,0,1-1-1A1,1,0,0,1,268.75,48.4Zm.64,11.2h-1.31v-8h1.31Z" fill="#1d1d1b"/><path d="M272.83,55.65c0,1.6.78,3,2.32,3a2.28,2.28,0,0,0,2.07-1.35l1.08.63a3.37,3.37,0,0,1-3.15,1.87c-2.21,0-3.68-1.73-3.68-4.14s1.47-4.17,3.68-4.17a3.38,3.38,0,0,1,3.15,1.88l-1.08.62a2.29,2.29,0,0,0-2.07-1.34c-1.54,0-2.32,1.36-2.32,3Z" fill="#1d1d1b"/><path d="M281.1,56a2.51,2.51,0,0,0,2.48,2.59,3.2,3.2,0,0,0,2.1-.79l.67,1a4.42,4.42,0,0,1-2.83,1c-2.32,0-3.79-1.74-3.79-4.14s1.42-4.17,3.63-4.17,3.41,1.75,3.41,4.15V56Zm0-1.06h4.22a2.15,2.15,0,0,0-2-2.35A2.31,2.31,0,0,0,281.12,55Z" fill="#1d1d1b"/><rect id="your_service-6" data-name="your service" x="220.03" y="318.74" width="82.38" height="33.65" fill="#fff" stroke="#1d1d1b" stroke-miterlimit="10"/><path d="M236.8,338.1a4.07,4.07,0,0,0,3.17,1.48c1.36,0,2.54-.69,2.54-2a1.63,1.63,0,0,0-1-1.57c-1.12-.53-2.87-.56-4.07-1.29a2.57,2.57,0,0,1-1.31-2.34c0-1.73,1.44-3.11,3.82-3.11a5.09,5.09,0,0,1,3.7,1.52l-1,.82a3.69,3.69,0,0,0-2.69-1.15c-1.36,0-2.43.67-2.43,1.87,0,1.82,2.64,1.62,4.58,2.47a2.73,2.73,0,0,1,1.87,2.65c0,2.23-2,3.33-4.06,3.33a5.39,5.39,0,0,1-4.1-1.74Z" fill="#1d1d1b"/><path d="M246.93,337a2.51,2.51,0,0,0,2.48,2.59,3.19,3.19,0,0,0,2.09-.79l.68.95a4.51,4.51,0,0,1-2.84,1c-2.32,0-3.79-1.74-3.79-4.14s1.42-4.17,3.63-4.17,3.41,1.75,3.41,4.15V337Zm0-1.06h4.23c0-1.23-.74-2.35-2-2.35A2.32,2.32,0,0,0,246.94,336Z" fill="#1d1d1b"/><path d="M258.66,333.78h-.21c-1.35,0-2.56.55-2.56,2.72v4.1h-1.32v-8h1.32v1.27a2.47,2.47,0,0,1,2.38-1.41h.39Z" fill="#1d1d1b"/><path d="M262.06,340.6l-2.53-8H261l1.92,6.77,1.91-6.77h1.49l-2.53,8Z" fill="#1d1d1b"/><path d="M268.75,329.4a1,1,0,1,1-1,1A1,1,0,0,1,268.75,329.4Zm.64,11.2h-1.31v-8h1.31Z" fill="#1d1d1b"/><path d="M272.83,336.65c0,1.6.78,3,2.32,3a2.28,2.28,0,0,0,2.07-1.35l1.08.63a3.37,3.37,0,0,1-3.15,1.87c-2.21,0-3.68-1.73-3.68-4.14s1.47-4.17,3.68-4.17a3.38,3.38,0,0,1,3.15,1.88l-1.08.62a2.29,2.29,0,0,0-2.07-1.34c-1.54,0-2.32,1.36-2.32,3Z" fill="#1d1d1b"/><path d="M281.1,337a2.51,2.51,0,0,0,2.48,2.59,3.2,3.2,0,0,0,2.1-.79l.67.95a4.48,4.48,0,0,1-2.83,1c-2.32,0-3.79-1.74-3.79-4.14s1.42-4.17,3.63-4.17,3.41,1.75,3.41,4.15V337Zm0-1.06h4.22a2.15,2.15,0,0,0-2-2.35A2.31,2.31,0,0,0,281.12,336Z" fill="#1d1d1b"/><line x1="261.23" y1="72" x2="261.23" y2="76" fill="none" stroke="#1d1d1b" stroke-miterlimit="10"/><line x1="261.23" y1="84.2" x2="261.22" y2="309.88" fill="none" stroke="#1d1d1b" stroke-miterlimit="10" stroke-dasharray="8.21 8.21"/><line x1="261.22" y1="313.98" x2="261.22" y2="317.98" fill="none" stroke="#1d1d1b" stroke-miterlimit="10"/></g><g id="VSP"><rect id="your_service-7" data-name="your service" x="12.43" y="37.74" width="59.38" height="33.65" fill="#fff" stroke="#1d1d1b" stroke-miterlimit="10"/><path d="M31.79,59.6l-3.3-11.2H30l2.74,9.92,2.75-9.92h1.48L33.64,59.6Z" fill="#1d1d1b"/><path d="M39.19,57.1a4.09,4.09,0,0,0,3.17,1.48c1.36,0,2.55-.69,2.55-2A1.62,1.62,0,0,0,43.85,55c-1.12-.53-2.86-.56-4.06-1.29a2.58,2.58,0,0,1-1.32-2.34c0-1.73,1.44-3.11,3.83-3.11A5.11,5.11,0,0,1,46,49.77l-1,.82a3.69,3.69,0,0,0-2.69-1.15c-1.36,0-2.43.67-2.43,1.87,0,1.82,2.64,1.62,4.57,2.47a2.74,2.74,0,0,1,1.88,2.65c0,2.23-2,3.33-4.07,3.33A5.4,5.4,0,0,1,38.15,58Z" fill="#1d1d1b"/><path d="M48.76,48.4H52.7a3.31,3.31,0,0,1,3.47,3.52,3.42,3.42,0,0,1-3.63,3.5h-2.4V59.6H48.76Zm3.65,1.18H50.14v4.66h2.27A2.16,2.16,0,0,0,54.72,52v-.08A2.19,2.19,0,0,0,52.41,49.58Z" fill="#1d1d1b"/><rect id="your_service-8" data-name="your service" x="12.43" y="318.74" width="59.38" height="33.65" fill="#fff" stroke="#1d1d1b" stroke-miterlimit="10"/><path d="M31.79,340.6l-3.3-11.2H30l2.74,9.92,2.75-9.92h1.48l-3.29,11.2Z" fill="#1d1d1b"/><path d="M39.19,338.1a4.09,4.09,0,0,0,3.17,1.48c1.36,0,2.55-.69,2.55-2A1.62,1.62,0,0,0,43.85,336c-1.12-.53-2.86-.56-4.06-1.29a2.58,2.58,0,0,1-1.32-2.34c0-1.73,1.44-3.11,3.83-3.11a5.11,5.11,0,0,1,3.7,1.52l-1,.82a3.69,3.69,0,0,0-2.69-1.15c-1.36,0-2.43.67-2.43,1.87,0,1.82,2.64,1.62,4.57,2.47a2.74,2.74,0,0,1,1.88,2.65c0,2.23-2,3.33-4.07,3.33a5.4,5.4,0,0,1-4.1-1.74Z" fill="#1d1d1b"/><path d="M48.76,329.4H52.7a3.31,3.31,0,0,1,3.47,3.52,3.42,3.42,0,0,1-3.63,3.5h-2.4v4.18H48.76Zm3.65,1.18H50.14v4.66h2.27A2.16,2.16,0,0,0,54.72,333v-.08A2.19,2.19,0,0,0,52.41,330.58Z" fill="#1d1d1b"/><line x1="42.13" y1="71.99" x2="42.13" y2="75.99" fill="none" stroke="#1d1d1b" stroke-miterlimit="10"/><line x1="42.13" y1="84.2" x2="42.12" y2="309.87" fill="none" stroke="#1d1d1b" stroke-miterlimit="10" stroke-dasharray="8.21 8.21"/><line x1="42.12" y1="313.98" x2="42.12" y2="317.98" fill="none" stroke="#1d1d1b" stroke-miterlimit="10"/></g><g id="_5_Submit_HMTL_form" data-name="5 Submit HMTL form"><path d="M545.58,274.15a3.66,3.66,0,0,0,2.84,1.29c1.22,0,2.28-.6,2.28-1.76a1.43,1.43,0,0,0-1-1.38c-1-.46-2.57-.49-3.64-1.13a2.23,2.23,0,0,1-1.18-2.05c0-1.51,1.29-2.71,3.43-2.71a4.58,4.58,0,0,1,3.31,1.33l-.9.71a3.33,3.33,0,0,0-2.41-1c-1.22,0-2.18.59-2.18,1.64,0,1.6,2.37,1.42,4.1,2.16a2.41,2.41,0,0,1,1.68,2.32c0,1.95-1.81,2.92-3.64,2.92a4.91,4.91,0,0,1-3.68-1.53Z" fill="#1d1d1b"/><path d="M559.36,276.34h-1.18v-.8a2.5,2.5,0,0,1-2.09.94,2.26,2.26,0,0,1-2.4-2.38v-4.75h1.18v4.38c0,1.23.64,1.7,1.47,1.7a1.77,1.77,0,0,0,1.84-1.94v-4.14h1.18Z" fill="#1d1d1b"/><path d="M562.82,276.34h-1.17v-9.81h1.17v3.62a2.53,2.53,0,0,1,2.1-.94c1.85,0,3,1.52,3,3.64s-1.19,3.63-3,3.63a2.56,2.56,0,0,1-2.1-.94Zm3.92-3.53c0-1.46-.72-2.58-2-2.58a1.84,1.84,0,0,0-1.89,2v1.14a1.84,1.84,0,0,0,1.89,2c1.32,0,2-1.12,2-2.57Z" fill="#1d1d1b"/><path d="M575.2,276.34H574v-4.4c0-1.25-.64-1.68-1.43-1.68s-1.58.59-1.58,1.95v4.13h-1.18v-7H571v.8a2.2,2.2,0,0,1,1.88-.94,2.14,2.14,0,0,1,1.94,1.16,2.47,2.47,0,0,1,2.18-1.16,2.28,2.28,0,0,1,2.41,2.34v4.79h-1.18v-4.4c0-1.25-.69-1.68-1.46-1.68s-1.58.59-1.58,1.95Z" fill="#1d1d1b"/><path d="M582.25,266.53a.86.86,0,1,1-.87.86A.86.86,0,0,1,582.25,266.53Zm.58,9.81h-1.18v-7h1.18Z" fill="#1d1d1b"/><path d="M587,274.6c0,.46.08.85.92.85a6.84,6.84,0,0,0,.89-.08l.13,1a10.56,10.56,0,0,1-1.28.1c-1.13,0-1.84-.44-1.84-1.63v-4.49h-1.35v-1h1.35v-2.29l1.18-.4v2.69h2v1h-2Z" fill="#1d1d1b"/><path d="M601.14,271.83h-5.3v4.51h-1.23v-9.81h1.23v4.26h5.3v-4.26h1.23v9.81h-1.23Z" fill="#1d1d1b"/><path d="M604.19,266.53h6.88v1.08h-2.82v8.73H607v-8.73h-2.82Z" fill="#1d1d1b"/><path d="M620.71,266.53h1.53v9.81H621V268l-3.42,4.51h0L614.14,268v8.3h-1.25v-9.81h1.53l3.15,4.16Z" fill="#1d1d1b"/><path d="M625.13,266.53h1.24v8.73h4v1.08h-5.25Z" fill="#1d1d1b"/><path d="M636.76,269.35h1.42v1h-1.42v6h-1.17v-6H634.4v-1h1.19V268c0-1.2.83-1.63,2-1.63a8.42,8.42,0,0,1,1.15.09l-.09,1c-.27,0-.79-.05-1-.05a.74.74,0,0,0-.83.84Z" fill="#1d1d1b"/><path d="M645.85,272.85a3.31,3.31,0,1,1-3.29-3.64C644.53,269.21,645.85,270.72,645.85,272.85Zm-1.22,0v-.08c0-1.4-.71-2.59-2.07-2.59s-2.08,1.19-2.08,2.59v.08c0,1.37.71,2.58,2.08,2.58S644.63,274.26,644.63,272.89Z" fill="#1d1d1b"/><path d="M651.37,270.37h-.18c-1.21,0-2.3.48-2.3,2.38v3.59h-1.17v-7h1.17v1.1a2.26,2.26,0,0,1,2.14-1.23h.34Z" fill="#1d1d1b"/><path d="M658.25,276.34h-1.17v-4.4c0-1.25-.65-1.68-1.44-1.68s-1.57.59-1.57,1.95v4.13h-1.18v-7h1.18v.8a2.2,2.2,0,0,1,1.88-.94,2.12,2.12,0,0,1,1.93,1.16,2.48,2.48,0,0,1,2.18-1.16,2.28,2.28,0,0,1,2.41,2.34v4.79H661.3v-4.4c0-1.25-.69-1.68-1.47-1.68s-1.58.59-1.58,1.95Z" fill="#1d1d1b"/><line x1="490.25" y1="285" x2="710.07" y2="285" fill="none" stroke="#1d1d1b" stroke-miterlimit="10" stroke-width="2"/><polygon points="708.62 289.99 717.25 285 708.62 280.01 708.62 289.99" fill="#1d1d1b"/></g><g id="_4_Provide_authentication_request_in_HTML_form" data-name="4 Provide authentication request in HTML form"><path d="M304.81,216.53h3.45a2.91,2.91,0,0,1,3,3.08,3,3,0,0,1-3.18,3.07H306v3.66h-1.21Zm3.2,1h-2v4.07h2a1.88,1.88,0,0,0,2-2v-.08A1.9,1.9,0,0,0,308,217.57Z" fill="#1d1d1b"/><path d="M316.43,220.37h-.18c-1.17,0-2.24.48-2.24,2.38v3.59h-1.15v-7H314v1.1a2.18,2.18,0,0,1,2.09-1.23h.33Z" fill="#1d1d1b"/><path d="M323.77,222.85c0,2.1-1.29,3.63-3.22,3.63s-3.22-1.53-3.22-3.63,1.29-3.64,3.22-3.64S323.77,220.72,323.77,222.85Zm-1.19,0v-.08c0-1.4-.7-2.59-2-2.59s-2,1.19-2,2.59v.08c0,1.37.7,2.58,2,2.58S322.58,224.26,322.58,222.89Z" fill="#1d1d1b"/><path d="M327,226.34l-2.22-7H326l1.68,5.92,1.66-5.92h1.31l-2.22,7Z" fill="#1d1d1b"/><path d="M332.8,216.53a.86.86,0,0,1,.84.86.85.85,0,1,1-1.7,0A.86.86,0,0,1,332.8,216.53Zm.56,9.81h-1.15v-7h1.15Z" fill="#1d1d1b"/><path d="M340.21,225.54a2.47,2.47,0,0,1-2,.94c-1.81,0-3-1.52-3-3.63s1.16-3.64,3-3.64a2.45,2.45,0,0,1,2,.94v-3.62h1.15v9.81h-1.15Zm-3.83-2.66c0,1.45.7,2.57,2,2.57a1.82,1.82,0,0,0,1.85-2v-1.14a1.82,1.82,0,0,0-1.85-2c-1.29,0-2,1.12-2,2.58Z" fill="#1d1d1b"/><path d="M344.38,223.2a2.19,2.19,0,0,0,2.17,2.27,2.81,2.81,0,0,0,1.83-.69l.59.83a3.93,3.93,0,0,1-2.48.87,3.31,3.31,0,0,1-3.32-3.63c0-2.13,1.25-3.64,3.18-3.64s3,1.52,3,3.62v.37Zm0-.93h3.7a1.89,1.89,0,0,0-1.75-2.05A2,2,0,0,0,344.39,222.27Z" fill="#1d1d1b"/><path d="M356.65,226.48a2.19,2.19,0,0,1-2.43-2.12,2,2,0,0,1,1.86-2l2.46-.34v-.45c0-1.06-.68-1.38-1.55-1.38a4.34,4.34,0,0,0-2,.54l-.43-.91a5.26,5.26,0,0,1,2.56-.64c1.7,0,2.59.75,2.59,2.22v3.27a1,1,0,0,0,.58,1l-.65.83a1.4,1.4,0,0,1-.93-.84A2.64,2.64,0,0,1,356.65,226.48Zm0-3.25c-.77.11-1.28.36-1.28,1.08a1.29,1.29,0,0,0,1.43,1.26,1.59,1.59,0,0,0,1.72-1.36V223Z" fill="#1d1d1b"/><path d="M367.39,226.34h-1.14v-.8a2.44,2.44,0,0,1-2.05.94,2.23,2.23,0,0,1-2.34-2.38v-4.75H363v4.38c0,1.23.63,1.7,1.44,1.7a1.76,1.76,0,0,0,1.8-1.94v-4.14h1.14Z" fill="#1d1d1b"/><path d="M371.44,224.6c0,.46.08.85.89.85a6.4,6.4,0,0,0,.87-.08l.13,1a10,10,0,0,1-1.25.1c-1.1,0-1.79-.44-1.79-1.63v-4.49H369v-1h1.32v-2.29l1.15-.4v2.69h1.94v1h-1.94Z" fill="#1d1d1b"/><path d="M374.94,216.53h1.15v3.62a2.38,2.38,0,0,1,2-.94,2.22,2.22,0,0,1,2.34,2.38v4.75h-1.15V222c0-1.23-.63-1.69-1.44-1.69a1.79,1.79,0,0,0-1.79,1.93v4.15h-1.15Z" fill="#1d1d1b"/><path d="M383.44,223.2a2.19,2.19,0,0,0,2.17,2.27,2.81,2.81,0,0,0,1.83-.69l.59.83a3.93,3.93,0,0,1-2.48.87,3.31,3.31,0,0,1-3.32-3.63c0-2.13,1.25-3.64,3.18-3.64s3,1.52,3,3.62v.37Zm0-.93h3.7a1.89,1.89,0,0,0-1.75-2.05A2,2,0,0,0,383.45,222.27Z" fill="#1d1d1b"/><path d="M390.13,219.35h1.15v.8a2.38,2.38,0,0,1,2-.94,2.22,2.22,0,0,1,2.34,2.38v4.75h-1.15V222c0-1.23-.63-1.69-1.44-1.69a1.79,1.79,0,0,0-1.79,1.93v4.15h-1.15Z" fill="#1d1d1b"/><path d="M399.65,224.6c0,.46.08.85.89.85a6.4,6.4,0,0,0,.87-.08l.13,1a10,10,0,0,1-1.25.1c-1.1,0-1.79-.44-1.79-1.63v-4.49h-1.32v-1h1.32v-2.29l1.15-.4v2.69h1.94v1h-1.94Z" fill="#1d1d1b"/><path d="M403.74,216.53a.86.86,0,0,1,.84.86.85.85,0,1,1-1.7,0A.86.86,0,0,1,403.74,216.53Zm.55,9.81h-1.14v-7h1.14Z" fill="#1d1d1b"/><path d="M407.3,222.88c0,1.4.69,2.59,2,2.59a2,2,0,0,0,1.8-1.18l1,.55a3,3,0,0,1-2.76,1.64c-1.94,0-3.23-1.52-3.23-3.63s1.29-3.64,3.23-3.64a3,3,0,0,1,2.76,1.64l-1,.54a2,2,0,0,0-1.8-1.17c-1.35,0-2,1.19-2,2.59Z" fill="#1d1d1b"/><path d="M415.69,226.48a2.19,2.19,0,0,1-2.44-2.12,2,2,0,0,1,1.87-2l2.46-.34v-.45c0-1.06-.68-1.38-1.55-1.38a4.31,4.31,0,0,0-2,.54l-.43-.91a5.26,5.26,0,0,1,2.56-.64c1.69,0,2.59.75,2.59,2.22v3.27a.94.94,0,0,0,.58,1l-.65.83a1.42,1.42,0,0,1-.94-.84A2.6,2.6,0,0,1,415.69,226.48Zm0-3.25c-.77.11-1.28.36-1.28,1.08a1.29,1.29,0,0,0,1.43,1.26c.85,0,1.72-.55,1.72-1.36V223Z" fill="#1d1d1b"/><path d="M422.76,224.6c0,.46.09.85.9.85a6.4,6.4,0,0,0,.87-.08l.12,1a10,10,0,0,1-1.24.1c-1.11,0-1.8-.44-1.8-1.63v-4.49H420.3v-1h1.31v-2.29l1.15-.4v2.69h1.95v1h-1.95Z" fill="#1d1d1b"/><path d="M426.85,216.53a.86.86,0,0,1,.84.86.85.85,0,1,1-1.7,0A.86.86,0,0,1,426.85,216.53Zm.56,9.81h-1.15v-7h1.15Z" fill="#1d1d1b"/><path d="M435.67,222.85c0,2.1-1.29,3.63-3.22,3.63s-3.22-1.53-3.22-3.63,1.29-3.64,3.22-3.64S435.67,220.72,435.67,222.85Zm-1.19,0v-.08c0-1.4-.7-2.59-2-2.59s-2,1.19-2,2.59v.08c0,1.37.7,2.58,2,2.58S434.48,224.26,434.48,222.89Z" fill="#1d1d1b"/><path d="M437.49,219.35h1.15v.8a2.38,2.38,0,0,1,2-.94,2.22,2.22,0,0,1,2.34,2.38v4.75h-1.15V222c0-1.23-.63-1.69-1.44-1.69a1.79,1.79,0,0,0-1.79,1.93v4.15h-1.15Z" fill="#1d1d1b"/><path d="M313,236.37h-.18c-1.18,0-2.24.48-2.24,2.38v3.59h-1.15v-7h1.15v1.1a2.18,2.18,0,0,1,2.09-1.23H313Z" fill="#1d1d1b"/><path d="M315.06,239.2a2.19,2.19,0,0,0,2.17,2.27,2.82,2.82,0,0,0,1.84-.69l.58.83a3.9,3.9,0,0,1-2.47.87,3.31,3.31,0,0,1-3.32-3.63c0-2.13,1.24-3.64,3.18-3.64s3,1.52,3,3.62v.37Zm0-.93h3.7a1.89,1.89,0,0,0-1.75-2.05A2,2,0,0,0,315.07,238.27Z" fill="#1d1d1b"/><path d="M327.51,235.35v9.12h-1.15v-2.93a2.47,2.47,0,0,1-2,.94c-1.81,0-3-1.52-3-3.63s1.16-3.64,3-3.64a2.44,2.44,0,0,1,2,.94v-.8Zm-5,3.53c0,1.45.7,2.57,2,2.57a1.82,1.82,0,0,0,1.85-2v-1.14a1.82,1.82,0,0,0-1.85-2c-1.29,0-2,1.12-2,2.58Z" fill="#1d1d1b"/><path d="M335.22,242.34h-1.15v-.8a2.41,2.41,0,0,1-2,.94,2.23,2.23,0,0,1-2.34-2.38v-4.75h1.15v4.38c0,1.23.63,1.7,1.44,1.7a1.75,1.75,0,0,0,1.79-1.94v-4.14h1.15Z" fill="#1d1d1b"/><path d="M338.24,239.2a2.2,2.2,0,0,0,2.18,2.27,2.81,2.81,0,0,0,1.83-.69l.59.83a3.93,3.93,0,0,1-2.48.87,3.31,3.31,0,0,1-3.32-3.63c0-2.13,1.25-3.64,3.18-3.64s3,1.52,3,3.62v.37Zm0-.93H342c0-1.07-.65-2.05-1.75-2.05A2,2,0,0,0,338.26,238.27Z" fill="#1d1d1b"/><path d="M344.33,241.47l.7-.81a3.37,3.37,0,0,0,2.12.85c.8,0,1.4-.36,1.4-1s-.76-.92-1.71-1.18-2.17-.6-2.17-2c0-1.18,1.08-2,2.55-2a3.74,3.74,0,0,1,2.42.87l-.67.77a2.56,2.56,0,0,0-1.72-.68c-.93,0-1.39.41-1.39,1s.39.76,1,.92l1.15.34c.94.29,1.71.78,1.71,1.91,0,1.44-1.28,2.1-2.64,2.1A4.24,4.24,0,0,1,344.33,241.47Z" fill="#1d1d1b"/><path d="M353.32,240.6c0,.46.09.85.9.85a6.4,6.4,0,0,0,.87-.08l.12,1a10,10,0,0,1-1.24.1c-1.11,0-1.8-.44-1.8-1.63v-4.49h-1.31v-1h1.31v-2.29l1.15-.4v2.69h1.95v1h-1.95Z" fill="#1d1d1b"/><path d="M361.08,232.53a.86.86,0,0,1,.84.86.85.85,0,1,1-1.7,0A.86.86,0,0,1,361.08,232.53Zm.56,9.81h-1.15v-7h1.15Z" fill="#1d1d1b"/><path d="M363.88,235.35H365v.8a2.38,2.38,0,0,1,2-.94,2.22,2.22,0,0,1,2.34,2.38v4.75h-1.15V238c0-1.23-.63-1.69-1.44-1.69a1.79,1.79,0,0,0-1.79,1.93v4.15h-1.15Z" fill="#1d1d1b"/><path d="M381.93,237.83h-5.17v4.51h-1.21v-9.81h1.21v4.26h5.17v-4.26h1.2v9.81h-1.2Z" fill="#1d1d1b"/><path d="M384.9,232.53h6.73v1.08h-2.76v8.73h-1.21v-8.73H384.9Z" fill="#1d1d1b"/><path d="M401,232.53h1.5v9.81h-1.22V234L398,238.53h0L394.62,234v8.3H393.4v-9.81h1.5l3.07,4.16Z" fill="#1d1d1b"/><path d="M405.36,232.53h1.2v8.73h3.93v1.08h-5.13Z" fill="#1d1d1b"/><path d="M416.71,235.35h1.39v1h-1.39v6h-1.14v-6H414.4v-1h1.17V234c0-1.2.81-1.63,1.91-1.63a8.18,8.18,0,0,1,1.13.09l-.09,1c-.27,0-.77,0-1,0a.73.73,0,0,0-.82.84Z" fill="#1d1d1b"/><path d="M425.59,238.85c0,2.1-1.29,3.63-3.22,3.63s-3.22-1.53-3.22-3.63,1.29-3.64,3.22-3.64S425.59,236.72,425.59,238.85Zm-1.19,0v-.08c0-1.4-.7-2.59-2-2.59s-2,1.19-2,2.59v.08c0,1.37.7,2.58,2,2.58S424.4,240.26,424.4,238.89Z" fill="#1d1d1b"/><path d="M431,236.37h-.18c-1.18,0-2.24.48-2.24,2.38v3.59h-1.15v-7h1.15v1.1a2.18,2.18,0,0,1,2.08-1.23H431Z" fill="#1d1d1b"/><path d="M437.7,242.34h-1.15v-4.4c0-1.25-.63-1.68-1.4-1.68s-1.54.59-1.54,1.94v4.14h-1.15v-7h1.15v.8a2.14,2.14,0,0,1,1.84-.94,2.08,2.08,0,0,1,1.89,1.16,2.38,2.38,0,0,1,2.13-1.16,2.25,2.25,0,0,1,2.35,2.34v4.79h-1.15v-4.4c0-1.25-.67-1.68-1.43-1.68s-1.54.59-1.54,1.94Z" fill="#1d1d1b"/><line x1="261.69" y1="252" x2="482.28" y2="252" fill="none" stroke="#1d1d1b" stroke-miterlimit="10" stroke-width="2"/><polygon points="480.82 256.99 489.46 252 480.82 247.01 480.82 256.99" fill="#1d1d1b"/></g><g id="_3_Return_SAML_authentication_request" data-name="3 Return SAML authentication request"><path d="M110.84,184.53h3.34c1.82,0,3.27.9,3.27,2.93a2.82,2.82,0,0,1-2,2.72l2.07,4.16h-1.38l-1.87-3.93H112v3.93h-1.2Zm3.41,4.83a1.78,1.78,0,0,0,1.94-1.87,1.81,1.81,0,0,0-1.94-1.92H112v3.79Z" fill="#1d1d1b"/><path d="M120,191.2a2.21,2.21,0,0,0,2.18,2.27,2.81,2.81,0,0,0,1.83-.69l.59.83a3.93,3.93,0,0,1-2.48.87,3.31,3.31,0,0,1-3.32-3.63c0-2.13,1.25-3.64,3.18-3.64s3,1.52,3,3.62v.37Zm0-.93h3.7c-.05-1.07-.65-2.05-1.75-2.05A2,2,0,0,0,120,190.27Z" fill="#1d1d1b"/><path d="M128.39,192.6c0,.46.09.85.9.85a6.4,6.4,0,0,0,.87-.08l.12,1a10,10,0,0,1-1.24.1c-1.11,0-1.8-.44-1.8-1.63v-4.49h-1.31v-1h1.31v-2.29l1.15-.4v2.69h2v1h-2Z" fill="#1d1d1b"/><path d="M137.37,194.34h-1.15v-.8a2.42,2.42,0,0,1-2,.94,2.23,2.23,0,0,1-2.34-2.38v-4.75H133v4.38c0,1.23.63,1.7,1.44,1.7a1.75,1.75,0,0,0,1.79-1.94v-4.14h1.15Z" fill="#1d1d1b"/><path d="M143.18,188.37H143c-1.18,0-2.25.48-2.25,2.38v3.59h-1.14v-7h1.14v1.1a2.2,2.2,0,0,1,2.09-1.23h.34Z" fill="#1d1d1b"/><path d="M144.66,187.35h1.15v.8a2.4,2.4,0,0,1,2-.94,2.22,2.22,0,0,1,2.34,2.38v4.75H149V190c0-1.23-.63-1.69-1.44-1.69a1.79,1.79,0,0,0-1.79,1.93v4.15h-1.15Z" fill="#1d1d1b"/><path d="M156.52,192.15a3.54,3.54,0,0,0,2.77,1.29c1.19,0,2.23-.6,2.23-1.77a1.42,1.42,0,0,0-.93-1.37c-1-.46-2.5-.49-3.55-1.13a2.25,2.25,0,0,1-1.15-2c0-1.51,1.26-2.71,3.35-2.71a4.42,4.42,0,0,1,3.23,1.33l-.88.71a3.19,3.19,0,0,0-2.35-1c-1.2,0-2.13.59-2.13,1.64,0,1.6,2.31,1.42,4,2.16a2.39,2.39,0,0,1,1.64,2.32c0,1.95-1.76,2.92-3.56,2.92a4.71,4.71,0,0,1-3.58-1.53Z" fill="#1d1d1b"/><path d="M169.71,192.12h-3.94l-.64,2.22h-1.28l3-9.81h1.74l3.07,9.81h-1.33Zm-3.64-1h3.34l-1.62-5.49h-.11Z" fill="#1d1d1b"/><path d="M181.25,184.53h1.5v9.81h-1.22V186l-3.35,4.51h0L174.83,186v8.3h-1.22v-9.81h1.5l3.07,4.16Z" fill="#1d1d1b"/><path d="M185.57,184.53h1.2v8.73h3.92v1.08h-5.12Z" fill="#1d1d1b"/><path d="M84.14,210.48a2.19,2.19,0,0,1-2.44-2.12,2,2,0,0,1,1.87-2l2.46-.34v-.45c0-1.06-.69-1.38-1.55-1.38a4.28,4.28,0,0,0-2,.54l-.44-.91a5.27,5.27,0,0,1,2.57-.64c1.69,0,2.59.75,2.59,2.22v3.27a.94.94,0,0,0,.57,1l-.64.83a1.42,1.42,0,0,1-.94-.84A2.62,2.62,0,0,1,84.14,210.48Zm0-3.25c-.77.11-1.27.36-1.27,1.08a1.29,1.29,0,0,0,1.43,1.26c.85,0,1.72-.55,1.72-1.36V207Z" fill="#1d1d1b"/><path d="M94.88,210.34H93.73v-.8a2.42,2.42,0,0,1-2,.94,2.23,2.23,0,0,1-2.34-2.38v-4.75H90.5v4.38c0,1.23.63,1.7,1.44,1.7a1.75,1.75,0,0,0,1.79-1.94v-4.14h1.15Z" fill="#1d1d1b"/><path d="M98.92,208.6c0,.46.09.85.9.85a6.4,6.4,0,0,0,.87-.08l.12,1a10,10,0,0,1-1.24.1c-1.11,0-1.8-.44-1.8-1.63v-4.49H96.46v-1h1.31v-2.29l1.15-.4v2.69h2v1h-2Z" fill="#1d1d1b"/><path d="M102.42,200.53h1.15v3.62a2.4,2.4,0,0,1,2.05-.94,2.23,2.23,0,0,1,2.34,2.38v4.75h-1.15V206c0-1.23-.63-1.69-1.45-1.69a1.79,1.79,0,0,0-1.79,1.93v4.15h-1.15Z" fill="#1d1d1b"/><path d="M110.92,207.2a2.19,2.19,0,0,0,2.17,2.27,2.82,2.82,0,0,0,1.84-.69l.59.83a4,4,0,0,1-2.48.87,3.31,3.31,0,0,1-3.32-3.63c0-2.13,1.24-3.64,3.18-3.64s3,1.52,3,3.62v.37Zm0-.93h3.7a1.89,1.89,0,0,0-1.75-2.05A2,2,0,0,0,110.93,206.27Z" fill="#1d1d1b"/><path d="M117.61,203.35h1.15v.8a2.4,2.4,0,0,1,2-.94,2.23,2.23,0,0,1,2.34,2.38v4.75H122V206c0-1.23-.63-1.69-1.45-1.69a1.8,1.8,0,0,0-1.79,1.93v4.15h-1.15Z" fill="#1d1d1b"/><path d="M127.13,208.6c0,.46.09.85.9.85a6.4,6.4,0,0,0,.87-.08l.12,1a10,10,0,0,1-1.24.1c-1.11,0-1.8-.44-1.8-1.63v-4.49h-1.31v-1H126v-2.29l1.15-.4v2.69h2v1h-2Z" fill="#1d1d1b"/><path d="M131.22,200.53a.86.86,0,0,1,.84.86.85.85,0,1,1-.84-.86Zm.56,9.81h-1.15v-7h1.15Z" fill="#1d1d1b"/><path d="M134.79,206.88c0,1.4.69,2.59,2,2.59a2,2,0,0,0,1.81-1.18l1,.55a3,3,0,0,1-2.76,1.64c-1.93,0-3.22-1.52-3.22-3.63s1.29-3.64,3.22-3.64a3,3,0,0,1,2.76,1.64l-1,.54a2,2,0,0,0-1.81-1.17c-1.34,0-2,1.19-2,2.59Z" fill="#1d1d1b"/><path d="M143.18,210.48a2.19,2.19,0,0,1-2.44-2.12,2,2,0,0,1,1.86-2l2.47-.34v-.45c0-1.06-.69-1.38-1.56-1.38a4.27,4.27,0,0,0-2,.54l-.44-.91a5.26,5.26,0,0,1,2.56-.64c1.7,0,2.6.75,2.6,2.22v3.27a.94.94,0,0,0,.57,1l-.64.83a1.39,1.39,0,0,1-.94-.84A2.62,2.62,0,0,1,143.18,210.48Zm0-3.25c-.77.11-1.27.36-1.27,1.08a1.29,1.29,0,0,0,1.42,1.26c.86,0,1.73-.55,1.73-1.36V207Z" fill="#1d1d1b"/><path d="M150.25,208.6c0,.46.08.85.89.85a6.4,6.4,0,0,0,.87-.08l.13,1a10,10,0,0,1-1.25.1c-1.1,0-1.79-.44-1.79-1.63v-4.49h-1.32v-1h1.32v-2.29l1.15-.4v2.69h1.94v1h-1.94Z" fill="#1d1d1b"/><path d="M154.33,200.53a.85.85,0,0,1,.84.86.84.84,0,0,1-.84.85.85.85,0,0,1-.85-.85A.86.86,0,0,1,154.33,200.53Zm.56,9.81h-1.14v-7h1.14Z" fill="#1d1d1b"/><path d="M163.16,206.85c0,2.1-1.29,3.63-3.22,3.63s-3.23-1.53-3.23-3.63,1.29-3.64,3.23-3.64S163.16,204.72,163.16,206.85Zm-1.19,0v-.08c0-1.4-.7-2.59-2-2.59s-2,1.19-2,2.59v.08c0,1.37.7,2.58,2,2.58S162,208.26,162,206.89Z" fill="#1d1d1b"/><path d="M165,203.35h1.15v.8a2.4,2.4,0,0,1,2-.94,2.23,2.23,0,0,1,2.34,2.38v4.75h-1.15V206c0-1.23-.63-1.69-1.44-1.69a1.8,1.8,0,0,0-1.8,1.93v4.15H165Z" fill="#1d1d1b"/><path d="M179.93,204.37h-.18c-1.18,0-2.25.48-2.25,2.38v3.59h-1.14v-7h1.14v1.1a2.19,2.19,0,0,1,2.09-1.23h.34Z" fill="#1d1d1b"/><path d="M182,207.2a2.19,2.19,0,0,0,2.17,2.27,2.81,2.81,0,0,0,1.83-.69l.59.83a3.93,3.93,0,0,1-2.48.87,3.31,3.31,0,0,1-3.32-3.63c0-2.13,1.25-3.64,3.18-3.64s3,1.52,3,3.62v.37Zm0-.93h3.7a1.89,1.89,0,0,0-1.75-2.05A2,2,0,0,0,182,206.27Z" fill="#1d1d1b"/><path d="M194.47,203.35v9.12h-1.14v-2.93a2.47,2.47,0,0,1-2.05.94c-1.81,0-3-1.52-3-3.63s1.16-3.64,3-3.64a2.45,2.45,0,0,1,2.05.94v-.8Zm-5,3.53c0,1.45.7,2.57,2,2.57a1.82,1.82,0,0,0,1.85-2v-1.14a1.82,1.82,0,0,0-1.85-2c-1.29,0-2,1.12-2,2.58Z" fill="#1d1d1b"/><path d="M202.19,210.34H201v-.8a2.42,2.42,0,0,1-2,.94,2.23,2.23,0,0,1-2.34-2.38v-4.75h1.14v4.38c0,1.23.63,1.7,1.45,1.7a1.75,1.75,0,0,0,1.79-1.94v-4.14h1.15Z" fill="#1d1d1b"/><path d="M205.21,207.2a2.19,2.19,0,0,0,2.17,2.27,2.82,2.82,0,0,0,1.84-.69l.58.83a3.9,3.9,0,0,1-2.47.87,3.31,3.31,0,0,1-3.33-3.63c0-2.13,1.25-3.64,3.18-3.64s3,1.52,3,3.62v.37Zm0-.93h3.7a1.89,1.89,0,0,0-1.75-2.05A2,2,0,0,0,205.22,206.27Z" fill="#1d1d1b"/><path d="M211.3,209.47l.7-.81a3.37,3.37,0,0,0,2.12.85c.79,0,1.4-.36,1.4-1s-.76-.92-1.71-1.18-2.17-.6-2.17-2c0-1.18,1.07-2,2.54-2a3.77,3.77,0,0,1,2.43.87l-.67.77a2.58,2.58,0,0,0-1.73-.68c-.92,0-1.38.41-1.38,1s.39.76,1,.92l1.15.34c.94.29,1.71.78,1.71,1.91,0,1.44-1.27,2.1-2.63,2.1A4.24,4.24,0,0,1,211.3,209.47Z" fill="#1d1d1b"/><path d="M220.29,208.6c0,.46.08.85.89.85a6.4,6.4,0,0,0,.87-.08l.13,1a10,10,0,0,1-1.25.1c-1.1,0-1.79-.44-1.79-1.63v-4.49h-1.32v-1h1.32v-2.29l1.15-.4v2.69h2v1h-2Z" fill="#1d1d1b"/><line x1="42.61" y1="219" x2="253.98" y2="219" fill="none" stroke="#1d1d1b" stroke-miterlimit="10" stroke-width="2"/><polygon points="252.52 223.99 261.15 219 252.52 214.01 252.52 223.99" fill="#1d1d1b"/></g><g id="_2_Request_to_generate_SAML_authentication_request" data-name="2 Request to generate SAML authentication request"><path d="M88,119.53h3.35c1.82,0,3.26.9,3.26,2.93a2.81,2.81,0,0,1-1.94,2.72l2.07,4.16H93.38l-1.86-3.93H89.24v3.93H88Zm3.42,4.83a1.78,1.78,0,0,0,1.93-1.87,1.8,1.8,0,0,0-1.93-1.92H89.24v3.79Z" fill="#1d1d1b"/><path d="M97.16,126.2a2.19,2.19,0,0,0,2.17,2.27,2.84,2.84,0,0,0,1.84-.69l.58.83a3.91,3.91,0,0,1-2.48.87A3.31,3.31,0,0,1,96,125.85c0-2.13,1.25-3.64,3.18-3.64s3,1.52,3,3.62v.37Zm0-.93h3.7a1.89,1.89,0,0,0-1.75-2A2,2,0,0,0,97.17,125.27Z" fill="#1d1d1b"/><path d="M109.61,122.35v9.12h-1.15v-2.93a2.47,2.47,0,0,1-2,.94c-1.8,0-3-1.52-3-3.63s1.17-3.64,3-3.64a2.45,2.45,0,0,1,2,.94v-.8Zm-5,3.53c0,1.45.7,2.57,2,2.57a1.82,1.82,0,0,0,1.85-2v-1.14a1.82,1.82,0,0,0-1.85-2c-1.29,0-2,1.12-2,2.58Z" fill="#1d1d1b"/><path d="M117.32,129.34h-1.15v-.8a2.41,2.41,0,0,1-2,.94,2.23,2.23,0,0,1-2.34-2.38v-4.75h1.15v4.38c0,1.23.63,1.7,1.44,1.7a1.75,1.75,0,0,0,1.79-1.94v-4.14h1.15Z" fill="#1d1d1b"/><path d="M120.34,126.2a2.2,2.2,0,0,0,2.17,2.27,2.82,2.82,0,0,0,1.84-.69l.59.83a3.93,3.93,0,0,1-2.48.87,3.31,3.31,0,0,1-3.32-3.63c0-2.13,1.24-3.64,3.18-3.64s3,1.52,3,3.62v.37Zm0-.93h3.69a1.89,1.89,0,0,0-1.75-2A2,2,0,0,0,120.36,125.27Z" fill="#1d1d1b"/><path d="M126.43,128.47l.7-.81a3.37,3.37,0,0,0,2.12.85c.8,0,1.4-.36,1.4-1s-.76-.92-1.71-1.18-2.17-.6-2.17-2c0-1.18,1.08-2,2.55-2a3.76,3.76,0,0,1,2.42.87l-.67.77a2.56,2.56,0,0,0-1.72-.68c-.93,0-1.39.41-1.39,1s.39.76,1,.92l1.15.34c.93.29,1.71.78,1.71,1.91,0,1.44-1.28,2.1-2.64,2.1A4.24,4.24,0,0,1,126.43,128.47Z" fill="#1d1d1b"/><path d="M135.42,127.6c0,.46.08.85.9.85a6.4,6.4,0,0,0,.87-.08l.12,1a10,10,0,0,1-1.24.1c-1.11,0-1.8-.44-1.8-1.63v-4.5H133v-1h1.31v-2.29l1.15-.4v2.69h2v1h-2Z" fill="#1d1d1b"/><path d="M144.12,127.6c0,.46.08.85.89.85a6.4,6.4,0,0,0,.87-.08l.13,1a10.21,10.21,0,0,1-1.25.1c-1.11,0-1.79-.44-1.79-1.63v-4.5h-1.32v-1H143v-2.29l1.15-.4v2.69h1.94v1h-1.94Z" fill="#1d1d1b"/><path d="M153.64,125.85c0,2.1-1.29,3.63-3.22,3.63s-3.23-1.53-3.23-3.63,1.29-3.64,3.23-3.64S153.64,123.72,153.64,125.85Zm-1.19,0v-.08c0-1.4-.7-2.59-2-2.59s-2,1.19-2,2.59v.08c0,1.37.7,2.58,2,2.58S152.45,127.26,152.45,125.89Z" fill="#1d1d1b"/><path d="M161.56,122.21a2.37,2.37,0,0,1,2,.94v-.8h1.14v7c0,1.74-1.52,2.24-3,2.24a6,6,0,0,1-2.6-.56l.4-.95a5.69,5.69,0,0,0,2.22.49c1.18,0,1.83-.43,1.83-1.51v-1.33a2.37,2.37,0,0,1-2,.94c-1.74,0-2.83-1.42-2.83-3.25S159.82,122.21,161.56,122.21Zm2,3.22c0-1.25-.53-2.2-1.79-2.2s-1.85,1-1.85,2.2v0c0,1.22.58,2.2,1.85,2.2s1.79-1,1.79-2.2Z" fill="#1d1d1b"/><path d="M167.7,126.2a2.21,2.21,0,0,0,2.18,2.27,2.81,2.81,0,0,0,1.83-.69l.59.83a3.93,3.93,0,0,1-2.48.87,3.31,3.31,0,0,1-3.32-3.63c0-2.13,1.25-3.64,3.18-3.64s3,1.52,3,3.62v.37Zm0-.93h3.7a1.89,1.89,0,0,0-1.75-2A2,2,0,0,0,167.72,125.27Z" fill="#1d1d1b"/><path d="M174.4,122.35h1.14v.8a2.41,2.41,0,0,1,2.05-.94,2.23,2.23,0,0,1,2.34,2.38v4.75h-1.15V125c0-1.23-.63-1.69-1.44-1.69a1.8,1.8,0,0,0-1.8,1.93v4.15H174.4Z" fill="#1d1d1b"/><path d="M182.89,126.2a2.2,2.2,0,0,0,2.18,2.27,2.81,2.81,0,0,0,1.83-.69l.59.83a3.93,3.93,0,0,1-2.48.87,3.31,3.31,0,0,1-3.32-3.63c0-2.13,1.25-3.64,3.18-3.64s3,1.52,3,3.62v.37Zm0-.93h3.7c-.05-1.07-.65-2-1.75-2A2,2,0,0,0,182.91,125.27Z" fill="#1d1d1b"/><path d="M193.16,123.37H193c-1.18,0-2.25.48-2.25,2.38v3.59h-1.14v-7h1.14v1.1a2.19,2.19,0,0,1,2.09-1.23h.34Z" fill="#1d1d1b"/><path d="M196.56,129.48a2.19,2.19,0,0,1-2.44-2.12,2,2,0,0,1,1.86-2l2.47-.34v-.45c0-1.06-.69-1.38-1.55-1.38a4.28,4.28,0,0,0-2,.54l-.44-.91a5.27,5.27,0,0,1,2.57-.64c1.69,0,2.59.75,2.59,2.22v3.27a.94.94,0,0,0,.57,1l-.64.83a1.39,1.39,0,0,1-.94-.84A2.62,2.62,0,0,1,196.56,129.48Zm0-3.25c-.77.11-1.27.36-1.27,1.08a1.29,1.29,0,0,0,1.43,1.26c.85,0,1.72-.55,1.72-1.36V126Z" fill="#1d1d1b"/><path d="M203.63,127.6c0,.46.08.85.9.85a6.25,6.25,0,0,0,.86-.08l.13,1a10,10,0,0,1-1.25.1c-1.1,0-1.79-.44-1.79-1.63v-4.5h-1.32v-1h1.32v-2.29l1.15-.4v2.69h2v1h-2Z" fill="#1d1d1b"/><path d="M207.91,126.2a2.2,2.2,0,0,0,2.17,2.27,2.82,2.82,0,0,0,1.84-.69l.59.83a3.93,3.93,0,0,1-2.48.87,3.31,3.31,0,0,1-3.32-3.63c0-2.13,1.24-3.64,3.18-3.64s3,1.52,3,3.62v.37Zm0-.93h3.69a1.89,1.89,0,0,0-1.75-2A2,2,0,0,0,207.93,125.27Z" fill="#1d1d1b"/><path d="M63,143.15a3.53,3.53,0,0,0,2.77,1.29c1.19,0,2.23-.6,2.23-1.77a1.42,1.42,0,0,0-.93-1.37c-1-.46-2.51-.49-3.56-1.13a2.25,2.25,0,0,1-1.15-2c0-1.51,1.27-2.71,3.35-2.71a4.45,4.45,0,0,1,3.24,1.33l-.88.71a3.23,3.23,0,0,0-2.36-1c-1.19,0-2.13.59-2.13,1.64,0,1.6,2.31,1.42,4,2.16a2.4,2.4,0,0,1,1.64,2.32c0,1.95-1.77,2.92-3.56,2.92A4.69,4.69,0,0,1,62.08,144Z" fill="#1d1d1b"/><path d="M76.18,143.12H72.24l-.64,2.22H70.32l3-9.81H75.1l3.07,9.81H76.83Zm-3.65-1h3.35l-1.62-5.49h-.12Z" fill="#1d1d1b"/><path d="M87.71,135.53h1.5v9.81H88V137l-3.34,4.51h0L81.3,137v8.3H80.08v-9.81h1.5l3.07,4.16Z" fill="#1d1d1b"/><path d="M92,135.53h1.2v8.73h3.92v1.08H92Z" fill="#1d1d1b"/><path d="M103.85,145.48a2.18,2.18,0,0,1-2.43-2.12,2,2,0,0,1,1.86-2l2.46-.34v-.45c0-1.06-.68-1.38-1.55-1.38a4.31,4.31,0,0,0-2,.54l-.43-.91a5.26,5.26,0,0,1,2.56-.64c1.7,0,2.59.75,2.59,2.22v3.27a.94.94,0,0,0,.58,1l-.65.83a1.42,1.42,0,0,1-.94-.84A2.6,2.6,0,0,1,103.85,145.48Zm0-3.25c-.77.11-1.28.36-1.28,1.08a1.29,1.29,0,0,0,1.43,1.26c.85,0,1.72-.55,1.72-1.36V142Z" fill="#1d1d1b"/><path d="M114.59,145.34h-1.15v-.8a2.41,2.41,0,0,1-2,.94,2.23,2.23,0,0,1-2.34-2.38v-4.75h1.15v4.38c0,1.23.63,1.7,1.44,1.7a1.75,1.75,0,0,0,1.79-1.94v-4.14h1.15Z" fill="#1d1d1b"/><path d="M118.64,143.6c0,.46.08.85.89.85a6.4,6.4,0,0,0,.87-.08l.13,1a10.21,10.21,0,0,1-1.25.1c-1.11,0-1.79-.44-1.79-1.63v-4.5h-1.32v-1h1.32v-2.29l1.15-.4v2.69h1.94v1h-1.94Z" fill="#1d1d1b"/><path d="M122.13,135.53h1.15v3.62a2.4,2.4,0,0,1,2-.94,2.23,2.23,0,0,1,2.34,2.38v4.75h-1.15V141c0-1.23-.63-1.69-1.44-1.69a1.79,1.79,0,0,0-1.8,1.93v4.15h-1.15Z" fill="#1d1d1b"/><path d="M130.63,142.2a2.2,2.2,0,0,0,2.17,2.27,2.82,2.82,0,0,0,1.84-.69l.59.83a3.93,3.93,0,0,1-2.48.87,3.31,3.31,0,0,1-3.32-3.63c0-2.13,1.24-3.64,3.18-3.64s3,1.52,3,3.62v.37Zm0-.93h3.69a1.89,1.89,0,0,0-1.75-2.05A2,2,0,0,0,130.65,141.27Z" fill="#1d1d1b"/><path d="M137.32,138.35h1.15v.8a2.4,2.4,0,0,1,2.05-.94,2.23,2.23,0,0,1,2.34,2.38v4.75h-1.15V141c0-1.23-.63-1.69-1.44-1.69a1.8,1.8,0,0,0-1.8,1.93v4.15h-1.15Z" fill="#1d1d1b"/><path d="M146.85,143.6c0,.46.08.85.89.85a6.4,6.4,0,0,0,.87-.08l.13,1a10.21,10.21,0,0,1-1.25.1c-1.11,0-1.79-.44-1.79-1.63v-4.5h-1.32v-1h1.32v-2.29l1.15-.4v2.69h1.94v1h-1.94Z" fill="#1d1d1b"/><path d="M150.93,135.53a.86.86,0,0,1,.84.86.85.85,0,1,1-1.69,0A.86.86,0,0,1,150.93,135.53Zm.56,9.81h-1.15v-7h1.15Z" fill="#1d1d1b"/><path d="M154.5,141.88c0,1.4.69,2.59,2,2.59a2,2,0,0,0,1.81-1.18l.95.55a3,3,0,0,1-2.76,1.64c-1.93,0-3.22-1.52-3.22-3.63s1.29-3.64,3.22-3.64a3,3,0,0,1,2.76,1.64l-.95.54a2,2,0,0,0-1.81-1.17c-1.34,0-2,1.19-2,2.59Z" fill="#1d1d1b"/><path d="M162.89,145.48a2.19,2.19,0,0,1-2.44-2.12,2,2,0,0,1,1.86-2l2.47-.34v-.45c0-1.06-.69-1.38-1.55-1.38a4.28,4.28,0,0,0-2,.54l-.44-.91a5.27,5.27,0,0,1,2.57-.64c1.69,0,2.59.75,2.59,2.22v3.27a.94.94,0,0,0,.57,1l-.64.83a1.39,1.39,0,0,1-.94-.84A2.62,2.62,0,0,1,162.89,145.48Zm0-3.25c-.77.11-1.27.36-1.27,1.08a1.29,1.29,0,0,0,1.43,1.26c.85,0,1.72-.55,1.72-1.36V142Z" fill="#1d1d1b"/><path d="M170,143.6c0,.46.08.85.9.85a6.25,6.25,0,0,0,.86-.08l.13,1a10,10,0,0,1-1.25.1c-1.1,0-1.79-.44-1.79-1.63v-4.5h-1.32v-1h1.32v-2.29l1.15-.4v2.69h1.95v1H170Z" fill="#1d1d1b"/><path d="M174.05,135.53a.86.86,0,0,1,.84.86.85.85,0,1,1-1.7,0A.86.86,0,0,1,174.05,135.53Zm.56,9.81h-1.15v-7h1.15Z" fill="#1d1d1b"/><path d="M182.87,141.85c0,2.1-1.29,3.63-3.22,3.63s-3.23-1.53-3.23-3.63,1.29-3.64,3.23-3.64S182.87,139.72,182.87,141.85Zm-1.19,0v-.08c0-1.4-.7-2.59-2-2.59s-2,1.19-2,2.59v.08c0,1.37.7,2.58,2,2.58S181.68,143.26,181.68,141.89Z" fill="#1d1d1b"/><path d="M184.69,138.35h1.14v.8a2.41,2.41,0,0,1,2-.94,2.23,2.23,0,0,1,2.34,2.38v4.75h-1.15V141c0-1.23-.63-1.69-1.44-1.69a1.8,1.8,0,0,0-1.8,1.93v4.15h-1.14Z" fill="#1d1d1b"/><path d="M199.64,139.37h-.18c-1.18,0-2.24.48-2.24,2.38v3.59h-1.15v-7h1.15v1.1a2.18,2.18,0,0,1,2.08-1.23h.34Z" fill="#1d1d1b"/><path d="M201.74,142.2a2.19,2.19,0,0,0,2.17,2.27,2.81,2.81,0,0,0,1.83-.69l.59.83a3.91,3.91,0,0,1-2.48.87,3.31,3.31,0,0,1-3.32-3.63c0-2.13,1.25-3.64,3.18-3.64s3,1.52,3,3.62v.37Zm0-.93h3.7a1.89,1.89,0,0,0-1.75-2.05A2,2,0,0,0,201.75,141.27Z" fill="#1d1d1b"/><path d="M214.19,138.35v9.12H213v-2.93a2.47,2.47,0,0,1-2,.94c-1.8,0-3-1.52-3-3.63s1.17-3.64,3-3.64a2.45,2.45,0,0,1,2,.94v-.8Zm-5,3.53c0,1.45.7,2.57,2,2.57a1.82,1.82,0,0,0,1.85-2v-1.14a1.82,1.82,0,0,0-1.85-2c-1.29,0-2,1.12-2,2.58Z" fill="#1d1d1b"/><path d="M221.9,145.34h-1.15v-.8a2.41,2.41,0,0,1-2,.94,2.23,2.23,0,0,1-2.34-2.38v-4.75h1.15v4.38c0,1.23.63,1.7,1.44,1.7a1.75,1.75,0,0,0,1.79-1.94v-4.14h1.15Z" fill="#1d1d1b"/><path d="M224.92,142.2a2.2,2.2,0,0,0,2.17,2.27,2.82,2.82,0,0,0,1.84-.69l.59.83a3.93,3.93,0,0,1-2.48.87,3.31,3.31,0,0,1-3.32-3.63c0-2.13,1.24-3.64,3.18-3.64s3,1.52,3,3.62v.37Zm0-.93h3.69a1.89,1.89,0,0,0-1.75-2.05A2,2,0,0,0,224.94,141.27Z" fill="#1d1d1b"/><path d="M231,144.47l.7-.81a3.37,3.37,0,0,0,2.12.85c.79,0,1.4-.36,1.4-1s-.76-.92-1.71-1.18-2.17-.6-2.17-2c0-1.18,1.08-2,2.55-2a3.76,3.76,0,0,1,2.42.87l-.67.77a2.58,2.58,0,0,0-1.73-.68c-.92,0-1.38.41-1.38,1s.39.76,1,.92l1.14.34c.94.29,1.71.78,1.71,1.91,0,1.44-1.27,2.1-2.63,2.1A4.24,4.24,0,0,1,231,144.47Z" fill="#1d1d1b"/><path d="M240,143.6c0,.46.08.85.9.85a6.25,6.25,0,0,0,.86-.08l.13,1a10,10,0,0,1-1.25.1c-1.1,0-1.79-.44-1.79-1.63v-4.5h-1.31v-1h1.31v-2.29l1.15-.4v2.69H242v1H240Z" fill="#1d1d1b"/><line x1="261.15" y1="154" x2="49.79" y2="154" fill="none" stroke="#1d1d1b" stroke-miterlimit="10" stroke-width="2"/><polygon points="51.25 149.01 42.61 154 51.25 158.99 51.25 149.01" fill="#1d1d1b"/></g><g id="_1_User_starts_journey_from_browser" data-name="1 User starts journey from browser"><path d="M281.5,108.85v-6.32h1.18V109a3.62,3.62,0,0,1-7.24,0v-6.43h1.19v6.32a2.44,2.44,0,1,0,4.87,0Z" fill="#1d1d1b"/><path d="M284.3,111.47l.7-.81a3.37,3.37,0,0,0,2.12.85c.8,0,1.4-.36,1.4-1.05s-.76-.92-1.71-1.18-2.17-.6-2.17-2c0-1.18,1.08-2,2.55-2a3.76,3.76,0,0,1,2.42.87l-.67.77a2.56,2.56,0,0,0-1.73-.68c-.92,0-1.38.41-1.38,1s.39.76,1,.92l1.15.34c.93.29,1.7.78,1.7,1.91,0,1.44-1.27,2.1-2.63,2.1A4.24,4.24,0,0,1,284.3,111.47Z" fill="#1d1d1b"/><path d="M292.27,109.2a2.19,2.19,0,0,0,2.17,2.27,2.81,2.81,0,0,0,1.83-.69l.59.83a3.91,3.91,0,0,1-2.48.87,3.31,3.31,0,0,1-3.32-3.63c0-2.13,1.25-3.64,3.18-3.64s3,1.52,3,3.62v.37Zm0-.93H296a1.89,1.89,0,0,0-1.75-2A2,2,0,0,0,292.28,108.27Z" fill="#1d1d1b"/><path d="M302.53,106.37h-.18c-1.18,0-2.24.48-2.24,2.38v3.59H299v-7h1.15v1.1a2.18,2.18,0,0,1,2.09-1.23h.33Z" fill="#1d1d1b"/><path d="M306.77,111.47l.7-.81a3.37,3.37,0,0,0,2.12.85c.79,0,1.4-.36,1.4-1.05s-.76-.92-1.71-1.18-2.17-.6-2.17-2c0-1.18,1.08-2,2.55-2a3.76,3.76,0,0,1,2.42.87l-.67.77a2.58,2.58,0,0,0-1.73-.68c-.92,0-1.38.41-1.38,1s.39.76,1,.92l1.15.34c.93.29,1.7.78,1.7,1.91,0,1.44-1.27,2.1-2.63,2.1A4.24,4.24,0,0,1,306.77,111.47Z" fill="#1d1d1b"/><path d="M315.76,110.6c0,.46.08.85.9.85a6.4,6.4,0,0,0,.87-.08l.12,1a10,10,0,0,1-1.25.1c-1.1,0-1.79-.44-1.79-1.63v-4.5h-1.32v-1h1.32v-2.29l1.15-.4v2.69h1.95v1h-1.95Z" fill="#1d1d1b"/><path d="M321.18,112.48a2.19,2.19,0,0,1-2.44-2.12,2,2,0,0,1,1.86-2l2.47-.34v-.45c0-1.06-.69-1.38-1.56-1.38a4.27,4.27,0,0,0-2,.54l-.44-.91a5.27,5.27,0,0,1,2.57-.64c1.69,0,2.59.75,2.59,2.22v3.27a.94.94,0,0,0,.57,1l-.64.83a1.39,1.39,0,0,1-.94-.84A2.62,2.62,0,0,1,321.18,112.48Zm0-3.25c-.77.11-1.27.36-1.27,1.08a1.29,1.29,0,0,0,1.43,1.26c.85,0,1.72-.55,1.72-1.36V109Z" fill="#1d1d1b"/><path d="M330,106.37h-.18c-1.18,0-2.24.48-2.24,2.38v3.59h-1.15v-7h1.15v1.1a2.18,2.18,0,0,1,2.09-1.23H330Z" fill="#1d1d1b"/><path d="M333.3,110.6c0,.46.09.85.9.85a6.4,6.4,0,0,0,.87-.08l.12,1a10,10,0,0,1-1.24.1c-1.11,0-1.8-.44-1.8-1.63v-4.5h-1.31v-1h1.31v-2.29l1.15-.4v2.69h1.95v1H333.3Z" fill="#1d1d1b"/><path d="M336.2,111.47l.7-.81a3.37,3.37,0,0,0,2.11.85c.8,0,1.41-.36,1.41-1.05s-.76-.92-1.71-1.18-2.17-.6-2.17-2c0-1.18,1.07-2,2.54-2a3.77,3.77,0,0,1,2.43.87l-.68.77a2.54,2.54,0,0,0-1.72-.68c-.92,0-1.38.41-1.38,1s.39.76,1,.92l1.15.34c.94.29,1.71.78,1.71,1.91,0,1.44-1.27,2.1-2.63,2.1A4.24,4.24,0,0,1,336.2,111.47Z" fill="#1d1d1b"/><path d="M348.2,113.44c0,.93-.69,1.19-1.33,1.19a7,7,0,0,1-1-.09l.15-.94.49,0c.52,0,.55-.24.55-.58v-7.71h1.15Zm-.56-10.91a.86.86,0,0,1,.84.86.85.85,0,1,1-1.7,0A.86.86,0,0,1,347.64,102.53Z" fill="#1d1d1b"/><path d="M356.46,108.85c0,2.1-1.29,3.63-3.22,3.63S350,111,350,108.85s1.28-3.64,3.22-3.64S356.46,106.72,356.46,108.85Zm-1.19,0v-.08c0-1.4-.7-2.59-2-2.59s-2,1.19-2,2.59v.08c0,1.37.7,2.58,2,2.58S355.27,110.26,355.27,108.89Z" fill="#1d1d1b"/><path d="M363.75,112.34H362.6v-.8a2.41,2.41,0,0,1-2,.94,2.23,2.23,0,0,1-2.34-2.38v-4.75h1.15v4.38c0,1.23.63,1.7,1.44,1.7a1.75,1.75,0,0,0,1.79-1.94v-4.14h1.15Z" fill="#1d1d1b"/><path d="M369.56,106.37h-.18c-1.18,0-2.24.48-2.24,2.38v3.59H366v-7h1.15v1.1a2.18,2.18,0,0,1,2.09-1.23h.33Z" fill="#1d1d1b"/><path d="M371,105.35h1.15v.8a2.4,2.4,0,0,1,2.05-.94,2.23,2.23,0,0,1,2.34,2.38v4.75h-1.15V108c0-1.23-.63-1.69-1.44-1.69a1.8,1.8,0,0,0-1.8,1.93v4.15H371Z" fill="#1d1d1b"/><path d="M379.54,109.2a2.2,2.2,0,0,0,2.17,2.27,2.82,2.82,0,0,0,1.84-.69l.59.83a3.93,3.93,0,0,1-2.48.87,3.31,3.31,0,0,1-3.32-3.63c0-2.13,1.24-3.64,3.18-3.64s3,1.52,3,3.62v.37Zm0-.93h3.69a1.89,1.89,0,0,0-1.75-2A2,2,0,0,0,379.56,108.27Z" fill="#1d1d1b"/><path d="M385.38,105.35h1.3l1.73,5.77,1.63-5.77h1.29l-2.55,8a1.67,1.67,0,0,1-1.85,1.23,8.23,8.23,0,0,1-1.24-.11l.17-1a5.11,5.11,0,0,0,.92.1.78.78,0,0,0,.88-.7l.07-.33Z" fill="#1d1d1b"/><path d="M397.64,105.35H399v1h-1.39v6H396.5v-6h-1.17v-1h1.17V104c0-1.2.81-1.63,1.92-1.63a8,8,0,0,1,1.12.09l-.09,1c-.26,0-.77,0-1,0a.73.73,0,0,0-.82.84Z" fill="#1d1d1b"/><path d="M404.18,106.37H404c-1.17,0-2.24.48-2.24,2.38v3.59h-1.15v-7h1.15v1.1a2.18,2.18,0,0,1,2.09-1.23h.33Z" fill="#1d1d1b"/><path d="M411.52,108.85c0,2.1-1.29,3.63-3.22,3.63s-3.22-1.53-3.22-3.63,1.29-3.64,3.22-3.64S411.52,106.72,411.52,108.85Zm-1.19,0v-.08c0-1.4-.7-2.59-2-2.59s-2,1.19-2,2.59v.08c0,1.37.7,2.58,2,2.58S410.33,110.26,410.33,108.89Z" fill="#1d1d1b"/><path d="M418.58,112.34h-1.15v-4.4c0-1.25-.63-1.68-1.4-1.68s-1.54.59-1.54,1.94v4.14h-1.15v-7h1.15v.8a2.13,2.13,0,0,1,1.83-.94,2.07,2.07,0,0,1,1.89,1.16,2.39,2.39,0,0,1,2.13-1.16,2.26,2.26,0,0,1,2.36,2.34v4.79h-1.15v-4.4c0-1.25-.68-1.68-1.43-1.68s-1.54.59-1.54,1.94Z" fill="#1d1d1b"/><path d="M429.69,112.34h-1.15v-9.81h1.15v3.62a2.45,2.45,0,0,1,2.05-.94c1.8,0,3,1.52,3,3.64s-1.17,3.63-3,3.63a2.47,2.47,0,0,1-2.05-.94Zm3.82-3.53c0-1.46-.7-2.58-2-2.58a1.82,1.82,0,0,0-1.85,2v1.14a1.82,1.82,0,0,0,1.85,2c1.28,0,2-1.12,2-2.57Z" fill="#1d1d1b"/><path d="M440.11,106.37h-.18c-1.18,0-2.25.48-2.25,2.38v3.59h-1.14v-7h1.14v1.1a2.2,2.2,0,0,1,2.09-1.23h.34Z" fill="#1d1d1b"/><path d="M447.45,108.85c0,2.1-1.29,3.63-3.23,3.63S441,111,441,108.85s1.29-3.64,3.22-3.64S447.45,106.72,447.45,108.85Zm-1.2,0v-.08c0-1.4-.7-2.59-2-2.59s-2,1.19-2,2.59v.08c0,1.37.7,2.58,2,2.58S446.25,110.26,446.25,108.89Z" fill="#1d1d1b"/><path d="M455.24,111l1.26-5.63h1.22l-1.71,7h-1.47l-1.41-5.61-1.44,5.61h-1.42l-1.69-7h1.23L451,111l1.47-5.63h1.3Z" fill="#1d1d1b"/><path d="M458.74,111.47l.7-.81a3.37,3.37,0,0,0,2.12.85c.79,0,1.4-.36,1.4-1.05s-.76-.92-1.71-1.18-2.17-.6-2.17-2c0-1.18,1.07-2,2.54-2a3.77,3.77,0,0,1,2.43.87l-.67.77a2.58,2.58,0,0,0-1.73-.68c-.92,0-1.38.41-1.38,1s.39.76,1,.92l1.14.34c.94.29,1.71.78,1.71,1.91,0,1.44-1.27,2.1-2.63,2.1A4.24,4.24,0,0,1,458.74,111.47Z" fill="#1d1d1b"/><path d="M466.71,109.2a2.19,2.19,0,0,0,2.17,2.27,2.81,2.81,0,0,0,1.83-.69l.59.83a3.93,3.93,0,0,1-2.48.87,3.31,3.31,0,0,1-3.32-3.63c0-2.13,1.25-3.64,3.18-3.64s3,1.52,3,3.62v.37Zm0-.93h3.7a1.89,1.89,0,0,0-1.75-2A2,2,0,0,0,466.72,108.27Z" fill="#1d1d1b"/><path d="M477,106.37h-.18c-1.18,0-2.24.48-2.24,2.38v3.59H473.4v-7h1.15v1.1a2.18,2.18,0,0,1,2.08-1.23H477Z" fill="#1d1d1b"/><line x1="490.01" y1="121" x2="268.31" y2="121" fill="none" stroke="#1d1d1b" stroke-miterlimit="10" stroke-width="2"/><polygon points="269.77 116.01 261.13 121 269.77 125.99 269.77 116.01" fill="#1d1d1b"/></g></svg>