<svg id="Layer_1" data-name="Layer 1" xmlns="http://www.w3.org/2000/svg" viewBox="0 0 760 366"><title>2 copy</title><g id="Your_infrastructure" data-name="Your infrastructure"><rect id="service_background" data-name="service background" width="315" height="366" fill="#e7e6e5"/><path d="M95.71,13.78H97.2l-3.6,6.63V25H92.22V20.41L88.6,13.78h1.57l2.77,5.33Z" fill="#1d1d1b"/><path d="M104.51,21c0,2.4-1.47,4.15-3.68,4.15S97.15,23.4,97.15,21s1.47-4.16,3.68-4.16S104.51,18.57,104.51,21Zm-1.36.05V21c0-1.61-.8-3-2.32-3s-2.32,1.36-2.32,3v.09c0,1.57.8,2.95,2.32,2.95S103.15,22.62,103.15,21.05Z" fill="#1d1d1b"/><path d="M112.85,25h-1.32v-.91a2.76,2.76,0,0,1-2.33,1.07,2.55,2.55,0,0,1-2.68-2.72V17h1.32v5c0,1.41.72,1.94,1.65,1.94a2,2,0,0,0,2-2.21V17h1.32Z" fill="#1d1d1b"/><path d="M119.49,18.17h-.21c-1.35,0-2.56.54-2.56,2.72V25H115.4V17h1.32v1.27a2.47,2.47,0,0,1,2.38-1.41h.39Z" fill="#1d1d1b"/><path d="M125.69,13.78a1,1,0,1,1-1,1A1,1,0,0,1,125.69,13.78ZM126.33,25H125V17h1.31Z" fill="#1d1d1b"/><path d="M128.89,17h1.31v.91a2.78,2.78,0,0,1,2.34-1.07,2.54,2.54,0,0,1,2.67,2.72V25H133.9V20c0-1.41-.72-1.94-1.65-1.94a2.05,2.05,0,0,0-2.05,2.21V25h-1.31Z" fill="#1d1d1b"/><path d="M139.58,17h1.58v1.15h-1.58V25h-1.31V18.15h-1.33V17h1.33V15.51c0-1.37.93-1.87,2.19-1.87a7.75,7.75,0,0,1,1.28.11l-.1,1.12c-.3,0-.88-.06-1.13-.06-.75,0-.93.46-.93,1Z" fill="#1d1d1b"/><path d="M147.05,18.17h-.21c-1.34,0-2.56.54-2.56,2.72V25H143V17h1.31v1.27a2.49,2.49,0,0,1,2.39-1.41h.38Z" fill="#1d1d1b"/><path d="M150.94,25.15a2.5,2.5,0,0,1-2.78-2.42,2.23,2.23,0,0,1,2.12-2.26l2.82-.38v-.51c0-1.22-.78-1.59-1.78-1.59a4.81,4.81,0,0,0-2.3.63l-.5-1a6.1,6.1,0,0,1,2.93-.74c1.94,0,3,.87,3,2.55v3.73a1.07,1.07,0,0,0,.66,1.08l-.74.95a1.59,1.59,0,0,1-1.07-1A3,3,0,0,1,150.94,25.15Zm0-3.71c-.88.12-1.46.41-1.46,1.23a1.47,1.47,0,0,0,1.63,1.44c1,0,2-.63,2-1.55V21.12Z" fill="#1d1d1b"/><path d="M156.27,24l.8-.93a3.78,3.78,0,0,0,2.41,1c.92,0,1.6-.41,1.6-1.2s-.86-1.05-2-1.34-2.48-.69-2.48-2.34c0-1.34,1.23-2.32,2.91-2.32a4.32,4.32,0,0,1,2.77,1l-.76.88a3,3,0,0,0-2-.76c-1.06,0-1.59.46-1.59,1.18s.45.86,1.15,1.06c.42.11.9.25,1.32.38,1.07.34,2,.9,2,2.18,0,1.65-1.46,2.4-3,2.4A4.81,4.81,0,0,1,156.27,24Z" fill="#1d1d1b"/><path d="M166.54,23c0,.53.1,1,1,1a6.78,6.78,0,0,0,1-.1L168.7,25a11.91,11.91,0,0,1-1.42.11c-1.27,0-2.05-.5-2.05-1.86V18.15h-1.51V17h1.51V14.39l1.31-.46V17h2.22v1.15h-2.22Z" fill="#1d1d1b"/><path d="M174.62,18.17h-.21c-1.34,0-2.56.54-2.56,2.72V25h-1.31V17h1.31v1.27a2.49,2.49,0,0,1,2.39-1.41h.38Z" fill="#1d1d1b"/><path d="M182.57,25h-1.31v-.91a2.76,2.76,0,0,1-2.34,1.07,2.55,2.55,0,0,1-2.67-2.72V17h1.31v5c0,1.41.72,1.94,1.65,1.94a2,2,0,0,0,2-2.21V17h1.31Z" fill="#1d1d1b"/><path d="M186,21c0,1.6.78,3,2.32,3a2.3,2.3,0,0,0,2.07-1.35l1.09.63a3.42,3.42,0,0,1-3.16,1.87c-2.21,0-3.68-1.73-3.68-4.15s1.47-4.16,3.68-4.16a3.42,3.42,0,0,1,3.16,1.87l-1.09.63A2.3,2.3,0,0,0,188.33,18c-1.54,0-2.32,1.36-2.32,3Z" fill="#1d1d1b"/><path d="M195.53,23c0,.53.1,1,1,1a6.64,6.64,0,0,0,1-.1l.14,1.16a11.91,11.91,0,0,1-1.42.11c-1.27,0-2.05-.5-2.05-1.86V18.15h-1.51V17h1.51V14.39l1.31-.46V17h2.23v1.15h-2.23Z" fill="#1d1d1b"/><path d="M205.79,25h-1.31v-.91a2.78,2.78,0,0,1-2.34,1.07,2.54,2.54,0,0,1-2.67-2.72V17h1.31v5c0,1.41.72,1.94,1.65,1.94a2,2,0,0,0,2-2.21V17h1.31Z" fill="#1d1d1b"/><path d="M212.43,18.17h-.21c-1.34,0-2.56.54-2.56,2.72V25h-1.31V17h1.31v1.27A2.48,2.48,0,0,1,212,16.86h.39Z" fill="#1d1d1b"/><path d="M214.83,21.4a2.51,2.51,0,0,0,2.48,2.6,3.19,3.19,0,0,0,2.09-.79l.68.95a4.51,4.51,0,0,1-2.84,1c-2.32,0-3.79-1.75-3.79-4.15s1.43-4.16,3.63-4.16,3.41,1.75,3.41,4.15v.41Zm0-1h4.23c0-1.24-.74-2.36-2-2.36A2.33,2.33,0,0,0,214.84,20.35Z" fill="#1d1d1b"/></g><g id="Testing_service" data-name="Testing service"><rect id="your_service" data-name="your service" x="635.5" y="37.74" width="121.26" height="33.65" fill="#fff" stroke="#1d1d1b" stroke-miterlimit="10"/><path d="M645.33,48.4H653v1.23h-3.15v10h-1.38v-10h-3.15Z" fill="#1d1d1b"/><path d="M654.32,56a2.51,2.51,0,0,0,2.48,2.59,3.2,3.2,0,0,0,2.1-.79l.67,1a4.48,4.48,0,0,1-2.83,1c-2.32,0-3.8-1.74-3.8-4.14s1.43-4.17,3.64-4.17S660,53.2,660,55.6V56Zm0-1.06h4.22c0-1.23-.73-2.35-2-2.35A2.31,2.31,0,0,0,654.34,55Z" fill="#1d1d1b"/><path d="M661.28,58.61l.8-.93a3.79,3.79,0,0,0,2.42,1c.91,0,1.6-.42,1.6-1.2s-.87-1.06-2-1.35-2.48-.69-2.48-2.33c0-1.35,1.24-2.33,2.92-2.33a4.32,4.32,0,0,1,2.77,1l-.77.88a2.91,2.91,0,0,0-2-.77c-1.06,0-1.59.46-1.59,1.18s.45.87,1.16,1.06l1.31.38c1.07.34,2,.9,2,2.18,0,1.65-1.45,2.4-3,2.4A4.81,4.81,0,0,1,661.28,58.61Z" fill="#1d1d1b"/><path d="M671.55,57.62c0,.52.1,1,1,1a8.28,8.28,0,0,0,1-.09l.14,1.15a11.68,11.68,0,0,1-1.42.11c-1.27,0-2-.49-2-1.86V52.77h-1.5V51.61h1.5V49l1.31-.46v3.07h2.23v1.16h-2.23Z" fill="#1d1d1b"/><path d="M676.22,48.4a1,1,0,1,1-1,1A1,1,0,0,1,676.22,48.4Zm.64,11.2h-1.31v-8h1.31Z" fill="#1d1d1b"/><path d="M679.42,51.61h1.32v.92a2.74,2.74,0,0,1,2.33-1.08,2.55,2.55,0,0,1,2.68,2.72V59.6h-1.32v-5c0-1.41-.72-1.94-1.64-1.94a2.06,2.06,0,0,0-2,2.21V59.6h-1.32Z" fill="#1d1d1b"/><path d="M691,51.45a2.68,2.68,0,0,1,2.26,1.08v-.92h1.31v8.06c0,2-1.74,2.56-3.42,2.56a7,7,0,0,1-3-.64l.45-1.09a6.44,6.44,0,0,0,2.54.56c1.34,0,2.08-.5,2.08-1.73V57.81A2.7,2.7,0,0,1,691,58.88c-2,0-3.23-1.62-3.23-3.71S689,51.45,691,51.45Zm2.29,3.69c0-1.43-.6-2.52-2-2.52s-2.11,1.12-2.11,2.52v.06c0,1.39.66,2.51,2.11,2.51s2-1.09,2-2.51Z" fill="#1d1d1b"/><path d="M700.66,58.61l.8-.93a3.78,3.78,0,0,0,2.41,1c.91,0,1.6-.42,1.6-1.2s-.86-1.06-2-1.35S701,55.42,701,53.78c0-1.35,1.23-2.33,2.91-2.33a4.27,4.27,0,0,1,2.77,1l-.77.88a2.89,2.89,0,0,0-2-.77c-1.05,0-1.58.46-1.58,1.18s.45.87,1.15,1.06c.42.11.9.26,1.31.38,1.08.34,2,.9,2,2.18,0,1.65-1.46,2.4-3,2.4A4.81,4.81,0,0,1,700.66,58.61Z" fill="#1d1d1b"/><path d="M709.76,56a2.51,2.51,0,0,0,2.48,2.59,3.2,3.2,0,0,0,2.1-.79l.67,1a4.5,4.5,0,0,1-2.83,1c-2.32,0-3.8-1.74-3.8-4.14s1.43-4.17,3.64-4.17,3.41,1.75,3.41,4.15V56Zm0-1.06H714c0-1.23-.74-2.35-2-2.35A2.31,2.31,0,0,0,709.78,55Z" fill="#1d1d1b"/><path d="M721.49,52.78h-.21c-1.34,0-2.56.55-2.56,2.72v4.1h-1.31v-8h1.31v1.27a2.48,2.48,0,0,1,2.38-1.41h.39Z" fill="#1d1d1b"/><path d="M724.9,59.6l-2.53-8h1.48l1.93,6.77,1.9-6.77h1.49l-2.53,8Z" fill="#1d1d1b"/><path d="M731.58,48.4a1,1,0,1,1-1,1A1,1,0,0,1,731.58,48.4Zm.64,11.2h-1.31v-8h1.31Z" fill="#1d1d1b"/><path d="M735.66,55.65c0,1.6.79,3,2.32,3a2.28,2.28,0,0,0,2.07-1.35l1.09.63A3.4,3.4,0,0,1,738,59.76c-2.21,0-3.68-1.73-3.68-4.14s1.47-4.17,3.68-4.17a3.41,3.41,0,0,1,3.16,1.88l-1.09.62A2.29,2.29,0,0,0,738,52.61c-1.53,0-2.32,1.36-2.32,3Z" fill="#1d1d1b"/><path d="M743.93,56a2.52,2.52,0,0,0,2.49,2.59,3.19,3.19,0,0,0,2.09-.79l.68,1a4.53,4.53,0,0,1-2.84,1c-2.32,0-3.79-1.74-3.79-4.14s1.42-4.17,3.63-4.17,3.41,1.75,3.41,4.15V56ZM744,55h4.23c0-1.23-.74-2.35-2-2.35A2.32,2.32,0,0,0,744,55Z" fill="#1d1d1b"/><rect id="your_service-2" data-name="your service" x="635.5" y="318.74" width="121.26" height="33.65" fill="#fff" stroke="#1d1d1b" stroke-miterlimit="10"/><path d="M645.33,329.4H653v1.23h-3.15v10h-1.38v-10h-3.15Z" fill="#1d1d1b"/><path d="M654.32,337a2.51,2.51,0,0,0,2.48,2.59,3.2,3.2,0,0,0,2.1-.79l.67.95a4.48,4.48,0,0,1-2.83,1c-2.32,0-3.8-1.74-3.8-4.14s1.43-4.17,3.64-4.17S660,334.2,660,336.6V337Zm0-1.06h4.22c0-1.23-.73-2.35-2-2.35A2.31,2.31,0,0,0,654.34,336Z" fill="#1d1d1b"/><path d="M661.28,339.61l.8-.93a3.79,3.79,0,0,0,2.42,1c.91,0,1.6-.42,1.6-1.2s-.87-1.06-2-1.35-2.48-.69-2.48-2.33c0-1.35,1.24-2.33,2.92-2.33a4.32,4.32,0,0,1,2.77,1l-.77.88a2.91,2.91,0,0,0-2-.77c-1.06,0-1.59.46-1.59,1.18s.45.87,1.16,1.06l1.31.38c1.07.34,2,.9,2,2.18,0,1.65-1.45,2.4-3,2.4A4.81,4.81,0,0,1,661.28,339.61Z" fill="#1d1d1b"/><path d="M671.55,338.62c0,.52.1,1,1,1a8.28,8.28,0,0,0,1-.09l.14,1.15a11.68,11.68,0,0,1-1.42.11c-1.27,0-2-.49-2-1.86v-5.13h-1.5v-1.16h1.5V330l1.31-.46v3.07h2.23v1.16h-2.23Z" fill="#1d1d1b"/><path d="M676.22,329.4a1,1,0,1,1-1,1A1,1,0,0,1,676.22,329.4Zm.64,11.2h-1.31v-8h1.31Z" fill="#1d1d1b"/><path d="M679.42,332.61h1.32v.92a2.74,2.74,0,0,1,2.33-1.08,2.55,2.55,0,0,1,2.68,2.72v5.43h-1.32v-5c0-1.41-.72-1.94-1.64-1.94a2.06,2.06,0,0,0-2,2.21v4.74h-1.32Z" fill="#1d1d1b"/><path d="M691,332.45a2.68,2.68,0,0,1,2.26,1.08v-.92h1.31v8.06c0,2-1.74,2.56-3.42,2.56a7,7,0,0,1-3-.64l.45-1.09a6.44,6.44,0,0,0,2.54.56c1.34,0,2.08-.5,2.08-1.73v-1.52a2.7,2.7,0,0,1-2.26,1.07c-2,0-3.23-1.62-3.23-3.71S689,332.45,691,332.45Zm2.29,3.69c0-1.43-.6-2.52-2-2.52s-2.11,1.12-2.11,2.52v.06c0,1.39.66,2.51,2.11,2.51s2-1.09,2-2.51Z" fill="#1d1d1b"/><path d="M700.66,339.61l.8-.93a3.78,3.78,0,0,0,2.41,1c.91,0,1.6-.42,1.6-1.2s-.86-1.06-2-1.35-2.48-.69-2.48-2.33c0-1.35,1.23-2.33,2.91-2.33a4.27,4.27,0,0,1,2.77,1l-.77.88a2.89,2.89,0,0,0-2-.77c-1.05,0-1.58.46-1.58,1.18s.45.87,1.15,1.06c.42.11.9.26,1.31.38,1.08.34,2,.9,2,2.18,0,1.65-1.46,2.4-3,2.4A4.81,4.81,0,0,1,700.66,339.61Z" fill="#1d1d1b"/><path d="M709.76,337a2.51,2.51,0,0,0,2.48,2.59,3.2,3.2,0,0,0,2.1-.79l.67.95a4.5,4.5,0,0,1-2.83,1c-2.32,0-3.8-1.74-3.8-4.14s1.43-4.17,3.64-4.17,3.41,1.75,3.41,4.15V337Zm0-1.06H714c0-1.23-.74-2.35-2-2.35A2.31,2.31,0,0,0,709.78,336Z" fill="#1d1d1b"/><path d="M721.49,333.78h-.21c-1.34,0-2.56.55-2.56,2.72v4.1h-1.31v-8h1.31v1.27a2.48,2.48,0,0,1,2.38-1.41h.39Z" fill="#1d1d1b"/><path d="M724.9,340.6l-2.53-8h1.48l1.93,6.77,1.9-6.77h1.49l-2.53,8Z" fill="#1d1d1b"/><path d="M731.58,329.4a1,1,0,1,1-1,1A1,1,0,0,1,731.58,329.4Zm.64,11.2h-1.31v-8h1.31Z" fill="#1d1d1b"/><path d="M735.66,336.65c0,1.6.79,3,2.32,3a2.28,2.28,0,0,0,2.07-1.35l1.09.63a3.4,3.4,0,0,1-3.16,1.87c-2.21,0-3.68-1.73-3.68-4.14s1.47-4.17,3.68-4.17a3.41,3.41,0,0,1,3.16,1.88l-1.09.62a2.29,2.29,0,0,0-2.07-1.34c-1.53,0-2.32,1.36-2.32,3Z" fill="#1d1d1b"/><path d="M743.93,337a2.52,2.52,0,0,0,2.49,2.59,3.19,3.19,0,0,0,2.09-.79l.68.95a4.53,4.53,0,0,1-2.84,1c-2.32,0-3.79-1.74-3.79-4.14s1.42-4.17,3.63-4.17,3.41,1.75,3.41,4.15V337Zm0-1.06h4.23c0-1.23-.74-2.35-2-2.35A2.32,2.32,0,0,0,744,336Z" fill="#1d1d1b"/><line x1="697.76" y1="72.01" x2="697.76" y2="76.01" fill="none" stroke="#1d1d1b" stroke-miterlimit="10"/><line x1="697.76" y1="84.21" x2="697.75" y2="309.89" fill="none" stroke="#1d1d1b" stroke-miterlimit="10" stroke-dasharray="8.21 8.21"/><line x1="697.75" y1="313.99" x2="697.75" y2="317.99" fill="none" stroke="#1d1d1b" stroke-miterlimit="10"/></g><g id="Browser"><rect id="your_service-3" data-name="your service" x="451.3" y="37.74" width="78" height="33.65" fill="#fff" stroke="#1d1d1b" stroke-miterlimit="10"/><path d="M467.23,48.4a2.84,2.84,0,0,1,3.1,2.8,2.78,2.78,0,0,1-1.76,2.51A2.77,2.77,0,0,1,471,56.43c0,2.19-1.76,3.17-3.84,3.17h-4.28V48.4Zm1.71,3c0-1-.62-1.84-2.22-1.84h-2.47v3.71h2.47c1.6,0,2.22-.85,2.22-1.82Zm-1.78,3.06h-2.91v4h2.91c1.32,0,2.4-.59,2.4-2S468.48,54.45,467.16,54.45Z" fill="#1d1d1b"/><path d="M477.15,52.78h-.21c-1.35,0-2.56.55-2.56,2.72v4.1h-1.31v-8h1.31v1.27a2.47,2.47,0,0,1,2.38-1.41h.39Z" fill="#1d1d1b"/><path d="M485.53,55.62c0,2.4-1.47,4.14-3.68,4.14s-3.68-1.74-3.68-4.14,1.47-4.17,3.68-4.17S485.53,53.18,485.53,55.62Zm-1.36,0v-.09c0-1.6-.8-3-2.32-3s-2.32,1.36-2.32,3v.09c0,1.57.8,3,2.32,3S484.17,57.23,484.17,55.66Z" fill="#1d1d1b"/><path d="M494.45,58.05l1.44-6.44h1.39l-1.95,8h-1.69L492,53.2l-1.65,6.4h-1.62l-1.93-8h1.4l1.4,6.44,1.68-6.44h1.49Z" fill="#1d1d1b"/><path d="M498.44,58.61l.8-.93a3.81,3.81,0,0,0,2.42,1c.91,0,1.6-.42,1.6-1.2s-.86-1.06-1.95-1.35-2.48-.69-2.48-2.33c0-1.35,1.23-2.33,2.91-2.33a4.29,4.29,0,0,1,2.77,1l-.77.88a2.89,2.89,0,0,0-2-.77c-1.06,0-1.58.46-1.58,1.18s.44.87,1.15,1.06c.42.11.9.26,1.31.38,1.07.34,2,.9,2,2.18,0,1.65-1.45,2.4-3,2.4A4.83,4.83,0,0,1,498.44,58.61Z" fill="#1d1d1b"/><path d="M507.55,56A2.51,2.51,0,0,0,510,58.61a3.19,3.19,0,0,0,2.09-.79l.68,1a4.51,4.51,0,0,1-2.84,1c-2.32,0-3.79-1.74-3.79-4.14s1.42-4.17,3.63-4.17,3.41,1.75,3.41,4.15V56Zm0-1.06h4.23c-.05-1.23-.74-2.35-2-2.35A2.32,2.32,0,0,0,507.56,55Z" fill="#1d1d1b"/><path d="M519.28,52.78h-.21c-1.35,0-2.56.55-2.56,2.72v4.1h-1.32v-8h1.32v1.27a2.47,2.47,0,0,1,2.38-1.41h.39Z" fill="#1d1d1b"/><rect id="your_service-4" data-name="your service" x="451.3" y="318.74" width="78" height="33.65" fill="#fff" stroke="#1d1d1b" stroke-miterlimit="10"/><path d="M467.23,329.4a2.84,2.84,0,0,1,3.1,2.8,2.78,2.78,0,0,1-1.76,2.51,2.77,2.77,0,0,1,2.42,2.72c0,2.19-1.76,3.17-3.84,3.17h-4.28V329.4Zm1.71,3c0-1-.62-1.84-2.22-1.84h-2.47v3.71h2.47c1.6,0,2.22-.85,2.22-1.82Zm-1.78,3.06h-2.91v4h2.91c1.32,0,2.4-.59,2.4-2S468.48,335.45,467.16,335.45Z" fill="#1d1d1b"/><path d="M477.15,333.78h-.21c-1.35,0-2.56.55-2.56,2.72v4.1h-1.31v-8h1.31v1.27a2.47,2.47,0,0,1,2.38-1.41h.39Z" fill="#1d1d1b"/><path d="M485.53,336.62c0,2.4-1.47,4.14-3.68,4.14s-3.68-1.74-3.68-4.14,1.47-4.17,3.68-4.17S485.53,334.18,485.53,336.62Zm-1.36,0v-.09c0-1.6-.8-3-2.32-3s-2.32,1.36-2.32,3v.09c0,1.57.8,2.95,2.32,2.95S484.17,338.23,484.17,336.66Z" fill="#1d1d1b"/><path d="M494.45,339.05l1.44-6.44h1.39l-1.95,8h-1.69L492,334.2l-1.65,6.4h-1.62l-1.93-8h1.4l1.4,6.44,1.68-6.44h1.49Z" fill="#1d1d1b"/><path d="M498.44,339.61l.8-.93a3.81,3.81,0,0,0,2.42,1c.91,0,1.6-.42,1.6-1.2s-.86-1.06-1.95-1.35-2.48-.69-2.48-2.33c0-1.35,1.23-2.33,2.91-2.33a4.29,4.29,0,0,1,2.77,1l-.77.88a2.89,2.89,0,0,0-2-.77c-1.06,0-1.58.46-1.58,1.18s.44.87,1.15,1.06c.42.11.9.26,1.31.38,1.07.34,2,.9,2,2.18,0,1.65-1.45,2.4-3,2.4A4.83,4.83,0,0,1,498.44,339.61Z" fill="#1d1d1b"/><path d="M507.55,337a2.51,2.51,0,0,0,2.48,2.59,3.19,3.19,0,0,0,2.09-.79l.68.95a4.51,4.51,0,0,1-2.84,1c-2.32,0-3.79-1.74-3.79-4.14s1.42-4.17,3.63-4.17,3.41,1.75,3.41,4.15V337Zm0-1.06h4.23c-.05-1.23-.74-2.35-2-2.35A2.32,2.32,0,0,0,507.56,336Z" fill="#1d1d1b"/><path d="M519.28,333.78h-.21c-1.35,0-2.56.55-2.56,2.72v4.1h-1.32v-8h1.32v1.27a2.47,2.47,0,0,1,2.38-1.41h.39Z" fill="#1d1d1b"/><line x1="490.3" y1="72" x2="490.3" y2="76" fill="none" stroke="#1d1d1b" stroke-miterlimit="10"/><line x1="490.3" y1="84.21" x2="490.29" y2="309.88" fill="none" stroke="#1d1d1b" stroke-miterlimit="10" stroke-dasharray="8.21 8.21"/><line x1="490.29" y1="313.99" x2="490.29" y2="317.99" fill="none" stroke="#1d1d1b" stroke-miterlimit="10"/></g><g id="Service"><rect id="your_service-5" data-name="your service" x="221.23" y="37.74" width="82.38" height="33.65" fill="#fff" stroke="#1d1d1b" stroke-miterlimit="10"/><path d="M238,57.1a4.07,4.07,0,0,0,3.17,1.48c1.36,0,2.54-.69,2.54-2A1.63,1.63,0,0,0,242.66,55c-1.12-.53-2.87-.56-4.07-1.29a2.57,2.57,0,0,1-1.31-2.34c0-1.73,1.44-3.11,3.82-3.11a5.09,5.09,0,0,1,3.7,1.52l-1,.82a3.69,3.69,0,0,0-2.69-1.15c-1.36,0-2.43.67-2.43,1.87,0,1.82,2.64,1.62,4.58,2.47a2.73,2.73,0,0,1,1.87,2.65c0,2.23-2,3.33-4.06,3.33A5.39,5.39,0,0,1,237,58Z" fill="#1d1d1b"/><path d="M248.13,56a2.51,2.51,0,0,0,2.48,2.59,3.24,3.24,0,0,0,2.1-.79l.67,1a4.51,4.51,0,0,1-2.84,1c-2.32,0-3.79-1.74-3.79-4.14s1.42-4.17,3.63-4.17,3.41,1.75,3.41,4.15V56Zm0-1.06h4.23c-.05-1.23-.74-2.35-2-2.35A2.32,2.32,0,0,0,248.14,55Z" fill="#1d1d1b"/><path d="M259.86,52.78h-.21c-1.35,0-2.56.55-2.56,2.72v4.1h-1.32v-8h1.32v1.27a2.47,2.47,0,0,1,2.38-1.41h.39Z" fill="#1d1d1b"/><path d="M263.26,59.6l-2.53-8h1.49l1.92,6.77,1.91-6.77h1.49l-2.53,8Z" fill="#1d1d1b"/><path d="M270,48.4a1,1,0,1,1-1,1A1,1,0,0,1,270,48.4Zm.64,11.2h-1.31v-8h1.31Z" fill="#1d1d1b"/><path d="M274,55.65c0,1.6.78,3,2.32,3a2.28,2.28,0,0,0,2.07-1.35l1.08.63a3.37,3.37,0,0,1-3.15,1.87c-2.21,0-3.68-1.73-3.68-4.14s1.47-4.17,3.68-4.17a3.38,3.38,0,0,1,3.15,1.88l-1.08.62a2.29,2.29,0,0,0-2.07-1.34c-1.54,0-2.32,1.36-2.32,3Z" fill="#1d1d1b"/><path d="M282.3,56a2.51,2.51,0,0,0,2.48,2.59,3.2,3.2,0,0,0,2.1-.79l.67,1a4.48,4.48,0,0,1-2.83,1c-2.32,0-3.79-1.74-3.79-4.14s1.42-4.17,3.63-4.17S288,53.2,288,55.6V56Zm0-1.06h4.22a2.15,2.15,0,0,0-2-2.35A2.31,2.31,0,0,0,282.32,55Z" fill="#1d1d1b"/><rect id="your_service-6" data-name="your service" x="221.23" y="318.74" width="82.38" height="33.65" fill="#fff" stroke="#1d1d1b" stroke-miterlimit="10"/><path d="M238,338.1a4.07,4.07,0,0,0,3.17,1.48c1.36,0,2.54-.69,2.54-2a1.63,1.63,0,0,0-1.05-1.57c-1.12-.53-2.87-.56-4.07-1.29a2.57,2.57,0,0,1-1.31-2.34c0-1.73,1.44-3.11,3.82-3.11a5.09,5.09,0,0,1,3.7,1.52l-1,.82a3.69,3.69,0,0,0-2.69-1.15c-1.36,0-2.43.67-2.43,1.87,0,1.82,2.64,1.62,4.58,2.47a2.73,2.73,0,0,1,1.87,2.65c0,2.23-2,3.33-4.06,3.33A5.39,5.39,0,0,1,237,339Z" fill="#1d1d1b"/><path d="M248.13,337a2.51,2.51,0,0,0,2.48,2.59,3.24,3.24,0,0,0,2.1-.79l.67.95a4.51,4.51,0,0,1-2.84,1c-2.32,0-3.79-1.74-3.79-4.14s1.42-4.17,3.63-4.17,3.41,1.75,3.41,4.15V337Zm0-1.06h4.23c-.05-1.23-.74-2.35-2-2.35A2.32,2.32,0,0,0,248.14,336Z" fill="#1d1d1b"/><path d="M259.86,333.78h-.21c-1.35,0-2.56.55-2.56,2.72v4.1h-1.32v-8h1.32v1.27a2.47,2.47,0,0,1,2.38-1.41h.39Z" fill="#1d1d1b"/><path d="M263.26,340.6l-2.53-8h1.49l1.92,6.77,1.91-6.77h1.49l-2.53,8Z" fill="#1d1d1b"/><path d="M270,329.4a1,1,0,1,1-1,1A1,1,0,0,1,270,329.4Zm.64,11.2h-1.31v-8h1.31Z" fill="#1d1d1b"/><path d="M274,336.65c0,1.6.78,3,2.32,3a2.28,2.28,0,0,0,2.07-1.35l1.08.63a3.37,3.37,0,0,1-3.15,1.87c-2.21,0-3.68-1.73-3.68-4.14s1.47-4.17,3.68-4.17a3.38,3.38,0,0,1,3.15,1.88l-1.08.62a2.29,2.29,0,0,0-2.07-1.34c-1.54,0-2.32,1.36-2.32,3Z" fill="#1d1d1b"/><path d="M282.3,337a2.51,2.51,0,0,0,2.48,2.59,3.2,3.2,0,0,0,2.1-.79l.67.95a4.48,4.48,0,0,1-2.83,1c-2.32,0-3.79-1.74-3.79-4.14s1.42-4.17,3.63-4.17S288,334.2,288,336.6V337Zm0-1.06h4.22a2.15,2.15,0,0,0-2-2.35A2.31,2.31,0,0,0,282.32,336Z" fill="#1d1d1b"/><line x1="262.43" y1="72" x2="262.43" y2="76" fill="none" stroke="#1d1d1b" stroke-miterlimit="10"/><line x1="262.43" y1="84.2" x2="262.42" y2="309.88" fill="none" stroke="#1d1d1b" stroke-miterlimit="10" stroke-dasharray="8.21 8.21"/><line x1="262.42" y1="313.98" x2="262.42" y2="317.98" fill="none" stroke="#1d1d1b" stroke-miterlimit="10"/></g><g id="VSP"><rect id="your_service-7" data-name="your service" x="12.43" y="37.74" width="59.38" height="33.65" fill="#fff" stroke="#1d1d1b" stroke-miterlimit="10"/><path d="M31.79,59.6l-3.3-11.2H30l2.74,9.92,2.75-9.92h1.48L33.64,59.6Z" fill="#1d1d1b"/><path d="M39.19,57.1a4.09,4.09,0,0,0,3.17,1.48c1.36,0,2.55-.69,2.55-2A1.62,1.62,0,0,0,43.85,55c-1.12-.53-2.86-.56-4.06-1.29a2.58,2.58,0,0,1-1.32-2.34c0-1.73,1.44-3.11,3.83-3.11A5.11,5.11,0,0,1,46,49.77l-1,.82a3.69,3.69,0,0,0-2.69-1.15c-1.36,0-2.43.67-2.43,1.87,0,1.82,2.64,1.62,4.57,2.47a2.74,2.74,0,0,1,1.88,2.65c0,2.23-2,3.33-4.07,3.33A5.4,5.4,0,0,1,38.15,58Z" fill="#1d1d1b"/><path d="M48.76,48.4H52.7a3.31,3.31,0,0,1,3.47,3.52,3.42,3.42,0,0,1-3.63,3.5h-2.4V59.6H48.76Zm3.65,1.18H50.14v4.66h2.27A2.16,2.16,0,0,0,54.72,52v-.08A2.19,2.19,0,0,0,52.41,49.58Z" fill="#1d1d1b"/><rect id="your_service-8" data-name="your service" x="12.43" y="318.74" width="59.38" height="33.65" fill="#fff" stroke="#1d1d1b" stroke-miterlimit="10"/><path d="M31.79,340.6l-3.3-11.2H30l2.74,9.92,2.75-9.92h1.48l-3.29,11.2Z" fill="#1d1d1b"/><path d="M39.19,338.1a4.09,4.09,0,0,0,3.17,1.48c1.36,0,2.55-.69,2.55-2A1.62,1.62,0,0,0,43.85,336c-1.12-.53-2.86-.56-4.06-1.29a2.58,2.58,0,0,1-1.32-2.34c0-1.73,1.44-3.11,3.83-3.11a5.11,5.11,0,0,1,3.7,1.52l-1,.82a3.69,3.69,0,0,0-2.69-1.15c-1.36,0-2.43.67-2.43,1.87,0,1.82,2.64,1.62,4.57,2.47a2.74,2.74,0,0,1,1.88,2.65c0,2.23-2,3.33-4.07,3.33a5.4,5.4,0,0,1-4.1-1.74Z" fill="#1d1d1b"/><path d="M48.76,329.4H52.7a3.31,3.31,0,0,1,3.47,3.52,3.42,3.42,0,0,1-3.63,3.5h-2.4v4.18H48.76Zm3.65,1.18H50.14v4.66h2.27A2.16,2.16,0,0,0,54.72,333v-.08A2.19,2.19,0,0,0,52.41,330.58Z" fill="#1d1d1b"/><line x1="42.13" y1="71.99" x2="42.13" y2="75.99" fill="none" stroke="#1d1d1b" stroke-miterlimit="10"/><line x1="42.13" y1="84.2" x2="42.12" y2="309.87" fill="none" stroke="#1d1d1b" stroke-miterlimit="10" stroke-dasharray="8.21 8.21"/><line x1="42.12" y1="313.98" x2="42.12" y2="317.98" fill="none" stroke="#1d1d1b" stroke-miterlimit="10"/></g><g id="_5_Show_result_page" data-name="5 Show result page"><path d="M322.89,274.15a3.67,3.67,0,0,0,2.84,1.29c1.22,0,2.28-.6,2.28-1.76a1.43,1.43,0,0,0-.95-1.38c-1-.46-2.56-.49-3.64-1.13a2.25,2.25,0,0,1-1.17-2.05c0-1.51,1.29-2.71,3.42-2.71a4.62,4.62,0,0,1,3.32,1.33l-.91.71a3.29,3.29,0,0,0-2.41-1c-1.22,0-2.18.59-2.18,1.64,0,1.6,2.37,1.42,4.11,2.16a2.4,2.4,0,0,1,1.67,2.32c0,1.95-1.8,2.92-3.64,2.92A4.89,4.89,0,0,1,322,275Z" fill="#1d1d1b"/><path d="M331.08,266.53h1.17v3.62a2.48,2.48,0,0,1,2.1-.94,2.25,2.25,0,0,1,2.39,2.38v4.75h-1.17V272c0-1.23-.65-1.69-1.48-1.69a1.81,1.81,0,0,0-1.84,1.93v4.15h-1.17Z" fill="#1d1d1b"/><path d="M345.15,272.85a3.32,3.32,0,1,1-3.3-3.64A3.33,3.33,0,0,1,345.15,272.85Zm-1.22,0v-.08c0-1.4-.72-2.59-2.08-2.59s-2.08,1.19-2.08,2.59v.08c0,1.37.71,2.58,2.08,2.58S343.93,274.26,343.93,272.89Z" fill="#1d1d1b"/><path d="M353.13,275l1.29-5.63h1.25l-1.75,7h-1.51L351,270.73l-1.47,5.61H348l-1.74-7h1.27l1.24,5.63,1.51-5.63h1.33Z" fill="#1d1d1b"/><path d="M364.74,270.37h-.18c-1.21,0-2.3.48-2.3,2.38v3.59h-1.18v-7h1.18v1.1a2.25,2.25,0,0,1,2.14-1.23h.34Z" fill="#1d1d1b"/><path d="M366.89,273.2a2.22,2.22,0,0,0,2.23,2.27,2.9,2.9,0,0,0,1.87-.69l.61.83a4.09,4.09,0,0,1-2.54.87,3.34,3.34,0,0,1-3.4-3.63c0-2.13,1.28-3.64,3.25-3.64s3.06,1.52,3.06,3.62v.37Zm0-.93h3.78a1.9,1.9,0,0,0-1.79-2A2,2,0,0,0,366.91,272.27Z" fill="#1d1d1b"/><path d="M373.13,275.47l.72-.81a3.44,3.44,0,0,0,2.16.85c.82,0,1.44-.36,1.44-1.05s-.78-.92-1.75-1.18-2.23-.6-2.23-2c0-1.18,1.11-2,2.61-2a3.87,3.87,0,0,1,2.48.87l-.68.77a2.67,2.67,0,0,0-1.77-.68c-.94,0-1.42.41-1.42,1s.4.76,1,.92l1.18.34c1,.29,1.75.78,1.75,1.91,0,1.44-1.3,2.1-2.7,2.1A4.34,4.34,0,0,1,373.13,275.47Z" fill="#1d1d1b"/><path d="M386.09,276.34h-1.17v-.8a2.51,2.51,0,0,1-2.1.94,2.25,2.25,0,0,1-2.39-2.38v-4.75h1.17v4.38c0,1.23.65,1.7,1.48,1.7a1.78,1.78,0,0,0,1.84-1.94v-4.14h1.17Z" fill="#1d1d1b"/><path d="M388.34,266.53h1.18v8.24c0,.46.14.7.69.7.3,0,.54,0,.73,0l.11,1a10.83,10.83,0,0,1-1.19.09c-.85,0-1.52-.37-1.52-1.38Z" fill="#1d1d1b"/><path d="M394.16,274.6c0,.46.09.85.92.85a6.84,6.84,0,0,0,.89-.08l.13,1a10.56,10.56,0,0,1-1.28.1c-1.13,0-1.83-.44-1.83-1.63v-4.49h-1.35v-1H393v-2.29l1.17-.4v2.69h2v1h-2Z" fill="#1d1d1b"/><path d="M402.68,269.35v.8a2.5,2.5,0,0,1,2.09-.94c1.85,0,3,1.52,3,3.64s-1.19,3.63-3,3.63a2.53,2.53,0,0,1-2.09-.94v2.93H401.5v-9.12Zm3.91,3.46c0-1.46-.71-2.58-2-2.58a1.84,1.84,0,0,0-1.9,2v1.14a1.84,1.84,0,0,0,1.9,2c1.32,0,2-1.12,2-2.57Z" fill="#1d1d1b"/><path d="M411.65,276.48a2.22,2.22,0,0,1-2.49-2.12,2,2,0,0,1,1.91-2l2.52-.34v-.45c0-1.06-.7-1.38-1.59-1.38a4.49,4.49,0,0,0-2.07.54l-.44-.91a5.48,5.48,0,0,1,2.62-.64c1.74,0,2.66.75,2.66,2.22v3.27a.94.94,0,0,0,.58.95l-.66.83a1.43,1.43,0,0,1-1-.84A2.7,2.7,0,0,1,411.65,276.48Zm0-3.25c-.79.11-1.31.36-1.31,1.08a1.32,1.32,0,0,0,1.47,1.26c.87,0,1.76-.55,1.76-1.36V273Z" fill="#1d1d1b"/><path d="M419.54,269.21a2.44,2.44,0,0,1,2,.94v-.8h1.18v7c0,1.74-1.57,2.24-3.07,2.24a6.24,6.24,0,0,1-2.66-.56l.41-.95a6,6,0,0,0,2.28.49c1.2,0,1.86-.43,1.86-1.51v-1.33a2.44,2.44,0,0,1-2,.94,3.27,3.27,0,0,1,0-6.5Zm2,3.22c0-1.25-.55-2.2-1.84-2.2s-1.89,1-1.89,2.2v.05c0,1.22.59,2.2,1.89,2.2s1.84-.95,1.84-2.2Z" fill="#1d1d1b"/><path d="M425.83,273.2a2.22,2.22,0,0,0,2.23,2.27,2.9,2.9,0,0,0,1.87-.69l.61.83a4.11,4.11,0,0,1-2.54.87,3.34,3.34,0,0,1-3.4-3.63c0-2.13,1.28-3.64,3.25-3.64s3.06,1.52,3.06,3.62v.37Zm0-.93h3.78a1.9,1.9,0,0,0-1.79-2A2,2,0,0,0,425.85,272.27Z" fill="#1d1d1b"/><line x1="262.38" y1="285" x2="483.24" y2="285" fill="none" stroke="#1d1d1b" stroke-miterlimit="10" stroke-width="2"/><polygon points="481.78 289.99 490.42 285 481.78 280.01 481.78 289.99" fill="#1d1d1b"/></g><g id="_4_Return_translated_response" data-name="4 Return translated response"><path d="M68.76,234.53h3.35c1.82,0,3.26.9,3.26,2.93a2.81,2.81,0,0,1-1.94,2.72l2.07,4.16H74.11l-1.86-3.93H70v3.93H68.76Zm3.42,4.83a1.78,1.78,0,0,0,1.93-1.87,1.8,1.8,0,0,0-1.93-1.92H70v3.79Z" fill="#1d1d1b"/><path d="M77.89,241.2a2.19,2.19,0,0,0,2.17,2.27,2.82,2.82,0,0,0,1.84-.69l.59.83a3.93,3.93,0,0,1-2.48.87,3.31,3.31,0,0,1-3.32-3.63c0-2.13,1.24-3.64,3.18-3.64s3,1.52,3,3.62v.37Zm0-.93h3.7a1.89,1.89,0,0,0-1.75-2.05A2,2,0,0,0,77.9,240.27Z" fill="#1d1d1b"/><path d="M86.32,242.6c0,.46.08.85.9.85a6.25,6.25,0,0,0,.86-.08l.13,1a10,10,0,0,1-1.25.1c-1.1,0-1.79-.44-1.79-1.63v-4.49H83.85v-1h1.32v-2.29l1.15-.4v2.69h2v1h-2Z" fill="#1d1d1b"/><path d="M95.29,244.34H94.15v-.8a2.43,2.43,0,0,1-2.05.94,2.23,2.23,0,0,1-2.34-2.38v-4.75h1.15v4.38c0,1.23.63,1.7,1.44,1.7a1.76,1.76,0,0,0,1.8-1.94v-4.14h1.14Z" fill="#1d1d1b"/><path d="M101.1,238.37h-.18c-1.17,0-2.24.48-2.24,2.38v3.59H97.53v-7h1.15v1.1a2.18,2.18,0,0,1,2.09-1.23h.33Z" fill="#1d1d1b"/><path d="M102.59,237.35h1.14v.8a2.41,2.41,0,0,1,2-.94,2.23,2.23,0,0,1,2.34,2.38v4.75H107V240c0-1.23-.63-1.69-1.44-1.69a1.8,1.8,0,0,0-1.8,1.93v4.15h-1.14Z" fill="#1d1d1b"/><path d="M115.5,242.6c0,.46.08.85.89.85a6.4,6.4,0,0,0,.87-.08l.13,1a10.21,10.21,0,0,1-1.25.1c-1.11,0-1.79-.44-1.79-1.63v-4.49H113v-1h1.32v-2.29l1.15-.4v2.69h1.94v1H115.5Z" fill="#1d1d1b"/><path d="M122.57,238.37h-.19c-1.17,0-2.24.48-2.24,2.38v3.59H119v-7h1.15v1.1a2.19,2.19,0,0,1,2.09-1.23h.34Z" fill="#1d1d1b"/><path d="M126,244.48a2.19,2.19,0,0,1-2.44-2.12,2,2,0,0,1,1.86-2l2.47-.34v-.45c0-1.06-.69-1.38-1.56-1.38a4.27,4.27,0,0,0-2,.54l-.44-.91a5.27,5.27,0,0,1,2.57-.64c1.69,0,2.59.75,2.59,2.22v3.27a.94.94,0,0,0,.57,1l-.64.83a1.39,1.39,0,0,1-.94-.84A2.62,2.62,0,0,1,126,244.48Zm0-3.25c-.77.11-1.27.36-1.27,1.08a1.29,1.29,0,0,0,1.42,1.26c.86,0,1.73-.55,1.73-1.36V241Z" fill="#1d1d1b"/><path d="M131.23,237.35h1.15v.8a2.4,2.4,0,0,1,2-.94,2.22,2.22,0,0,1,2.34,2.38v4.75h-1.15V240c0-1.23-.63-1.69-1.44-1.69a1.79,1.79,0,0,0-1.79,1.93v4.15h-1.15Z" fill="#1d1d1b"/><path d="M138.34,243.47l.7-.81a3.37,3.37,0,0,0,2.12.85c.8,0,1.4-.36,1.4-1s-.76-.92-1.71-1.18-2.17-.6-2.17-2c0-1.18,1.08-2,2.55-2a3.76,3.76,0,0,1,2.42.87l-.67.77a2.56,2.56,0,0,0-1.73-.68c-.92,0-1.38.41-1.38,1s.39.76,1,.92l1.15.34c.93.29,1.7.78,1.7,1.91,0,1.44-1.27,2.1-2.63,2.1A4.24,4.24,0,0,1,138.34,243.47Z" fill="#1d1d1b"/><path d="M145.48,234.53h1.15v8.24c0,.46.14.7.67.7.3,0,.53,0,.72,0l.11,1a10.47,10.47,0,0,1-1.16.09c-.83,0-1.49-.37-1.49-1.38Z" fill="#1d1d1b"/><path d="M151.28,244.48a2.19,2.19,0,0,1-2.44-2.12,2,2,0,0,1,1.86-2l2.47-.34v-.45c0-1.06-.69-1.38-1.55-1.38a4.28,4.28,0,0,0-2,.54l-.44-.91a5.27,5.27,0,0,1,2.57-.64c1.69,0,2.59.75,2.59,2.22v3.27a.94.94,0,0,0,.57,1l-.64.83a1.39,1.39,0,0,1-.94-.84A2.62,2.62,0,0,1,151.28,244.48Zm0-3.25c-.77.11-1.27.36-1.27,1.08a1.29,1.29,0,0,0,1.43,1.26c.85,0,1.72-.55,1.72-1.36V241Z" fill="#1d1d1b"/><path d="M158.35,242.6c0,.46.08.85.89.85a6.25,6.25,0,0,0,.87-.08l.13,1a10,10,0,0,1-1.25.1c-1.1,0-1.79-.44-1.79-1.63v-4.49h-1.32v-1h1.32v-2.29l1.15-.4v2.69h1.94v1h-1.94Z" fill="#1d1d1b"/><path d="M162.63,241.2a2.2,2.2,0,0,0,2.17,2.27,2.82,2.82,0,0,0,1.84-.69l.59.83a3.93,3.93,0,0,1-2.48.87,3.31,3.31,0,0,1-3.32-3.63c0-2.13,1.24-3.64,3.18-3.64s3,1.52,3,3.62v.37Zm0-.93h3.69a1.89,1.89,0,0,0-1.75-2.05A2,2,0,0,0,162.65,240.27Z" fill="#1d1d1b"/><path d="M173.93,243.54a2.45,2.45,0,0,1-2,.94c-1.81,0-3-1.52-3-3.63s1.16-3.64,3-3.64a2.43,2.43,0,0,1,2,.94v-3.62h1.15v9.81h-1.15Zm-3.82-2.66c0,1.45.7,2.57,2,2.57a1.82,1.82,0,0,0,1.85-2v-1.14a1.82,1.82,0,0,0-1.85-2c-1.29,0-2,1.12-2,2.58Z" fill="#1d1d1b"/><path d="M184.56,238.37h-.18c-1.18,0-2.25.48-2.25,2.38v3.59H181v-7h1.15v1.1a2.19,2.19,0,0,1,2.09-1.23h.34Z" fill="#1d1d1b"/><path d="M186.66,241.2a2.19,2.19,0,0,0,2.17,2.27,2.81,2.81,0,0,0,1.83-.69l.59.83a3.93,3.93,0,0,1-2.48.87,3.31,3.31,0,0,1-3.32-3.63c0-2.13,1.25-3.64,3.18-3.64s3,1.52,3,3.62v.37Zm0-.93h3.7a1.89,1.89,0,0,0-1.75-2.05A2,2,0,0,0,186.67,240.27Z" fill="#1d1d1b"/><path d="M192.74,243.47l.71-.81a3.32,3.32,0,0,0,2.11.85c.8,0,1.4-.36,1.4-1s-.75-.92-1.71-1.18-2.17-.6-2.17-2c0-1.18,1.08-2,2.55-2a3.74,3.74,0,0,1,2.42.87l-.67.77a2.56,2.56,0,0,0-1.72-.68c-.93,0-1.39.41-1.39,1s.39.76,1,.92l1.15.34c.94.29,1.71.78,1.71,1.91,0,1.44-1.28,2.1-2.64,2.1A4.26,4.26,0,0,1,192.74,243.47Z" fill="#1d1d1b"/><path d="M201.08,237.35v.8a2.41,2.41,0,0,1,2-.94c1.81,0,3,1.52,3,3.64s-1.16,3.63-3,3.63a2.44,2.44,0,0,1-2-.94v2.93h-1.15v-9.12Zm3.82,3.46c0-1.46-.7-2.58-2-2.58a1.82,1.82,0,0,0-1.85,2v1.14a1.82,1.82,0,0,0,1.85,2c1.29,0,2-1.12,2-2.57Z" fill="#1d1d1b"/><path d="M213.94,240.85c0,2.1-1.28,3.63-3.22,3.63s-3.22-1.53-3.22-3.63,1.29-3.64,3.22-3.64S213.94,238.72,213.94,240.85Zm-1.19,0v-.08c0-1.4-.7-2.59-2-2.59s-2,1.19-2,2.59v.08c0,1.37.7,2.58,2,2.58S212.75,242.26,212.75,240.89Z" fill="#1d1d1b"/><path d="M215.76,237.35h1.15v.8a2.4,2.4,0,0,1,2.05-.94,2.22,2.22,0,0,1,2.33,2.38v4.75h-1.15V240c0-1.23-.63-1.69-1.44-1.69a1.79,1.79,0,0,0-1.79,1.93v4.15h-1.15Z" fill="#1d1d1b"/><path d="M222.87,243.47l.7-.81a3.37,3.37,0,0,0,2.12.85c.8,0,1.4-.36,1.4-1s-.76-.92-1.71-1.18-2.17-.6-2.17-2c0-1.18,1.08-2,2.55-2a3.74,3.74,0,0,1,2.42.87l-.67.77a2.56,2.56,0,0,0-1.72-.68c-.93,0-1.39.41-1.39,1s.39.76,1,.92l1.15.34c.93.29,1.71.78,1.71,1.91,0,1.44-1.28,2.1-2.64,2.1A4.24,4.24,0,0,1,222.87,243.47Z" fill="#1d1d1b"/><path d="M230.84,241.2a2.19,2.19,0,0,0,2.17,2.27,2.84,2.84,0,0,0,1.84-.69l.58.83a3.91,3.91,0,0,1-2.48.87,3.31,3.31,0,0,1-3.32-3.63c0-2.13,1.25-3.64,3.18-3.64s3,1.52,3,3.62v.37Zm0-.93h3.7a1.89,1.89,0,0,0-1.75-2.05A2,2,0,0,0,230.85,240.27Z" fill="#1d1d1b"/><line x1="42.11" y1="253" x2="254.47" y2="253" fill="none" stroke="#1d1d1b" stroke-miterlimit="10" stroke-width="2"/><polygon points="253.01 257.99 261.65 253 253.01 248.01 253.01 257.99" fill="#1d1d1b"/></g><g id="_3_Request_to_translate_SAML_response" data-name="3 Request to translate SAML response"><path d="M89.92,152.53h3.35c1.82,0,3.27.9,3.27,2.93a2.82,2.82,0,0,1-2,2.72l2.07,4.16H95.27l-1.86-3.93H91.13v3.93H89.92Zm3.42,4.83a1.78,1.78,0,0,0,1.93-1.87,1.8,1.8,0,0,0-1.93-1.92H91.13v3.79Z" fill="#1d1d1b"/><path d="M99.05,159.2a2.2,2.2,0,0,0,2.17,2.27,2.82,2.82,0,0,0,1.84-.69l.59.83a3.93,3.93,0,0,1-2.48.87,3.31,3.31,0,0,1-3.32-3.63c0-2.13,1.24-3.64,3.18-3.64s3,1.52,3,3.62v.37Zm0-.93h3.69a1.89,1.89,0,0,0-1.75-2.05A2,2,0,0,0,99.07,158.27Z" fill="#1d1d1b"/><path d="M111.5,155.35v9.12h-1.15v-2.93a2.45,2.45,0,0,1-2,.94c-1.81,0-3-1.52-3-3.63s1.16-3.64,3-3.64a2.43,2.43,0,0,1,2,.94v-.8Zm-5,3.53c0,1.45.7,2.57,2,2.57a1.82,1.82,0,0,0,1.85-2v-1.14a1.82,1.82,0,0,0-1.85-2c-1.29,0-2,1.12-2,2.58Z" fill="#1d1d1b"/><path d="M119.21,162.34h-1.15v-.8a2.4,2.4,0,0,1-2,.94,2.23,2.23,0,0,1-2.34-2.38v-4.75h1.15v4.38c0,1.23.63,1.7,1.44,1.7a1.75,1.75,0,0,0,1.79-1.94v-4.14h1.15Z" fill="#1d1d1b"/><path d="M122.24,159.2a2.19,2.19,0,0,0,2.17,2.27,2.81,2.81,0,0,0,1.83-.69l.59.83a3.93,3.93,0,0,1-2.48.87,3.31,3.31,0,0,1-3.32-3.63c0-2.13,1.25-3.64,3.18-3.64s3,1.52,3,3.62v.37Zm0-.93H126a1.89,1.89,0,0,0-1.75-2.05A2,2,0,0,0,122.25,158.27Z" fill="#1d1d1b"/><path d="M128.32,161.47l.71-.81a3.32,3.32,0,0,0,2.11.85c.8,0,1.4-.36,1.4-1s-.76-.92-1.71-1.18-2.17-.6-2.17-2c0-1.18,1.08-2,2.55-2a3.74,3.74,0,0,1,2.42.87l-.67.77a2.56,2.56,0,0,0-1.72-.68c-.93,0-1.39.41-1.39,1s.39.76,1,.92l1.15.34c.94.29,1.71.78,1.71,1.91,0,1.44-1.28,2.1-2.64,2.1A4.24,4.24,0,0,1,128.32,161.47Z" fill="#1d1d1b"/><path d="M137.31,160.6c0,.46.09.85.9.85a6.4,6.4,0,0,0,.87-.08l.12,1a10,10,0,0,1-1.24.1c-1.11,0-1.8-.44-1.8-1.63v-4.49h-1.31v-1h1.31v-2.29l1.15-.4v2.69h1.95v1h-1.95Z" fill="#1d1d1b"/><path d="M146,160.6c0,.46.08.85.89.85a6.4,6.4,0,0,0,.87-.08l.13,1a10,10,0,0,1-1.25.1c-1.11,0-1.79-.44-1.79-1.63v-4.49h-1.32v-1h1.32v-2.29l1.15-.4v2.69h2v1h-2Z" fill="#1d1d1b"/><path d="M155.53,158.85c0,2.1-1.29,3.63-3.22,3.63s-3.22-1.53-3.22-3.63,1.29-3.64,3.22-3.64S155.53,156.72,155.53,158.85Zm-1.19,0v-.08c0-1.4-.7-2.59-2-2.59s-2,1.19-2,2.59v.08c0,1.37.7,2.58,2,2.58S154.34,160.26,154.34,158.89Z" fill="#1d1d1b"/><path d="M162.54,160.6c0,.46.09.85.9.85a6.4,6.4,0,0,0,.87-.08l.12,1a10,10,0,0,1-1.24.1c-1.11,0-1.8-.44-1.8-1.63v-4.49h-1.31v-1h1.31v-2.29l1.15-.4v2.69h2v1h-2Z" fill="#1d1d1b"/><path d="M169.61,156.37h-.18c-1.18,0-2.24.48-2.24,2.38v3.59H166v-7h1.15v1.1a2.18,2.18,0,0,1,2.09-1.23h.33Z" fill="#1d1d1b"/><path d="M173,162.48a2.19,2.19,0,0,1-2.43-2.12,2,2,0,0,1,1.86-2l2.46-.34v-.45c0-1.06-.68-1.38-1.55-1.38a4.31,4.31,0,0,0-2,.54l-.43-.91a5.26,5.26,0,0,1,2.56-.64c1.7,0,2.59.75,2.59,2.22v3.27a.94.94,0,0,0,.58,1l-.65.83a1.44,1.44,0,0,1-.94-.84A2.6,2.6,0,0,1,173,162.48Zm0-3.25c-.77.11-1.28.36-1.28,1.08a1.29,1.29,0,0,0,1.43,1.26,1.59,1.59,0,0,0,1.72-1.36V159Z" fill="#1d1d1b"/><path d="M178.28,155.35h1.14v.8a2.41,2.41,0,0,1,2.05-.94,2.22,2.22,0,0,1,2.34,2.38v4.75h-1.15V158c0-1.23-.63-1.69-1.44-1.69a1.8,1.8,0,0,0-1.8,1.93v4.15h-1.14Z" fill="#1d1d1b"/><path d="M185.39,161.47l.7-.81a3.37,3.37,0,0,0,2.11.85c.8,0,1.4-.36,1.4-1s-.75-.92-1.7-1.18-2.18-.6-2.18-2c0-1.18,1.08-2,2.55-2a3.77,3.77,0,0,1,2.43.87l-.68.77a2.54,2.54,0,0,0-1.72-.68c-.92,0-1.39.41-1.39,1s.4.76,1,.92l1.15.34c.94.29,1.71.78,1.71,1.91,0,1.44-1.27,2.1-2.63,2.1A4.24,4.24,0,0,1,185.39,161.47Z" fill="#1d1d1b"/><path d="M192.53,152.53h1.15v8.24c0,.46.14.7.67.7.29,0,.53,0,.71,0l.12,1a10.5,10.5,0,0,1-1.17.09,1.29,1.29,0,0,1-1.48-1.38Z" fill="#1d1d1b"/><path d="M198.32,162.48a2.19,2.19,0,0,1-2.43-2.12,2,2,0,0,1,1.86-2l2.47-.34v-.45c0-1.06-.69-1.38-1.56-1.38a4.34,4.34,0,0,0-2,.54l-.43-.91a5.26,5.26,0,0,1,2.56-.64c1.7,0,2.59.75,2.59,2.22v3.27a1,1,0,0,0,.58,1l-.65.83a1.4,1.4,0,0,1-.93-.84A2.64,2.64,0,0,1,198.32,162.48Zm0-3.25c-.77.11-1.28.36-1.28,1.08a1.29,1.29,0,0,0,1.43,1.26c.86,0,1.73-.55,1.73-1.36V159Z" fill="#1d1d1b"/><path d="M205.39,160.6c0,.46.09.85.9.85a6.4,6.4,0,0,0,.87-.08l.13,1a10.21,10.21,0,0,1-1.25.1c-1.11,0-1.79-.44-1.79-1.63v-4.49h-1.32v-1h1.32v-2.29l1.14-.4v2.69h2v1h-2Z" fill="#1d1d1b"/><path d="M209.68,159.2a2.19,2.19,0,0,0,2.17,2.27,2.81,2.81,0,0,0,1.83-.69l.59.83a3.91,3.91,0,0,1-2.48.87,3.31,3.31,0,0,1-3.32-3.63c0-2.13,1.25-3.64,3.18-3.64s3,1.52,3,3.62v.37Zm0-.93h3.7a1.89,1.89,0,0,0-1.75-2.05A2,2,0,0,0,209.69,158.27Z" fill="#1d1d1b"/><path d="M105.49,176.15a3.54,3.54,0,0,0,2.77,1.29c1.2,0,2.23-.6,2.23-1.77a1.43,1.43,0,0,0-.92-1.37c-1-.46-2.51-.49-3.56-1.13a2.25,2.25,0,0,1-1.15-2c0-1.51,1.26-2.71,3.35-2.71a4.41,4.41,0,0,1,3.23,1.33l-.88.71a3.19,3.19,0,0,0-2.35-1c-1.19,0-2.13.59-2.13,1.64,0,1.6,2.31,1.42,4,2.16a2.39,2.39,0,0,1,1.63,2.32c0,1.95-1.76,2.92-3.55,2.92a4.73,4.73,0,0,1-3.59-1.53Z" fill="#1d1d1b"/><path d="M118.68,176.12h-3.93l-.65,2.22h-1.27l3-9.81h1.73l3.07,9.81h-1.33Zm-3.64-1h3.35l-1.63-5.49h-.11Z" fill="#1d1d1b"/><path d="M130.22,168.53h1.5v9.81H130.5V170l-3.35,4.51h0L123.8,170v8.3h-1.22v-9.81h1.5l3.07,4.16Z" fill="#1d1d1b"/><path d="M134.54,168.53h1.21v8.73h3.92v1.08h-5.13Z" fill="#1d1d1b"/><path d="M148,172.37h-.18c-1.18,0-2.24.48-2.24,2.38v3.59h-1.15v-7h1.15v1.1a2.18,2.18,0,0,1,2.08-1.23H148Z" fill="#1d1d1b"/><path d="M150.11,175.2a2.19,2.19,0,0,0,2.17,2.27,2.86,2.86,0,0,0,1.84-.69l.58.83a3.91,3.91,0,0,1-2.48.87,3.31,3.31,0,0,1-3.32-3.63c0-2.13,1.25-3.64,3.18-3.64s3,1.52,3,3.62v.37Zm0-.93h3.7a1.89,1.89,0,0,0-1.75-2.05A2,2,0,0,0,150.12,174.27Z" fill="#1d1d1b"/><path d="M156.2,177.47l.7-.81a3.37,3.37,0,0,0,2.11.85c.8,0,1.4-.36,1.4-1s-.75-.92-1.7-1.18-2.18-.6-2.18-2c0-1.18,1.08-2,2.55-2a3.77,3.77,0,0,1,2.43.87l-.68.77a2.54,2.54,0,0,0-1.72-.68c-.92,0-1.39.41-1.39,1s.4.76,1,.92l1.15.34c.94.29,1.71.78,1.71,1.91,0,1.44-1.27,2.1-2.63,2.1A4.22,4.22,0,0,1,156.2,177.47Z" fill="#1d1d1b"/><path d="M164.53,171.35v.8a2.43,2.43,0,0,1,2-.94c1.81,0,3,1.52,3,3.64s-1.16,3.63-3,3.63a2.45,2.45,0,0,1-2-.94v2.93h-1.15v-9.12Zm3.82,3.46c0-1.46-.7-2.58-2-2.58a1.82,1.82,0,0,0-1.85,2v1.14a1.82,1.82,0,0,0,1.85,2c1.29,0,2-1.12,2-2.57Z" fill="#1d1d1b"/><path d="M177.4,174.85c0,2.1-1.29,3.63-3.22,3.63S171,177,171,174.85s1.29-3.64,3.23-3.64S177.4,172.72,177.4,174.85Zm-1.19,0v-.08c0-1.4-.7-2.59-2-2.59s-2,1.19-2,2.59v.08c0,1.37.7,2.58,2,2.58S176.21,176.26,176.21,174.89Z" fill="#1d1d1b"/><path d="M179.21,171.35h1.15v.8a2.4,2.4,0,0,1,2-.94,2.23,2.23,0,0,1,2.34,2.38v4.75H183.6V174c0-1.23-.63-1.69-1.44-1.69a1.8,1.8,0,0,0-1.8,1.93v4.15h-1.15Z" fill="#1d1d1b"/><path d="M186.33,177.47l.7-.81a3.32,3.32,0,0,0,2.11.85c.8,0,1.4-.36,1.4-1s-.75-.92-1.71-1.18-2.17-.6-2.17-2c0-1.18,1.08-2,2.55-2a3.72,3.72,0,0,1,2.42.87l-.67.77a2.54,2.54,0,0,0-1.72-.68c-.93,0-1.39.41-1.39,1s.4.76,1,.92l1.15.34c.94.29,1.71.78,1.71,1.91,0,1.44-1.28,2.1-2.63,2.1A4.22,4.22,0,0,1,186.33,177.47Z" fill="#1d1d1b"/><path d="M194.29,175.2a2.2,2.2,0,0,0,2.17,2.27,2.82,2.82,0,0,0,1.84-.69l.59.83a3.93,3.93,0,0,1-2.48.87,3.31,3.31,0,0,1-3.32-3.63c0-2.13,1.24-3.64,3.18-3.64s3,1.52,3,3.62v.37Zm0-.93H198a1.89,1.89,0,0,0-1.75-2.05A2,2,0,0,0,194.31,174.27Z" fill="#1d1d1b"/><line x1="261.63" y1="187" x2="49.3" y2="187" fill="none" stroke="#1d1d1b" stroke-miterlimit="10" stroke-width="2"/><polygon points="50.76 182.01 42.13 187 50.76 191.99 50.76 182.01" fill="#1d1d1b"/></g><g id="_2_Submit_HTML_form" data-name="2 Submit HTML form"><path d="M319.59,143.15a3.56,3.56,0,0,0,2.78,1.29c1.19,0,2.22-.6,2.22-1.77a1.43,1.43,0,0,0-.92-1.37c-1-.46-2.51-.49-3.56-1.13a2.25,2.25,0,0,1-1.15-2c0-1.51,1.26-2.71,3.35-2.71a4.45,4.45,0,0,1,3.24,1.33l-.89.71a3.19,3.19,0,0,0-2.35-1c-1.19,0-2.13.59-2.13,1.64,0,1.6,2.31,1.42,4,2.16a2.4,2.4,0,0,1,1.64,2.32c0,1.95-1.77,2.92-3.56,2.92a4.73,4.73,0,0,1-3.59-1.53Z" fill="#1d1d1b"/><path d="M333.05,145.34H331.9v-.8a2.42,2.42,0,0,1-2,.94,2.23,2.23,0,0,1-2.34-2.38v-4.75h1.15v4.38c0,1.23.63,1.7,1.44,1.7a1.75,1.75,0,0,0,1.79-1.94v-4.14h1.15Z" fill="#1d1d1b"/><path d="M336.43,145.34h-1.14v-9.81h1.14v3.62a2.45,2.45,0,0,1,2.05-.94c1.81,0,3,1.52,3,3.64s-1.16,3.63-3,3.63a2.47,2.47,0,0,1-2.05-.94Zm3.83-3.53c0-1.46-.7-2.58-2-2.58a1.82,1.82,0,0,0-1.85,2v1.14a1.82,1.82,0,0,0,1.85,2c1.29,0,2-1.12,2-2.57Z" fill="#1d1d1b"/><path d="M348.52,145.34h-1.15v-4.4c0-1.25-.63-1.68-1.4-1.68s-1.54.59-1.54,1.94v4.14h-1.15v-7h1.15v.8a2.13,2.13,0,0,1,1.83-.94,2.09,2.09,0,0,1,1.9,1.16,2.36,2.36,0,0,1,2.12-1.16,2.25,2.25,0,0,1,2.36,2.34v4.79h-1.15v-4.4c0-1.25-.67-1.68-1.43-1.68s-1.54.59-1.54,1.94Z" fill="#1d1d1b"/><path d="M355.4,135.53a.86.86,0,0,1,.85.86.85.85,0,0,1-1.7,0A.86.86,0,0,1,355.4,135.53Zm.56,9.81h-1.14v-7H356Z" fill="#1d1d1b"/><path d="M360,143.6c0,.46.09.85.9.85a6.4,6.4,0,0,0,.87-.08l.12,1a10,10,0,0,1-1.24.1c-1.11,0-1.8-.44-1.8-1.63v-4.49h-1.31v-1h1.31v-2.29l1.15-.4v2.69H362v1H360Z" fill="#1d1d1b"/><path d="M373.85,140.83h-5.17v4.51h-1.21v-9.81h1.21v4.26h5.17v-4.26h1.2v9.81h-1.2Z" fill="#1d1d1b"/><path d="M376.82,135.53h6.73v1.08h-2.76v8.73h-1.21v-8.73h-2.76Z" fill="#1d1d1b"/><path d="M393,135.53h1.5v9.81h-1.22V137l-3.35,4.51h0L386.54,137v8.3h-1.22v-9.81h1.5l3.07,4.16Z" fill="#1d1d1b"/><path d="M397.28,135.53h1.2v8.73h3.92v1.08h-5.12Z" fill="#1d1d1b"/><path d="M408.63,138.35H410v1h-1.39v6h-1.15v-6h-1.16v-1h1.16V137c0-1.2.82-1.63,1.92-1.63a7.84,7.84,0,0,1,1.12.09l-.08,1c-.27,0-.77,0-1,0a.73.73,0,0,0-.82.84Z" fill="#1d1d1b"/><path d="M417.51,141.85c0,2.1-1.29,3.63-3.22,3.63s-3.22-1.53-3.22-3.63,1.29-3.64,3.22-3.64S417.51,139.72,417.51,141.85Zm-1.19,0v-.08c0-1.4-.7-2.59-2-2.59s-2,1.19-2,2.59v.08c0,1.37.7,2.58,2,2.58S416.32,143.26,416.32,141.89Z" fill="#1d1d1b"/><path d="M422.9,139.37h-.18c-1.18,0-2.24.48-2.24,2.38v3.59h-1.15v-7h1.15v1.1a2.18,2.18,0,0,1,2.08-1.23h.34Z" fill="#1d1d1b"/><path d="M429.62,145.34h-1.15v-4.4c0-1.25-.63-1.68-1.4-1.68s-1.54.59-1.54,1.94v4.14h-1.15v-7h1.15v.8a2.14,2.14,0,0,1,1.84-.94,2.08,2.08,0,0,1,1.89,1.16,2.37,2.37,0,0,1,2.13-1.16,2.25,2.25,0,0,1,2.35,2.34v4.79h-1.15v-4.4c0-1.25-.67-1.68-1.43-1.68s-1.54.59-1.54,1.94Z" fill="#1d1d1b"/><line x1="490.83" y1="154" x2="269.13" y2="154" fill="none" stroke="#1d1d1b" stroke-miterlimit="10" stroke-width="2"/><polygon points="270.59 149.01 261.96 154 270.59 158.99 270.59 149.01" fill="#1d1d1b"/></g><g id="_1_Provide_SAML_response_in_HMTL_form" data-name="1 Provide SAML response in HMTL form"><path d="M522,86.53h3.44a2.91,2.91,0,0,1,3,3.08,3,3,0,0,1-3.18,3.07h-2.1v3.66H522Zm3.19,1h-2v4.07h2a1.89,1.89,0,0,0,2-2v-.08A1.91,1.91,0,0,0,525.17,87.57Z" fill="#1d1d1b"/><path d="M533.6,90.37h-.18c-1.18,0-2.25.48-2.25,2.38v3.59H530v-7h1.14v1.1a2.2,2.2,0,0,1,2.09-1.23h.34Z" fill="#1d1d1b"/><path d="M540.94,92.85c0,2.1-1.29,3.63-3.23,3.63s-3.22-1.53-3.22-3.63,1.29-3.64,3.22-3.64S540.94,90.72,540.94,92.85Zm-1.2,0v-.08c0-1.4-.7-2.59-2-2.59s-2,1.19-2,2.59v.08c0,1.37.7,2.58,2,2.58S539.74,94.26,539.74,92.89Z" fill="#1d1d1b"/><path d="M544.11,96.34l-2.21-7h1.3l1.68,5.92,1.67-5.92h1.3l-2.21,7Z" fill="#1d1d1b"/><path d="M550,86.53a.86.86,0,0,1,.84.86.85.85,0,1,1-1.69,0A.86.86,0,0,1,550,86.53Zm.56,9.81h-1.15v-7h1.15Z" fill="#1d1d1b"/><path d="M557.37,95.54a2.47,2.47,0,0,1-2,.94c-1.81,0-3-1.52-3-3.63s1.16-3.64,3-3.64a2.44,2.44,0,0,1,2,.94V86.53h1.15v9.81h-1.15Zm-3.82-2.66c0,1.45.7,2.57,2,2.57a1.82,1.82,0,0,0,1.84-2V92.27a1.82,1.82,0,0,0-1.84-2c-1.29,0-2,1.12-2,2.58Z" fill="#1d1d1b"/><path d="M561.54,93.2a2.19,2.19,0,0,0,2.17,2.27,2.82,2.82,0,0,0,1.84-.69l.58.83a3.9,3.9,0,0,1-2.47.87,3.31,3.31,0,0,1-3.32-3.63c0-2.13,1.24-3.64,3.18-3.64s3,1.52,3,3.62v.37Zm0-.93h3.7a1.89,1.89,0,0,0-1.75-2A2,2,0,0,0,561.55,92.27Z" fill="#1d1d1b"/><path d="M572.38,94.15a3.53,3.53,0,0,0,2.77,1.29c1.19,0,2.23-.6,2.23-1.77a1.42,1.42,0,0,0-.93-1.37c-1-.46-2.51-.49-3.56-1.13a2.24,2.24,0,0,1-1.14-2c0-1.51,1.26-2.71,3.34-2.71a4.45,4.45,0,0,1,3.24,1.33l-.88.71a3.23,3.23,0,0,0-2.36-1c-1.19,0-2.13.59-2.13,1.64,0,1.6,2.32,1.42,4,2.16a2.4,2.4,0,0,1,1.64,2.32c0,2-1.77,2.92-3.56,2.92A4.75,4.75,0,0,1,571.46,95Z" fill="#1d1d1b"/><path d="M585.57,94.12h-3.94L581,96.34h-1.28l3-9.81h1.74l3.06,9.81h-1.33Zm-3.65-1h3.35l-1.62-5.49h-.11Z" fill="#1d1d1b"/><path d="M597.1,86.53h1.5v9.81h-1.22V88L594,92.53h0L590.69,88v8.3h-1.22V86.53H591L594,90.69Z" fill="#1d1d1b"/><path d="M601.43,86.53h1.2v8.73h3.92v1.08h-5.12Z" fill="#1d1d1b"/><path d="M614.89,90.37h-.18c-1.17,0-2.24.48-2.24,2.38v3.59h-1.15v-7h1.15v1.1a2.19,2.19,0,0,1,2.09-1.23h.33Z" fill="#1d1d1b"/><path d="M617,93.2a2.2,2.2,0,0,0,2.18,2.27,2.81,2.81,0,0,0,1.83-.69l.59.83a3.93,3.93,0,0,1-2.48.87,3.31,3.31,0,0,1-3.32-3.63c0-2.13,1.25-3.64,3.18-3.64s3,1.52,3,3.62v.37Zm0-.93h3.7c-.05-1.07-.65-2-1.75-2A2,2,0,0,0,617,92.27Z" fill="#1d1d1b"/><path d="M623.08,95.47l.7-.81a3.37,3.37,0,0,0,2.12.85c.8,0,1.4-.36,1.4-1.05s-.76-.92-1.71-1.18-2.17-.6-2.17-2c0-1.18,1.08-2,2.55-2a3.74,3.74,0,0,1,2.42.87l-.67.77a2.56,2.56,0,0,0-1.72-.68c-.93,0-1.39.41-1.39,1s.39.76,1,.92l1.15.34c.94.29,1.71.78,1.71,1.91,0,1.44-1.28,2.1-2.64,2.1A4.24,4.24,0,0,1,623.08,95.47Z" fill="#1d1d1b"/><path d="M631.41,89.35v.8a2.45,2.45,0,0,1,2.05-.94c1.81,0,3,1.52,3,3.64s-1.16,3.63-3,3.63a2.47,2.47,0,0,1-2.05-.94v2.93h-1.14V89.35Zm3.83,3.46c0-1.46-.7-2.58-2-2.58a1.82,1.82,0,0,0-1.85,2v1.14a1.82,1.82,0,0,0,1.85,2c1.29,0,2-1.12,2-2.57Z" fill="#1d1d1b"/><path d="M644.28,92.85c0,2.1-1.29,3.63-3.22,3.63s-3.22-1.53-3.22-3.63,1.29-3.64,3.22-3.64S644.28,90.72,644.28,92.85Zm-1.19,0v-.08c0-1.4-.7-2.59-2-2.59s-2,1.19-2,2.59v.08c0,1.37.7,2.58,2,2.58S643.09,94.26,643.09,92.89Z" fill="#1d1d1b"/><path d="M646.1,89.35h1.15v.8a2.38,2.38,0,0,1,2-.94,2.22,2.22,0,0,1,2.34,2.38v4.75h-1.15V92c0-1.23-.63-1.69-1.44-1.69a1.79,1.79,0,0,0-1.79,1.93v4.15H646.1Z" fill="#1d1d1b"/><path d="M653.21,95.47l.7-.81a3.37,3.37,0,0,0,2.12.85c.79,0,1.4-.36,1.4-1.05s-.76-.92-1.71-1.18-2.17-.6-2.17-2c0-1.18,1.07-2,2.55-2a3.76,3.76,0,0,1,2.42.87l-.67.77a2.58,2.58,0,0,0-1.73-.68c-.92,0-1.38.41-1.38,1s.39.76,1,.92l1.14.34c.94.29,1.71.78,1.71,1.91,0,1.44-1.27,2.1-2.63,2.1A4.24,4.24,0,0,1,653.21,95.47Z" fill="#1d1d1b"/><path d="M661.18,93.2a2.19,2.19,0,0,0,2.17,2.27,2.81,2.81,0,0,0,1.83-.69l.59.83a3.93,3.93,0,0,1-2.48.87A3.31,3.31,0,0,1,660,92.85c0-2.13,1.25-3.64,3.18-3.64s3,1.52,3,3.62v.37Zm0-.93h3.7a1.89,1.89,0,0,0-1.75-2A2,2,0,0,0,661.19,92.27Z" fill="#1d1d1b"/><path d="M555.44,102.53a.85.85,0,0,1,.84.86.84.84,0,0,1-.84.85.85.85,0,0,1-.85-.85A.86.86,0,0,1,555.44,102.53Zm.56,9.81h-1.15v-7H556Z" fill="#1d1d1b"/><path d="M558.24,105.35h1.15v.8a2.4,2.4,0,0,1,2.05-.94,2.23,2.23,0,0,1,2.34,2.38v4.75h-1.15V108c0-1.23-.63-1.69-1.45-1.69a1.8,1.8,0,0,0-1.79,1.93v4.15h-1.15Z" fill="#1d1d1b"/><path d="M576.29,107.83h-5.17v4.51h-1.2v-9.81h1.2v4.26h5.17v-4.26h1.21v9.81h-1.21Z" fill="#1d1d1b"/><path d="M588,102.53h1.5v9.81h-1.22V104l-3.34,4.51h0L581.54,104v8.3h-1.22v-9.81h1.5l3.07,4.16Z" fill="#1d1d1b"/><path d="M591.23,102.53H598v1.08h-2.76v8.73H594v-8.73h-2.75Z" fill="#1d1d1b"/><path d="M599.72,102.53h1.21v8.73h3.92v1.08h-5.13Z" fill="#1d1d1b"/><path d="M611.08,105.35h1.39v1h-1.39v6h-1.15v-6h-1.16v-1h1.16V104c0-1.2.81-1.63,1.92-1.63a7.84,7.84,0,0,1,1.12.09l-.08,1c-.27,0-.77,0-1,0-.66,0-.81.4-.81.84Z" fill="#1d1d1b"/><path d="M620,108.85c0,2.1-1.29,3.63-3.22,3.63s-3.23-1.53-3.23-3.63,1.29-3.64,3.23-3.64S620,106.72,620,108.85Zm-1.19,0v-.08c0-1.4-.7-2.59-2-2.59s-2,1.19-2,2.59v.08c0,1.37.69,2.58,2,2.58S618.77,110.26,618.77,108.89Z" fill="#1d1d1b"/><path d="M625.35,106.37h-.19c-1.17,0-2.24.48-2.24,2.38v3.59h-1.15v-7h1.15v1.1a2.19,2.19,0,0,1,2.09-1.23h.34Z" fill="#1d1d1b"/><path d="M632.07,112.34h-1.15v-4.4c0-1.25-.63-1.68-1.4-1.68s-1.54.59-1.54,1.94v4.14h-1.15v-7H628v.8a2.13,2.13,0,0,1,1.83-.94,2.07,2.07,0,0,1,1.89,1.16,2.39,2.39,0,0,1,2.13-1.16,2.26,2.26,0,0,1,2.36,2.34v4.79H635v-4.4c0-1.25-.68-1.68-1.43-1.68s-1.54.59-1.54,1.94Z" fill="#1d1d1b"/><line x1="698" y1="121" x2="496.93" y2="121" fill="none" stroke="#1d1d1b" stroke-miterlimit="10" stroke-width="2"/><polygon points="498.39 116.01 489.76 121 498.39 125.99 498.39 116.01" fill="#1d1d1b"/></g></svg>